<?xml version="1.0" standalone="no"?>
<!DOCTYPE svg PUBLIC "-//W3C//DTD SVG 20010904//EN"
 "http://www.w3.org/TR/2001/REC-SVG-20010904/DTD/svg10.dtd">
<svg version="1.0" xmlns="http://www.w3.org/2000/svg"
 width="3264.000000pt" height="3264.000000pt" viewBox="0 0 3264.000000 3264.000000"
 preserveAspectRatio="xMidYMid meet">
<metadata>
Created by potrace 1.14, written by Peter Selinger 2001-2017
</metadata>
<g transform="translate(0.000000,3264.000000) scale(0.100000,-0.100000)"
fill="#000000" stroke="none">
<path d="M15728 31884 c-2 -1 -48 -5 -103 -8 -55 -3 -138 -8 -185 -11 -47 -3
-119 -7 -160 -11 -41 -3 -111 -7 -155 -10 -85 -5 -200 -14 -250 -20 -16 -1
-91 -10 -165 -19 -74 -9 -142 -16 -150 -16 -8 -1 -53 -5 -100 -11 -47 -5 -103
-11 -125 -13 -22 -2 -61 -6 -87 -9 -26 -2 -63 -10 -83 -16 -19 -6 -39 -9 -45
-5 -5 3 -27 1 -47 -4 -21 -6 -60 -12 -88 -15 -27 -3 -65 -10 -84 -15 -19 -6
-38 -8 -43 -5 -4 3 -33 -2 -63 -11 -31 -9 -60 -13 -65 -10 -5 3 -27 1 -49 -5
-21 -5 -56 -12 -77 -14 -62 -6 -163 -26 -241 -47 -40 -10 -85 -19 -101 -19
-16 0 -55 -9 -87 -20 -32 -11 -70 -20 -84 -20 -24 0 -75 -10 -271 -57 -36 -8
-80 -16 -98 -18 -18 -2 -84 -20 -146 -39 -63 -20 -126 -36 -139 -36 -14 0 -77
-15 -139 -34 -62 -19 -140 -39 -173 -45 -34 -6 -155 -43 -270 -81 -116 -39
-239 -77 -275 -86 -104 -24 -465 -148 -637 -217 -87 -36 -232 -91 -323 -122
-91 -32 -199 -75 -240 -95 -41 -20 -119 -54 -172 -75 -54 -20 -108 -45 -120
-54 -13 -10 -75 -37 -138 -60 -63 -23 -122 -49 -130 -57 -9 -7 -36 -21 -60
-29 -25 -9 -68 -29 -96 -45 -29 -16 -80 -40 -115 -54 -34 -15 -70 -32 -78 -40
-9 -8 -45 -26 -80 -40 -36 -14 -72 -32 -80 -40 -9 -8 -47 -26 -86 -41 -38 -14
-76 -32 -85 -39 -8 -7 -40 -25 -70 -40 -89 -44 -164 -86 -169 -94 -4 -5 -31
-21 -61 -36 -30 -15 -82 -42 -115 -61 -33 -18 -83 -45 -112 -59 -28 -14 -54
-30 -58 -35 -3 -6 -28 -21 -56 -32 -27 -12 -49 -25 -49 -30 0 -4 -8 -10 -18
-13 -18 -6 -107 -60 -152 -93 -14 -10 -41 -26 -60 -36 -19 -9 -55 -30 -80 -47
-25 -16 -63 -39 -85 -51 -22 -12 -53 -32 -68 -45 -16 -13 -34 -24 -42 -24 -7
0 -19 -7 -26 -16 -8 -9 -32 -25 -54 -35 -22 -11 -60 -34 -85 -54 -45 -34 -56
-42 -119 -80 -18 -11 -45 -30 -59 -42 -15 -13 -31 -23 -36 -23 -4 0 -25 -13
-45 -30 -60 -50 -67 -54 -93 -70 -58 -34 -154 -99 -176 -119 -12 -12 -27 -21
-32 -21 -5 0 -20 -10 -34 -22 -14 -13 -42 -34 -62 -48 -19 -14 -46 -34 -60
-45 -13 -11 -34 -28 -47 -37 -72 -56 -97 -75 -122 -93 -16 -11 -38 -29 -50
-40 -12 -11 -41 -33 -66 -50 -24 -16 -71 -51 -104 -78 -33 -26 -70 -55 -82
-65 -34 -27 -114 -95 -141 -119 -14 -13 -28 -23 -31 -23 -3 0 -25 -17 -48 -38
-23 -20 -63 -55 -89 -77 -27 -22 -61 -51 -76 -65 -16 -14 -40 -34 -54 -45 -14
-11 -31 -25 -37 -31 -7 -5 -43 -37 -82 -71 -38 -33 -93 -82 -122 -109 -29 -27
-89 -83 -133 -124 -205 -189 -252 -233 -369 -351 -198 -197 -511 -521 -571
-590 -30 -35 -64 -73 -75 -84 -11 -12 -36 -41 -57 -66 -20 -24 -56 -65 -80
-91 -23 -25 -63 -70 -88 -99 -25 -29 -52 -60 -61 -68 -9 -9 -58 -68 -108 -131
-51 -63 -100 -124 -110 -135 -9 -11 -30 -38 -47 -60 -16 -22 -31 -42 -34 -45
-3 -3 -21 -25 -40 -50 -19 -25 -37 -47 -41 -50 -4 -3 -37 -43 -73 -90 -37 -47
-79 -101 -94 -120 -16 -19 -77 -105 -137 -190 -60 -85 -112 -157 -115 -160
-14 -11 -211 -293 -295 -422 -50 -76 -136 -207 -192 -292 -56 -85 -111 -169
-121 -187 -11 -19 -37 -63 -57 -99 -21 -36 -49 -85 -62 -109 -13 -24 -37 -63
-53 -87 -17 -23 -30 -46 -30 -49 0 -4 -27 -51 -60 -106 -33 -54 -60 -101 -60
-104 0 -3 -11 -23 -24 -44 -47 -74 -383 -732 -445 -871 -19 -41 -60 -131 -92
-199 -33 -68 -59 -125 -59 -127 0 -2 -25 -59 -56 -126 -66 -145 -74 -163 -107
-248 -43 -112 -197 -503 -217 -550 -10 -25 -25 -67 -34 -95 -8 -27 -31 -93
-49 -145 -60 -167 -183 -541 -220 -665 -20 -66 -48 -160 -62 -210 -15 -49 -28
-99 -29 -110 -2 -11 -7 -29 -13 -40 -9 -17 -73 -266 -138 -540 -105 -440 -132
-559 -141 -634 -3 -25 -16 -96 -29 -157 -14 -62 -27 -134 -30 -160 -4 -26 -15
-88 -25 -138 -10 -50 -21 -118 -25 -151 -3 -33 -10 -79 -16 -102 -5 -24 -8
-46 -7 -50 1 -5 -3 -45 -10 -90 -7 -46 -17 -120 -22 -165 -6 -46 -15 -108 -20
-138 -12 -65 -17 -121 -25 -250 -4 -52 -8 -102 -11 -110 -2 -9 -6 -58 -9 -109
-2 -52 -7 -108 -10 -125 -2 -17 -7 -71 -10 -121 -3 -49 -8 -99 -11 -110 -2
-11 -6 -87 -8 -170 -3 -82 -8 -233 -13 -335 -8 -189 -8 -751 1 -1030 5 -180
15 -352 31 -590 3 -36 7 -103 10 -150 3 -47 12 -141 21 -210 8 -69 17 -150 20
-180 4 -50 7 -81 19 -180 2 -19 6 -57 9 -85 3 -27 10 -86 16 -130 7 -44 13
-95 15 -112 2 -18 8 -56 15 -83 7 -28 10 -53 7 -56 -3 -3 -1 -20 5 -37 5 -18
13 -61 18 -97 5 -36 14 -96 20 -135 7 -38 15 -95 20 -125 5 -30 13 -84 18
-120 9 -62 19 -108 57 -265 10 -38 21 -95 26 -125 4 -30 15 -75 24 -99 8 -24
15 -58 15 -75 0 -17 9 -64 20 -104 11 -39 20 -82 20 -95 0 -13 16 -73 35 -133
19 -60 35 -119 35 -131 0 -12 19 -81 41 -155 23 -73 43 -150 45 -171 2 -21 33
-126 68 -235 36 -108 81 -255 100 -327 57 -208 143 -454 245 -700 23 -55 69
-176 102 -270 34 -93 74 -194 90 -223 16 -29 45 -97 65 -150 19 -53 44 -112
55 -131 11 -19 38 -82 60 -139 21 -58 48 -119 58 -136 10 -17 31 -60 46 -96
15 -36 33 -72 41 -81 7 -8 27 -48 43 -87 17 -40 37 -79 46 -88 8 -8 15 -21 15
-27 0 -11 81 -185 125 -267 13 -25 35 -69 49 -97 14 -29 30 -53 35 -53 4 0 16
-21 26 -48 10 -26 24 -55 32 -64 8 -9 28 -43 44 -75 17 -32 45 -85 64 -118 19
-33 46 -82 60 -110 14 -27 41 -76 58 -107 18 -31 42 -74 54 -96 12 -21 28 -44
36 -51 8 -6 21 -26 28 -44 7 -18 23 -45 36 -60 13 -16 23 -34 23 -42 0 -7 7
-18 16 -26 8 -7 26 -34 39 -60 14 -26 28 -49 32 -51 4 -1 16 -19 26 -38 23
-46 63 -112 75 -126 6 -6 20 -29 31 -50 23 -41 67 -105 79 -114 4 -3 13 -16
20 -30 6 -14 28 -45 47 -70 19 -25 42 -58 51 -75 9 -16 23 -34 30 -38 8 -4 14
-14 14 -22 0 -7 9 -24 20 -37 12 -12 31 -38 43 -57 12 -19 29 -44 37 -56 8
-11 24 -36 35 -54 11 -19 28 -42 37 -52 9 -10 22 -27 28 -39 6 -12 18 -29 26
-38 9 -9 37 -46 64 -82 27 -36 56 -74 65 -85 8 -11 28 -38 45 -60 17 -22 38
-50 48 -62 25 -33 48 -63 81 -108 17 -22 39 -51 51 -65 11 -14 60 -75 108
-135 88 -111 96 -122 142 -175 41 -48 53 -61 105 -125 28 -33 59 -70 70 -82
27 -29 41 -46 98 -118 27 -33 56 -67 65 -76 10 -9 51 -53 92 -99 41 -45 93
-102 115 -125 22 -23 85 -91 140 -150 193 -208 671 -674 845 -825 35 -30 71
-62 80 -70 9 -8 49 -44 90 -79 41 -36 80 -70 85 -75 27 -29 249 -218 289 -246
25 -17 63 -49 85 -71 9 -8 34 -29 56 -44 22 -16 56 -43 76 -60 52 -44 79 -66
129 -105 25 -19 47 -38 48 -42 2 -5 10 -8 18 -8 8 0 14 -4 14 -8 0 -8 84 -74
135 -106 16 -10 32 -22 35 -25 4 -7 248 -183 304 -221 12 -8 38 -27 57 -43 20
-15 41 -27 47 -27 7 0 12 -4 12 -8 0 -8 264 -192 275 -192 3 0 11 -4 18 -10 7
-5 80 -53 162 -107 83 -53 179 -115 215 -138 74 -48 219 -135 226 -135 2 0 21
-11 42 -24 58 -38 124 -76 154 -89 16 -6 28 -15 28 -19 0 -4 5 -8 11 -8 6 0
30 -13 54 -30 24 -16 46 -30 50 -30 3 0 49 -26 103 -58 53 -33 165 -93 247
-134 83 -41 175 -88 205 -105 90 -51 389 -198 480 -237 47 -20 99 -43 115 -51
17 -8 80 -37 140 -66 128 -60 372 -165 430 -184 39 -13 91 -34 150 -60 26 -12
73 -31 265 -105 25 -9 56 -21 70 -27 14 -6 81 -29 150 -53 69 -23 215 -74 325
-113 200 -70 299 -101 495 -158 58 -17 125 -37 150 -44 25 -8 97 -28 160 -45
63 -18 131 -38 150 -46 35 -13 169 -48 225 -58 17 -3 54 -12 84 -20 30 -8 58
-13 62 -10 4 2 10 0 13 -5 5 -8 47 -18 106 -26 8 -1 22 -5 30 -8 15 -5 106
-27 131 -30 8 -2 19 -5 24 -9 6 -3 30 -9 55 -13 25 -3 110 -19 190 -35 80 -15
177 -33 215 -40 39 -7 144 -25 235 -41 160 -29 575 -89 855 -124 41 -5 246
-25 320 -31 33 -2 159 -13 280 -24 121 -11 283 -22 360 -25 77 -3 223 -8 325
-12 300 -11 1157 -4 1265 11 22 3 90 8 150 11 61 3 139 8 175 10 36 2 106 7
155 10 50 3 239 22 420 41 182 19 348 36 370 38 22 3 72 9 110 15 39 5 100 14
137 20 36 5 71 12 76 15 5 3 32 8 58 10 27 3 78 10 114 15 36 6 97 15 135 20
39 6 83 15 99 20 15 6 42 11 60 11 18 0 59 9 91 20 32 11 70 20 84 20 24 0 94
14 271 57 36 9 90 19 120 23 30 5 75 15 99 24 24 9 58 16 77 16 18 0 84 15
146 34 62 18 140 39 173 46 33 6 101 25 152 41 50 16 111 32 135 35 23 4 117
30 208 59 91 29 194 60 230 70 170 44 709 231 893 309 56 24 156 62 222 86 66
23 140 53 165 67 25 14 90 42 145 62 55 21 123 50 150 64 28 14 98 44 155 66
58 23 117 50 132 61 15 11 57 31 94 45 38 14 75 32 84 40 9 8 36 22 60 30 25
9 68 29 96 45 29 16 80 40 115 54 34 15 70 32 78 40 9 8 51 28 94 46 42 17 77
35 77 38 0 4 27 18 60 30 33 13 60 27 60 32 0 4 26 19 58 34 31 15 86 44 122
66 36 21 88 51 115 65 28 14 80 42 117 63 37 20 89 49 117 64 27 15 51 31 53
35 1 4 19 16 38 26 19 9 55 31 80 47 25 16 66 41 93 55 26 14 47 29 47 34 0 5
16 15 36 21 19 7 38 18 40 25 3 7 22 21 42 30 35 15 75 40 132 83 14 10 40 24
58 31 17 8 32 17 32 22 0 5 16 15 35 23 19 8 35 19 35 24 0 4 15 16 33 25 17
9 52 33 77 52 25 19 60 41 78 49 17 8 32 19 32 25 0 5 9 12 19 16 17 5 50 28
116 80 11 9 29 21 41 28 33 19 88 55 99 65 6 5 24 17 40 28 29 18 42 29 85 67
11 9 23 17 26 17 6 0 35 21 94 69 34 28 137 107 210 161 33 25 71 53 83 62 12
10 40 31 62 48 22 16 47 35 55 42 8 7 44 37 80 67 36 29 72 61 82 70 9 9 28
25 42 36 14 11 36 29 49 40 13 11 45 38 72 60 81 68 99 84 115 99 8 8 44 37
80 66 36 28 119 102 184 163 65 62 146 137 179 167 196 179 344 325 644 636
218 226 246 256 301 323 21 24 53 61 72 81 37 38 91 98 177 196 28 32 64 73
80 90 35 39 59 67 103 124 19 25 43 54 52 65 9 11 46 58 83 105 36 47 74 94
83 105 9 11 45 56 80 100 35 44 73 91 84 103 21 26 181 249 212 297 11 16 30
41 43 55 13 14 23 30 23 37 0 6 4 13 9 15 17 6 361 510 361 529 0 5 5 9 10 9
6 0 10 4 10 10 0 5 51 87 113 182 107 162 217 340 217 350 0 3 32 57 70 122
39 64 70 119 70 122 0 3 14 25 30 49 17 24 30 46 30 48 0 3 24 45 53 94 28 49
99 184 157 299 58 115 108 211 111 214 10 8 147 283 168 336 21 55 57 133 133
294 27 58 70 152 95 210 24 58 55 130 69 161 13 31 24 61 24 66 0 5 9 28 20
51 11 22 20 47 20 55 0 7 4 17 9 23 5 5 24 47 41 94 18 47 41 103 51 125 9 23
21 54 25 70 4 17 11 35 15 41 10 12 17 31 99 267 32 92 56 167 52 167 -4 0 -2
4 5 8 6 4 18 32 26 62 9 30 32 100 52 155 20 55 47 138 60 185 88 308 139 485
164 560 11 36 57 218 101 405 44 187 87 367 95 400 8 33 19 87 24 120 4 33 20
121 35 195 60 309 77 400 81 427 2 15 9 60 15 98 6 39 14 92 16 120 3 27 9 67
14 89 5 22 7 43 5 46 -2 3 0 24 5 47 5 22 12 60 14 84 3 24 7 53 9 64 3 11 8
49 12 85 5 36 9 72 10 80 8 52 27 235 31 285 2 33 9 112 15 175 5 63 12 140
14 170 3 30 7 80 10 110 7 77 13 195 20 410 4 102 8 228 10 280 8 182 1 961
-10 1090 -5 67 -15 219 -20 320 -4 71 -13 213 -21 310 -4 48 -13 146 -19 195
-45 382 -56 482 -56 510 1 11 -4 43 -11 70 -6 28 -11 59 -10 70 1 11 -5 42
-13 68 -8 26 -12 54 -9 62 3 8 1 29 -5 47 -6 18 -13 59 -16 91 -3 31 -10 69
-15 83 -6 14 -10 38 -10 55 0 16 -4 48 -10 71 -5 24 -14 77 -20 118 -11 77
-40 217 -67 330 -8 36 -19 90 -24 120 -4 30 -15 75 -24 99 -8 24 -15 58 -15
75 0 17 -8 63 -18 101 -11 39 -19 81 -20 94 -1 13 -17 74 -36 135 -19 61 -39
136 -44 166 -6 30 -24 98 -40 150 -17 52 -33 115 -36 140 -4 25 -40 146 -81
270 -41 124 -90 281 -109 350 -44 156 -112 354 -166 485 -23 55 -82 210 -130
344 -49 134 -96 251 -105 260 -8 10 -35 73 -60 140 -24 67 -53 136 -64 154
-11 18 -34 71 -51 117 -17 47 -53 131 -80 187 -28 55 -50 105 -50 110 0 5 -9
19 -20 31 -11 11 -31 51 -45 89 -14 37 -32 74 -40 83 -7 8 -22 38 -33 66 -11
28 -36 80 -54 115 -19 35 -44 87 -57 114 -12 28 -37 77 -56 110 -18 33 -47 85
-63 115 -74 140 -95 176 -107 190 -7 8 -22 35 -34 60 -12 25 -37 72 -56 105
-18 33 -44 80 -56 105 -12 25 -32 58 -45 73 -13 16 -24 34 -24 42 0 7 -7 18
-16 26 -8 7 -28 35 -42 62 -52 94 -60 109 -75 125 -8 9 -24 35 -36 57 -12 22
-35 60 -51 85 -16 25 -39 63 -51 85 -12 22 -25 42 -29 45 -4 3 -17 23 -29 45
-26 47 -104 164 -125 185 -8 8 -20 27 -27 43 -7 15 -15 27 -19 27 -3 0 -16 18
-29 40 -12 22 -26 40 -29 40 -4 0 -13 12 -20 28 -13 31 -52 87 -117 168 -14
18 -25 37 -25 42 0 6 -11 23 -25 38 -14 15 -25 30 -25 34 0 4 -23 36 -50 71
-58 73 -69 89 -110 144 -34 46 -58 78 -82 108 -10 12 -31 40 -48 62 -16 22
-37 51 -47 64 -10 13 -28 35 -40 48 -13 13 -23 28 -23 33 0 5 -11 21 -25 36
-14 15 -25 30 -25 33 0 3 -21 29 -45 56 -57 64 -61 68 -120 140 -55 67 -64 77
-97 117 -44 50 -63 73 -112 133 -28 32 -57 67 -66 76 -8 10 -33 38 -55 64 -74
85 -150 168 -210 231 -33 34 -87 93 -120 130 -112 127 -713 722 -854 844 -82
72 -96 84 -176 155 -37 33 -77 69 -90 80 -54 47 -149 131 -164 145 -14 13
-161 131 -316 254 -21 17 -47 39 -57 49 -10 9 -22 17 -27 17 -5 0 -11 3 -13 8
-1 4 -23 23 -48 42 -25 19 -47 37 -50 40 -3 3 -25 21 -50 40 -25 19 -47 37
-50 41 -3 3 -61 46 -130 95 -69 48 -136 98 -150 111 -14 13 -30 23 -37 23 -6
0 -13 4 -15 9 -1 4 -62 49 -135 100 -72 51 -137 99 -143 107 -7 8 -16 14 -21
14 -4 0 -78 47 -165 105 -86 58 -158 105 -160 105 -2 0 -70 44 -151 98 -141
93 -225 144 -513 312 -69 39 -147 85 -173 101 -27 16 -53 29 -58 29 -5 0 -9 5
-9 10 0 6 -4 10 -9 10 -5 0 -44 20 -87 43 -69 38 -322 170 -609 316 -49 25
-124 61 -165 80 -41 19 -120 55 -175 81 -205 98 -390 182 -439 201 -28 11 -60
24 -71 29 -67 31 -635 252 -705 274 -47 15 -92 30 -100 33 -8 4 -17 7 -20 7
-3 1 -9 4 -15 8 -5 3 -30 11 -55 18 -25 6 -58 18 -75 25 -80 36 -571 189 -845
264 -80 22 -165 47 -189 56 -24 8 -46 13 -49 10 -3 -3 -10 -1 -16 4 -6 5 -36
14 -66 21 -30 7 -127 29 -215 51 -88 21 -226 54 -307 73 -80 19 -164 37 -185
40 -21 2 -94 16 -162 30 -69 15 -141 28 -160 31 -20 2 -85 14 -146 26 -60 12
-121 23 -135 25 -14 1 -25 3 -25 4 0 2 -9 4 -20 5 -72 10 -121 18 -125 20 -3
2 -34 6 -70 10 -36 3 -72 8 -80 10 -14 4 -148 21 -235 31 -22 2 -67 8 -100 14
-145 23 -309 40 -525 55 -41 3 -88 7 -105 10 -16 2 -68 7 -115 11 -47 3 -105
8 -130 10 -25 3 -92 6 -150 9 -58 3 -157 8 -220 11 -111 6 -1237 13 -1242 8z
m-8433 -5710 c733 -55 1131 -129 1375 -257 251 -132 597 -407 968 -771 l132
-130 0 -2458 0 -2459 -131 113 c-147 126 -140 121 -384 308 -444 340 -737 508
-995 574 -128 32 -386 85 -445 91 -33 4 -141 17 -240 31 -220 29 -431 51 -587
60 l-118 7 0 2459 0 2460 118 -7 c64 -3 203 -13 307 -21z m5805 -2432 l0
-2457 -217 -17 c-288 -22 -677 -71 -888 -113 -307 -61 -306 -61 -487 -129 -67
-25 -259 -126 -289 -152 -8 -8 -19 -14 -23 -14 -19 0 -435 -295 -563 -400 -17
-14 -57 -45 -88 -70 -31 -25 -120 -98 -198 -163 l-142 -118 -3 2453 -3 2453
159 155 c464 455 835 728 1117 823 104 35 371 93 535 116 214 31 839 85 1033
90 l57 1 0 -2458z m-6473 2071 l63 -6 2 -2361 3 -2360 40 -7 c22 -4 144 -15
270 -24 127 -9 325 -31 440 -47 116 -16 244 -34 285 -40 121 -16 438 -96 535
-135 182 -73 515 -252 775 -418 36 -22 72 -45 82 -50 13 -8 95 -64 212 -145
68 -46 74 -56 106 -161 18 -57 48 -148 66 -202 19 -54 34 -102 34 -106 0 -5
-26 5 -57 22 -32 17 -94 49 -138 72 -44 24 -116 62 -160 85 -377 200 -895 454
-1035 507 -156 60 -442 152 -525 169 -16 3 -95 23 -175 44 -228 59 -796 191
-910 210 -55 10 -126 25 -257 55 l-23 5 0 2457 0 2456 153 -7 c83 -3 180 -9
214 -13z m7083 -2437 l0 -2454 -87 -20 c-49 -11 -117 -26 -153 -33 -166 -31
-706 -155 -960 -220 -399 -102 -619 -174 -825 -268 -230 -106 -641 -312 -971
-487 -150 -79 -274 -144 -277 -144 -9 0 41 175 109 375 15 45 84 100 287 231
256 165 662 394 790 445 26 10 71 28 100 40 81 32 366 106 461 118 33 5 171
24 306 44 135 19 344 42 465 51 121 9 241 19 268 22 l47 6 0 2363 0 2363 93 6
c50 3 108 8 127 9 19 2 77 5 128 5 l92 2 0 -2454z m-7802 2037 l122 -6 0
-2347 0 -2347 148 -6 c244 -11 795 -81 1045 -133 164 -34 387 -103 562 -174
44 -18 125 -51 180 -73 55 -22 140 -57 188 -78 48 -22 92 -39 97 -39 18 0 367
-173 455 -226 50 -29 110 -73 135 -97 42 -40 185 -211 204 -245 12 -21 -4 -16
-214 58 -96 34 -206 72 -245 85 -116 39 -399 138 -675 238 -69 25 -159 57
-200 72 -72 25 -108 39 -350 134 -143 56 -316 108 -414 126 -45 8 -137 25
-206 39 -129 25 -178 31 -485 66 -170 19 -499 50 -537 50 -17 0 -18 124 -18
2455 l0 2455 43 0 c24 0 99 -3 165 -7z m8352 -2447 l0 -2454 -77 -7 c-165 -14
-394 -36 -518 -50 -71 -9 -170 -20 -220 -26 -78 -9 -281 -44 -455 -80 -77 -16
-288 -82 -389 -123 -136 -54 -218 -86 -336 -128 -60 -22 -166 -60 -235 -85
-69 -25 -168 -60 -220 -78 -52 -19 -153 -55 -225 -80 -71 -26 -168 -59 -215
-75 -47 -15 -157 -54 -245 -85 -88 -31 -171 -59 -184 -62 -21 -5 -22 -4 -12
15 6 12 28 41 49 65 20 25 59 73 87 107 81 100 187 170 450 296 154 74 273
126 420 184 82 32 145 58 275 110 305 124 521 176 975 235 311 40 472 57 615
64 l135 6 3 2347 2 2347 78 4 c42 1 114 4 160 5 l82 2 0 -2454z m-1412 -4407
c189 -48 313 -172 369 -369 17 -62 18 -156 18 -2100 0 -1922 -1 -2039 -18
-2100 -67 -246 -211 -366 -482 -401 -294 -38 -554 61 -653 249 -78 150 -82
194 -82 967 l0 654 -547 3 c-485 4 -555 6 -608 21 -199 58 -308 160 -371 344
-37 106 -46 319 -19 439 36 165 121 287 245 353 125 67 171 73 620 81 223 5
467 9 542 9 l137 1 3 698 c4 680 5 699 26 775 54 194 164 311 348 371 117 38
333 40 472 5z m-5021 11 c245 -33 392 -147 460 -358 35 -104 44 -327 19 -447
-35 -172 -130 -305 -258 -365 -148 -69 -74 -65 -1213 -67 -566 -1 -1082 -4
-1145 -7 -267 -13 -448 -98 -493 -231 -31 -91 -17 -164 46 -232 77 -83 199
-125 414 -143 69 -5 320 -10 557 -10 237 0 483 -5 546 -10 602 -54 1031 -250
1285 -589 203 -269 296 -617 282 -1056 -14 -441 -129 -739 -381 -991 -232
-233 -548 -372 -992 -438 -215 -33 -418 -37 -1484 -34 -1054 3 -1055 3 -1133
25 -106 30 -171 67 -237 133 -104 105 -150 243 -150 450 0 206 43 338 145 448
42 45 77 72 129 97 131 63 132 63 1256 70 558 3 1066 11 1129 16 322 29 473
130 473 318 0 82 -21 130 -81 184 -45 41 -75 57 -146 82 -124 42 -180 46 -790
55 -693 10 -799 20 -1096 105 -595 172 -933 569 -1009 1188 -18 145 -7 523 18
648 113 541 417 876 954 1047 173 56 452 103 673 115 171 9 2151 6 2222 -3z
m1898 -15 c195 -54 315 -178 372 -385 17 -61 18 -177 18 -2070 0 -1915 -1
-2009 -18 -2085 -61 -262 -218 -393 -511 -426 -81 -9 -126 -9 -201 1 -265 33
-410 149 -481 385 -18 57 -19 160 -21 2060 -4 2217 -7 2103 61 2250 72 155
205 250 398 285 78 13 312 4 383 -15z m6714 10 c83 -20 209 -86 273 -144 28
-25 74 -80 100 -121 58 -88 1453 -2875 1652 -3299 149 -318 272 -600 306 -702
77 -227 -65 -526 -307 -647 -158 -78 8 -73 -2193 -70 l-1965 3 -73 27 c-232
84 -380 267 -412 508 -11 81 -10 89 15 168 48 152 198 489 477 1070 221 461
1429 2877 1471 2942 77 122 230 229 374 264 77 19 203 19 282 1z m11836 -10
c203 -51 322 -169 377 -374 29 -108 29 -323 -1 -434 -56 -210 -176 -332 -386
-394 -56 -16 -158 -18 -1385 -23 l-1325 -5 -3 -1247 -2 -1248 1322 -3 c1223
-2 1328 -4 1387 -20 159 -43 282 -137 339 -259 52 -111 66 -186 66 -353 -1
-130 -4 -161 -26 -232 -46 -151 -124 -249 -250 -311 -145 -71 -11 -66 -1838
-70 -1201 -2 -1670 0 -1739 8 -259 32 -409 149 -477 375 -18 57 -19 163 -21
2065 -4 2154 -5 2086 47 2222 46 122 156 232 279 279 132 49 71 48 1876 45
1579 -3 1695 -4 1760 -21z m-5850 0 c133 -21 256 -60 374 -116 185 -88 304
-171 459 -323 226 -220 369 -459 436 -726 42 -165 50 -252 43 -467 -12 -399
-84 -707 -229 -984 -149 -285 -343 -423 -658 -467 l-55 -7 406 -410 c479 -484
503 -515 539 -709 16 -86 8 -287 -15 -370 -66 -238 -236 -368 -516 -391 -215
-18 -407 51 -603 215 -48 39 -253 286 -729 873 -364 450 -688 850 -720 890
-189 233 -251 471 -191 736 46 203 183 338 394 386 60 14 150 19 460 25 316 6
396 11 445 25 166 47 236 129 237 278 0 156 -82 247 -269 295 -62 15 -141 17
-838 17 l-770 0 -5 -1645 c-5 -1534 -6 -1649 -23 -1705 -68 -232 -215 -351
-477 -385 -113 -15 -238 -7 -345 20 -198 51 -314 169 -372 380 -17 61 -18 178
-18 2085 0 1942 1 2023 19 2090 56 209 183 335 389 386 67 16 160 18 1307 18
1039 1 1249 -1 1325 -14z m5497 -1880 c239 -50 374 -188 425 -434 23 -114 14
-310 -21 -417 -60 -188 -178 -297 -376 -351 -60 -17 -130 -18 -840 -18 -703 0
-781 2 -843 17 -135 35 -257 119 -314 215 -56 97 -75 177 -81 340 -5 178 9
265 64 381 65 135 195 232 359 266 103 21 1528 23 1627 1z m440 -3786 c123
-26 227 -110 270 -218 18 -47 22 -76 22 -186 0 -112 -3 -138 -22 -186 -31 -78
-89 -164 -152 -226 -29 -29 -261 -297 -516 -595 l-463 -543 -3 -655 c-3 -647
-3 -656 -26 -721 -55 -165 -178 -246 -387 -256 -210 -11 -345 50 -415 188 -45
87 -50 146 -50 620 0 245 -3 535 -7 644 l-6 198 -442 526 c-243 289 -467 552
-497 583 -77 80 -123 152 -154 244 -24 72 -26 89 -21 189 3 78 11 126 26 166
41 107 130 181 256 214 77 20 227 19 316 -1 136 -31 168 -63 676 -671 162
-194 298 -353 303 -353 4 0 93 102 197 227 293 355 599 709 635 736 83 62 166
85 305 86 56 1 126 -4 155 -10z m-14650 -9 c110 -16 176 -46 239 -109 78 -79
100 -140 107 -295 10 -249 -63 -385 -244 -452 -46 -18 -104 -19 -889 -24
l-840 -6 -79 -23 c-131 -40 -197 -105 -198 -199 0 -111 81 -181 247 -213 35
-6 244 -14 505 -19 504 -9 586 -18 801 -89 191 -64 300 -128 421 -247 153
-150 238 -336 273 -594 33 -238 6 -494 -70 -682 -115 -282 -371 -480 -729
-563 -250 -58 -446 -67 -1311 -63 -677 4 -691 4 -755 26 -125 41 -193 103
-234 213 -23 60 -34 181 -25 276 17 178 98 286 248 334 64 20 94 21 881 29
880 9 881 9 994 64 65 32 101 72 116 128 33 119 -44 216 -205 259 -74 20 -115
22 -530 29 -464 8 -527 13 -716 58 -328 79 -571 260 -689 515 -70 149 -101
320 -101 541 0 191 16 301 65 443 142 415 526 638 1146 666 177 8 1513 5 1572
-3z m3574 -13 c202 -57 284 -194 272 -454 -10 -205 -83 -319 -247 -385 -55
-22 -66 -23 -463 -26 l-408 -3 -2 -1187 c-3 -1176 -3 -1188 -24 -1248 -41
-120 -112 -192 -232 -236 -81 -30 -290 -32 -376 -4 -115 38 -195 116 -233 229
-16 48 -18 143 -23 1247 l-5 1195 -410 6 c-273 3 -422 9 -445 17 -61 20 -143
76 -176 119 -46 61 -74 152 -81 263 -15 268 86 425 308 475 95 22 2467 14
2545 -8z m1234 13 c138 -22 245 -102 292 -219 l23 -56 6 -855 c6 -929 5 -927
65 -1115 72 -232 225 -381 444 -436 71 -18 288 -18 360 0 100 24 213 85 277
149 75 76 118 149 159 270 61 181 64 225 64 1063 0 448 4 790 10 844 23 199
115 308 296 351 83 19 242 14 321 -10 114 -36 194 -115 235 -233 l23 -68 0
-860 c0 -918 -2 -968 -51 -1213 -159 -799 -661 -1192 -1522 -1192 -675 0
-1129 247 -1367 745 -77 163 -128 339 -166 580 -22 136 -23 168 -26 1010 -4
901 -3 948 37 1039 26 61 93 132 154 163 94 48 231 64 366 43z m5220 -24 c592
-100 963 -350 1176 -793 125 -260 184 -568 184 -964 0 -423 -57 -721 -190
-994 -191 -394 -509 -635 -980 -744 -239 -56 -244 -56 -1215 -56 l-900 0 -56
23 c-113 45 -178 114 -217 227 -16 46 -17 161 -20 1508 -2 1271 0 1466 13
1522 27 120 77 191 167 240 101 55 82 54 1043 51 798 -2 901 -4 995 -20z"/>
<path d="M15890 15779 c-217 -445 -409 -841 -427 -879 l-32 -70 864 0 c476 0
865 4 865 8 0 22 -850 1747 -862 1749 -8 2 -153 -284 -408 -808z"/>
<path d="M22405 11988 c-3 -7 -4 -413 -3 -903 l3 -890 510 -3 c632 -3 705 4
893 94 271 130 402 396 402 814 0 331 -86 560 -267 711 -67 56 -212 125 -314
149 -135 32 -291 40 -772 40 -349 0 -449 -3 -452 -12z"/>
</g>
</svg>
