<?xml version="1.0" standalone="no"?>
<!DOCTYPE svg PUBLIC "-//W3C//DTD SVG 20010904//EN"
 "http://www.w3.org/TR/2001/REC-SVG-20010904/DTD/svg10.dtd">
<svg version="1.0" xmlns="http://www.w3.org/2000/svg"
 width="3264.000000pt" height="3264.000000pt" viewBox="0 0 3264.000000 3264.000000"
 preserveAspectRatio="xMidYMid meet">
<metadata>
Created by potrace 1.14, written by Peter Selinger 2001-2017
</metadata>
<g transform="translate(0.000000,3264.000000) scale(0.100000,-0.100000)"
fill="#000000" stroke="none">
<path d="M15697 31913 c-2 -2 -49 -5 -103 -8 -54 -2 -126 -6 -159 -9 -33 -3
-103 -8 -155 -10 -186 -10 -355 -22 -425 -31 -100 -12 -405 -46 -455 -50 -30
-3 -73 -7 -95 -10 -22 -2 -61 -6 -87 -9 -26 -2 -63 -10 -83 -16 -19 -6 -39 -9
-44 -5 -6 3 -36 -1 -67 -9 -32 -8 -60 -13 -64 -11 -4 2 -33 -2 -65 -10 -33 -7
-63 -11 -67 -9 -5 3 -33 -2 -63 -11 -31 -9 -60 -13 -65 -10 -5 3 -27 1 -49 -5
-21 -5 -56 -12 -77 -14 -60 -6 -162 -26 -241 -47 -39 -10 -83 -19 -96 -19 -14
0 -54 -9 -89 -20 -34 -11 -77 -20 -94 -20 -17 0 -53 -7 -80 -15 -27 -8 -69
-17 -94 -20 -25 -3 -70 -13 -100 -22 -30 -8 -71 -17 -90 -20 -19 -2 -85 -19
-147 -38 -61 -19 -122 -35 -136 -35 -13 0 -76 -15 -138 -34 -63 -19 -141 -39
-174 -45 -32 -6 -168 -47 -301 -91 -133 -44 -249 -80 -259 -80 -27 0 -480
-155 -600 -205 -60 -25 -197 -77 -303 -115 -106 -38 -241 -91 -300 -118 -59
-27 -139 -61 -179 -76 -40 -15 -82 -35 -95 -45 -13 -10 -75 -37 -138 -60 -63
-23 -122 -48 -130 -56 -8 -7 -40 -23 -70 -35 -30 -12 -73 -32 -95 -44 -22 -13
-65 -34 -95 -47 -30 -12 -66 -30 -80 -40 -14 -9 -54 -29 -89 -43 -36 -14 -72
-32 -80 -40 -9 -8 -47 -26 -86 -41 -38 -15 -76 -33 -84 -39 -8 -6 -38 -23 -67
-38 -30 -16 -79 -41 -110 -57 -31 -16 -59 -33 -63 -39 -3 -5 -31 -22 -61 -37
-94 -45 -157 -79 -174 -94 -9 -8 -38 -25 -64 -38 -26 -13 -68 -36 -93 -51 -26
-15 -69 -40 -95 -55 -83 -48 -122 -72 -141 -88 -10 -9 -32 -21 -50 -28 -17 -7
-39 -21 -49 -32 -9 -10 -23 -19 -29 -19 -7 0 -29 -13 -50 -30 -21 -16 -43 -30
-49 -30 -6 0 -24 -11 -40 -25 -16 -13 -38 -27 -50 -31 -11 -4 -34 -17 -49 -30
-16 -13 -34 -24 -40 -24 -7 0 -24 -10 -39 -23 -14 -12 -41 -31 -59 -42 -18
-11 -43 -27 -55 -35 -73 -52 -110 -77 -138 -95 -17 -11 -40 -27 -50 -37 -11
-10 -23 -18 -28 -18 -4 0 -17 -9 -27 -19 -10 -10 -30 -25 -44 -32 -45 -25
-172 -113 -180 -126 -4 -7 -14 -13 -22 -13 -7 0 -24 -9 -37 -20 -12 -11 -41
-33 -63 -50 -59 -44 -93 -73 -112 -92 -10 -10 -21 -18 -26 -18 -5 0 -21 -10
-36 -22 -15 -13 -40 -32 -56 -43 -16 -11 -38 -29 -50 -40 -12 -11 -41 -33 -66
-50 -24 -16 -51 -35 -59 -42 -8 -7 -35 -29 -60 -48 -25 -20 -55 -43 -67 -53
-34 -27 -114 -95 -141 -119 -14 -13 -28 -23 -31 -23 -4 0 -25 -17 -47 -37 -21
-21 -64 -58 -94 -82 -30 -25 -65 -54 -77 -65 -25 -24 -30 -28 -116 -98 -34
-28 -69 -59 -78 -67 -9 -9 -63 -59 -120 -111 -56 -52 -122 -113 -145 -135 -24
-22 -82 -76 -130 -120 -191 -175 -665 -661 -819 -838 -32 -38 -152 -174 -165
-187 -8 -9 -28 -32 -45 -52 -16 -19 -60 -68 -97 -109 -36 -41 -98 -114 -138
-164 -39 -49 -79 -99 -88 -110 -9 -11 -30 -38 -46 -60 -16 -22 -32 -42 -35
-45 -4 -3 -22 -25 -41 -50 -19 -25 -48 -61 -65 -81 -122 -145 -292 -376 -287
-391 1 -4 -2 -8 -7 -8 -4 0 -28 -28 -52 -62 -23 -35 -46 -65 -49 -68 -26 -21
-340 -483 -340 -500 0 -5 -4 -10 -8 -10 -4 0 -16 -15 -26 -32 -11 -18 -58 -91
-106 -163 -94 -140 -154 -239 -215 -350 -21 -38 -46 -81 -56 -95 -14 -22 -44
-73 -84 -145 -6 -11 -22 -38 -36 -60 -14 -22 -41 -67 -59 -100 -18 -33 -36
-64 -40 -70 -19 -25 -380 -735 -427 -840 -17 -38 -43 -97 -58 -130 -15 -33
-49 -106 -76 -163 -27 -56 -49 -104 -49 -106 0 -2 -17 -42 -39 -88 -21 -45
-42 -94 -46 -108 -4 -14 -11 -29 -15 -35 -4 -5 -24 -55 -44 -110 -21 -55 -46
-120 -57 -143 -11 -24 -29 -69 -40 -100 -12 -32 -27 -72 -35 -89 -35 -77 -110
-284 -185 -508 -28 -82 -54 -159 -59 -170 -25 -56 -144 -435 -185 -590 -15
-55 -33 -120 -41 -145 -8 -25 -24 -76 -35 -115 -30 -104 -206 -844 -229 -965
-85 -441 -127 -678 -140 -780 -6 -47 -16 -114 -21 -150 -5 -36 -12 -83 -14
-105 -7 -60 -25 -183 -35 -245 -5 -30 -12 -84 -15 -120 -3 -36 -9 -119 -15
-185 -5 -66 -12 -149 -15 -185 -3 -36 -7 -83 -10 -105 -5 -39 -11 -122 -20
-255 -3 -36 -7 -126 -10 -200 -2 -74 -8 -202 -12 -285 -7 -152 -6 -725 1
-1020 4 -150 7 -198 21 -385 5 -72 16 -274 17 -315 0 -11 7 -78 14 -150 21
-196 23 -215 29 -280 4 -33 8 -78 11 -100 2 -22 6 -58 8 -80 3 -22 12 -98 21
-170 9 -71 18 -148 20 -169 2 -22 7 -46 11 -55 3 -9 10 -47 16 -86 28 -204 45
-313 57 -352 5 -17 7 -34 4 -36 -6 -7 31 -205 68 -362 5 -22 14 -65 20 -95 6
-30 19 -88 30 -127 10 -40 19 -83 19 -95 0 -28 32 -167 72 -313 16 -60 36
-138 43 -172 8 -35 30 -112 49 -173 20 -60 36 -123 36 -138 0 -16 24 -101 54
-190 30 -88 66 -205 81 -259 85 -309 165 -544 261 -770 23 -55 75 -190 114
-299 39 -109 81 -216 94 -238 13 -23 41 -86 61 -141 20 -55 47 -118 60 -140
12 -22 35 -74 49 -115 28 -77 139 -313 161 -340 6 -8 21 -41 33 -73 12 -33 31
-70 42 -84 11 -14 20 -30 20 -36 0 -10 97 -217 125 -267 8 -14 28 -52 46 -85
17 -33 35 -62 39 -65 4 -3 19 -30 33 -60 15 -30 45 -86 66 -125 22 -38 51 -94
65 -122 13 -29 29 -53 33 -53 5 0 15 -17 22 -37 7 -21 26 -58 42 -82 16 -25
29 -50 29 -56 0 -7 14 -29 30 -50 17 -21 30 -43 30 -50 0 -7 7 -18 16 -26 8
-7 25 -30 36 -52 11 -22 24 -45 30 -51 11 -13 47 -73 83 -138 14 -27 29 -48
34 -48 5 0 15 -16 21 -36 7 -19 18 -38 26 -41 7 -2 18 -20 24 -39 7 -19 17
-40 25 -47 7 -7 22 -32 34 -55 12 -23 25 -42 29 -42 5 0 16 -16 25 -35 9 -19
21 -35 26 -35 5 0 14 -12 20 -27 6 -16 27 -48 46 -73 19 -25 43 -60 52 -77 9
-18 20 -33 25 -33 4 0 15 -15 24 -33 9 -17 20 -34 24 -37 4 -3 15 -18 24 -35
9 -16 32 -50 51 -75 19 -25 41 -60 49 -78 8 -17 19 -32 24 -32 5 0 14 -11 20
-25 6 -13 18 -32 27 -42 14 -15 81 -103 129 -168 8 -11 38 -48 65 -82 28 -34
51 -65 51 -69 0 -4 7 -14 15 -23 9 -9 29 -34 45 -56 16 -22 38 -51 50 -65 11
-14 59 -74 107 -135 47 -60 94 -117 102 -126 9 -9 27 -31 41 -48 14 -18 34
-42 46 -54 11 -12 40 -47 64 -77 25 -30 54 -64 65 -76 11 -12 36 -41 55 -64
53 -66 80 -97 142 -164 31 -33 82 -88 112 -121 30 -33 74 -81 98 -106 23 -26
86 -93 138 -149 174 -189 637 -640 801 -781 30 -26 67 -59 82 -73 15 -14 30
-26 32 -26 1 0 18 -15 37 -33 19 -17 65 -59 102 -92 38 -33 77 -67 86 -75 9
-8 41 -35 70 -60 29 -25 57 -50 64 -55 6 -6 31 -26 56 -45 25 -19 47 -37 50
-40 3 -3 50 -41 105 -85 55 -43 102 -82 105 -85 3 -3 41 -34 85 -68 44 -35 89
-71 100 -81 11 -10 54 -42 95 -71 41 -30 77 -57 80 -60 6 -7 274 -200 298
-215 9 -5 34 -25 56 -43 22 -17 46 -32 53 -32 7 0 13 -4 13 -8 0 -8 116 -88
372 -255 65 -42 120 -77 123 -77 3 0 15 -8 26 -18 10 -11 32 -25 47 -32 15 -8
47 -28 72 -45 48 -33 165 -105 240 -147 25 -14 74 -43 110 -63 36 -21 85 -49
110 -62 24 -14 56 -33 70 -42 14 -10 50 -31 80 -47 30 -16 57 -31 60 -34 10
-11 97 -59 265 -145 94 -48 212 -109 262 -136 145 -77 348 -177 401 -198 51
-20 133 -58 277 -126 112 -54 192 -89 275 -122 36 -14 89 -36 118 -49 29 -13
56 -24 60 -24 3 0 58 -21 122 -46 127 -51 133 -53 205 -84 28 -12 73 -30 100
-40 506 -179 738 -258 895 -305 85 -25 176 -53 202 -61 26 -8 55 -14 65 -14
10 0 29 -6 43 -13 14 -7 72 -26 130 -41 58 -16 137 -39 175 -51 39 -13 95 -28
125 -34 30 -6 66 -14 80 -17 14 -3 35 -7 47 -10 12 -2 34 -9 49 -14 14 -6 29
-8 34 -5 5 3 11 1 14 -4 5 -7 47 -17 111 -26 6 -1 17 -4 25 -7 8 -3 42 -11 75
-18 33 -7 80 -18 105 -25 55 -15 278 -57 780 -145 101 -17 329 -50 460 -65 25
-3 56 -8 69 -11 13 -3 46 -7 75 -10 28 -2 76 -9 106 -14 49 -8 188 -22 355
-36 33 -2 159 -13 280 -24 210 -18 279 -22 690 -37 294 -11 1027 -4 1265 12
47 3 119 7 160 10 41 2 111 6 155 9 44 3 118 8 165 11 47 3 234 22 415 41 182
19 348 36 370 38 22 3 72 9 110 15 39 5 99 15 135 20 36 5 79 14 95 19 17 5
36 7 43 4 8 -2 32 0 55 6 23 6 83 16 132 22 50 7 113 18 142 26 28 8 64 14 80
14 17 0 56 9 88 20 32 11 71 20 88 20 27 0 79 11 267 57 36 8 90 19 120 23 30
5 75 15 99 24 24 9 58 16 77 16 18 0 86 16 151 36 65 19 143 40 172 46 30 5
104 25 164 44 60 19 119 34 131 34 13 0 99 24 192 54 93 30 198 62 233 71 162
41 704 228 886 306 50 21 153 61 230 89 77 28 155 60 174 71 19 11 80 37 135
58 56 21 125 50 154 65 30 15 99 45 155 67 56 21 117 50 136 63 20 13 59 31
87 40 28 9 66 28 84 41 19 14 40 25 46 25 7 0 53 20 101 45 48 24 113 56 143
70 30 14 66 32 80 39 14 8 79 40 145 72 66 32 122 61 125 65 3 4 30 19 60 34
80 38 160 82 177 97 9 7 39 25 67 39 143 74 175 92 226 124 30 19 71 43 90 55
19 11 55 34 80 50 25 16 66 41 93 55 26 14 47 29 47 34 0 5 15 14 34 21 18 6
42 20 51 30 10 11 22 20 27 20 8 0 88 51 138 88 14 10 40 24 58 31 17 8 32 17
32 22 0 5 16 15 35 23 19 8 35 19 35 24 0 4 15 16 33 25 17 9 52 33 77 52 25
19 60 41 78 49 17 8 32 19 32 25 0 5 9 12 19 16 17 5 50 28 116 80 11 9 29 21
41 28 30 17 87 54 99 64 6 4 23 16 38 26 16 10 36 25 45 33 59 51 76 64 82 64
4 0 16 8 28 17 32 28 77 63 177 138 11 9 49 38 85 65 90 68 100 76 145 110 22
16 47 36 55 43 8 7 48 40 88 72 39 33 72 63 72 67 0 4 5 8 11 8 7 0 22 10 34
22 12 13 42 39 66 58 23 19 56 46 71 60 16 14 40 34 55 45 14 11 35 29 47 40
12 12 55 48 96 82 41 33 112 96 158 139 45 44 119 113 164 154 215 196 288
268 637 626 173 177 299 312 341 366 11 15 38 45 58 65 20 21 64 69 97 107 33
38 86 98 119 132 32 35 81 92 108 126 28 35 57 72 66 83 10 11 32 40 51 63 19
24 42 53 52 65 10 12 48 60 85 107 36 47 69 87 73 90 4 3 20 23 36 45 16 22
34 45 40 50 6 6 44 57 85 115 41 58 89 123 107 146 18 23 33 46 33 53 0 6 5
11 10 11 6 0 10 5 10 10 0 6 11 23 25 38 14 15 25 32 25 39 0 6 4 13 9 15 12
4 164 222 298 427 303 461 346 529 439 696 15 28 47 83 71 123 24 41 43 76 43
79 0 2 13 24 30 47 16 24 41 65 56 92 78 141 127 235 204 389 47 94 88 172 91
175 10 7 165 320 174 350 8 24 38 91 125 275 92 195 97 207 242 570 43 110 86
214 94 232 7 17 14 34 14 38 0 3 8 25 19 48 10 23 40 103 66 177 26 74 58 164
70 200 51 140 138 398 156 465 10 39 30 104 43 145 14 41 36 120 51 175 15 55
44 156 65 225 21 69 48 166 59 215 12 50 55 232 96 406 41 173 77 333 79 355
2 21 16 100 30 174 70 356 79 407 82 430 1 14 9 68 17 120 9 52 20 133 27 180
6 47 16 117 21 155 14 92 16 105 34 250 9 69 28 243 30 275 2 19 6 64 9 100 3
36 9 94 11 130 9 115 14 174 20 230 7 64 11 153 19 375 4 88 9 225 12 305 8
230 2 950 -11 1125 -10 153 -16 244 -20 320 -9 166 -25 372 -39 490 -24 194
-47 402 -51 450 -6 87 -25 213 -41 269 -7 27 -11 53 -8 58 3 5 1 32 -5 61 -19
99 -34 182 -37 207 -1 14 -7 54 -14 90 -6 36 -15 88 -20 115 -5 28 -14 77 -20
110 -7 33 -17 83 -22 110 -5 28 -18 83 -29 122 -10 40 -19 85 -19 101 0 16 -9
54 -19 84 -10 30 -19 71 -19 89 0 19 -7 60 -16 91 -9 31 -19 76 -22 99 -3 24
-20 91 -39 149 -18 58 -36 125 -39 149 -4 24 -22 91 -41 151 -19 59 -35 119
-35 134 0 15 -36 136 -79 269 -44 133 -96 300 -116 371 -48 174 -96 312 -167
486 -33 80 -84 213 -113 295 -79 222 -104 287 -119 305 -7 8 -32 67 -56 130
-23 63 -53 133 -65 155 -13 22 -40 85 -60 140 -20 55 -47 118 -60 140 -12 22
-35 69 -50 105 -14 36 -33 70 -40 76 -8 6 -25 41 -39 78 -14 37 -35 79 -46 93
-11 14 -20 32 -20 39 0 7 -20 53 -45 101 -24 48 -56 113 -70 143 -15 30 -41
82 -60 115 -31 55 -51 92 -123 232 -15 28 -34 60 -43 70 -9 10 -22 34 -29 53
-7 19 -21 44 -30 55 -10 11 -27 40 -39 65 -44 89 -76 147 -98 175 -13 15 -23
33 -23 40 0 7 -7 19 -16 26 -9 8 -25 32 -34 54 -9 22 -25 46 -34 54 -9 7 -16
19 -16 26 0 8 -10 26 -23 42 -12 15 -29 42 -37 58 -8 17 -21 38 -29 48 -22 27
-58 86 -80 135 -11 23 -24 42 -29 42 -5 0 -15 14 -23 31 -7 18 -22 43 -33 58
-22 28 -36 49 -64 95 -9 16 -25 36 -34 45 -10 8 -18 20 -18 26 0 5 -12 24 -26
40 -14 17 -30 39 -35 50 -5 11 -25 40 -44 65 -19 25 -42 60 -51 78 -9 17 -19
32 -23 32 -4 0 -15 15 -26 33 -10 17 -23 37 -28 42 -4 6 -17 24 -27 40 -11 17
-25 39 -32 50 -11 17 -86 113 -121 155 -6 8 -27 37 -47 66 -19 28 -50 69 -67
90 -18 22 -46 57 -62 79 -17 22 -37 49 -45 60 -9 11 -29 38 -45 60 -74 99
-120 157 -139 177 -21 21 -34 37 -99 115 -29 35 -58 70 -65 78 -7 8 -22 26
-33 41 -11 14 -29 36 -40 48 -11 11 -42 48 -70 81 -27 32 -56 67 -65 76 -8 9
-31 36 -50 59 -36 44 -107 123 -215 237 -33 35 -87 93 -120 130 -144 160 -743
750 -891 876 -68 59 -136 119 -228 202 -13 11 -51 45 -86 75 -35 30 -70 62
-79 70 -9 9 -50 43 -91 75 -41 33 -84 67 -95 77 -11 9 -60 48 -110 87 -49 40
-97 77 -105 84 -8 7 -35 28 -60 47 -25 19 -47 37 -50 40 -3 3 -25 21 -50 40
-25 19 -47 37 -50 41 -3 3 -54 41 -115 84 -60 43 -111 82 -113 87 -2 4 -8 8
-13 8 -6 0 -22 11 -37 25 -15 14 -32 25 -39 25 -6 0 -13 3 -15 8 -1 4 -57 46
-123 92 -66 47 -131 95 -145 107 -14 13 -28 23 -33 23 -4 0 -13 5 -20 10 -7 6
-82 56 -167 112 -85 55 -220 143 -300 196 -80 52 -158 103 -175 112 -16 10
-76 45 -133 79 -57 33 -106 61 -109 61 -3 0 -17 9 -32 19 -14 11 -47 30 -71
44 -25 13 -72 40 -105 59 -33 19 -71 41 -85 49 -14 8 -27 16 -30 19 -5 5 -8 7
-115 65 -65 35 -240 125 -555 287 -69 35 -159 79 -200 97 -41 19 -120 56 -175
82 -255 120 -306 143 -395 181 -52 22 -108 46 -125 53 -16 7 -61 25 -100 40
-38 15 -169 66 -290 115 -179 71 -401 152 -425 155 -3 0 -9 3 -15 7 -5 3 -30
11 -55 18 -25 6 -58 18 -75 25 -70 31 -432 147 -655 210 -184 52 -308 88 -359
105 -35 11 -66 18 -69 15 -3 -3 -10 -1 -16 4 -6 5 -36 14 -66 21 -30 7 -127
29 -215 51 -88 21 -226 54 -307 73 -80 19 -164 37 -185 40 -21 2 -94 16 -162
30 -69 15 -143 29 -165 31 -22 3 -97 17 -166 31 -69 14 -136 27 -150 29 -14 2
-70 10 -125 19 -55 8 -138 20 -185 26 -47 6 -114 15 -150 20 -303 43 -468 61
-684 75 -43 3 -88 7 -100 10 -11 2 -61 7 -111 11 -49 3 -110 8 -135 10 -25 2
-99 6 -165 9 -66 3 -163 8 -215 11 -104 7 -1228 13 -1233 7z m-8546 -5728
c123 -8 296 -22 384 -30 88 -9 205 -20 261 -25 203 -18 542 -85 694 -136 202
-69 423 -210 725 -463 130 -110 200 -174 383 -354 l162 -160 0 -2450 c0 -2332
-1 -2449 -17 -2435 -10 8 -47 39 -83 69 -356 303 -809 631 -1045 758 -170 91
-419 169 -690 215 -254 43 -654 90 -870 101 -60 3 -127 8 -147 11 l-38 6 0
2454 0 2454 28 0 c16 0 129 -7 253 -15z m5939 -2439 l0 -2454 -32 -5 c-18 -3
-87 -9 -153 -12 -355 -18 -836 -86 -1144 -162 -239 -58 -400 -133 -665 -307
-131 -86 -464 -331 -560 -411 -22 -19 -106 -90 -186 -156 l-145 -121 -3 2447
-2 2448 47 51 c129 137 405 389 599 546 254 205 446 322 630 385 112 37 441
106 600 125 290 33 785 74 957 79 l57 1 0 -2454z m-6452 2067 l52 -6 0 -2362
0 -2363 53 -5 c28 -4 126 -11 217 -17 505 -34 1065 -133 1315 -231 241 -96
777 -404 1052 -606 l72 -53 65 -202 c36 -111 63 -204 61 -206 -2 -2 -86 40
-187 93 -101 54 -219 117 -264 141 -316 167 -793 396 -984 471 -253 100 -793
238 -1645 421 l-180 38 -3 2454 -2 2453 162 -7 c90 -4 187 -9 216 -13z m7060
-2435 l-3 -2452 -180 -38 c-637 -137 -1081 -244 -1360 -329 -72 -21 -134 -39
-138 -39 -23 0 -289 -111 -467 -195 -219 -103 -678 -336 -952 -483 -93 -49
-168 -88 -168 -85 0 2 20 66 44 141 25 75 52 166 62 201 17 61 20 66 90 117
270 200 817 515 1061 613 248 99 792 194 1313 231 85 5 181 13 213 16 l57 6 0
2363 0 2363 83 6 c45 3 98 8 117 9 19 2 79 5 133 5 l97 2 -2 -2452z m-7785
2035 l107 -6 0 -2342 c0 -2127 1 -2343 16 -2349 9 -3 51 -6 95 -6 86 0 298
-20 534 -51 83 -10 193 -24 245 -30 244 -27 600 -118 816 -207 27 -12 123 -50
214 -86 444 -175 717 -308 867 -421 34 -26 130 -137 228 -263 19 -26 19 -26 0
-18 -11 4 -180 63 -375 131 -195 68 -413 145 -485 170 -71 26 -173 62 -225 80
-175 62 -314 113 -460 170 -273 106 -401 146 -615 190 -115 23 -250 48 -300
54 -293 37 -430 52 -600 66 -104 9 -209 19 -232 21 l-43 5 0 2450 0 2449 53 0
c30 0 102 -3 160 -7z m8347 -2442 l0 -2450 -42 -5 c-24 -2 -128 -12 -233 -21
-169 -14 -299 -28 -595 -65 -132 -17 -475 -89 -580 -122 -52 -17 -201 -70
-330 -119 -287 -109 -355 -134 -540 -199 -80 -28 -192 -68 -250 -89 -230 -83
-773 -271 -776 -268 -1 1 29 40 68 87 38 47 82 102 97 122 64 84 258 200 551
330 236 104 263 115 385 163 66 25 154 60 195 77 184 75 333 120 533 162 117
24 239 47 272 51 33 3 109 13 169 21 238 31 467 55 586 60 69 3 135 7 148 10
l22 4 0 2345 0 2344 73 4 c39 1 111 4 160 5 l87 2 0 -2449z m-4590 -4422 c156
-25 302 -123 368 -248 68 -126 74 -175 79 -576 2 -198 0 -1111 -5 -2030 -8
-1522 -10 -1675 -26 -1730 -54 -192 -176 -313 -376 -371 -88 -26 -332 -26
-433 -1 -155 39 -271 126 -332 251 -70 141 -66 -3 -63 2249 l3 2032 26 77 c15
43 41 100 58 127 122 189 380 270 701 220z m3175 -4 c195 -54 315 -178 372
-385 17 -61 18 -177 18 -2080 0 -1913 -1 -2019 -18 -2093 -49 -207 -171 -338
-367 -393 -88 -25 -308 -30 -415 -10 -178 34 -304 122 -370 261 -59 125 -58
110 -64 885 l-6 715 -560 5 c-553 5 -561 6 -630 29 -188 63 -298 182 -352 381
-24 90 -24 320 0 410 56 209 173 325 386 382 69 18 123 21 606 29 292 5 536
11 543 14 9 3 12 146 12 668 0 708 3 769 50 888 67 169 218 278 435 313 62 10
300 -3 360 -19z m3596 0 c74 -18 171 -65 234 -113 107 -81 117 -101 893 -1652
727 -1452 938 -1887 1094 -2247 91 -214 128 -318 128 -367 0 -67 -30 -182 -70
-262 -70 -143 -173 -235 -332 -297 l-83 -32 -2010 0 -2010 0 -86 33 c-234 91
-386 305 -390 547 -1 58 5 87 36 170 82 218 273 634 603 1312 276 565 1267
2546 1315 2627 138 233 410 346 678 281z m11474 12 c233 -3 301 -7 348 -20
198 -57 311 -174 364 -377 26 -98 23 -329 -5 -433 -60 -221 -190 -341 -427
-395 -61 -14 -231 -16 -1370 -21 l-1300 -6 0 -1245 0 -1245 1320 -5 c1210 -5
1325 -7 1384 -23 209 -57 332 -179 388 -387 13 -48 18 -104 18 -215 0 -111 -5
-167 -18 -215 -53 -200 -170 -318 -372 -377 -56 -17 -170 -18 -1760 -21 -1888
-3 -1780 -6 -1923 64 -133 65 -220 181 -256 341 -14 65 -16 274 -16 2073 0
2217 -4 2081 65 2226 78 163 241 264 455 282 81 7 2493 6 3105 -1z m-20027
-12 c169 -34 298 -127 365 -265 47 -94 67 -199 67 -346 0 -323 -123 -516 -376
-591 -54 -16 -154 -18 -1199 -23 -1106 -6 -1143 -7 -1231 -27 -154 -35 -261
-100 -305 -185 -72 -140 4 -293 176 -357 129 -48 194 -53 810 -61 454 -6 607
-11 705 -24 433 -58 780 -204 1011 -423 283 -269 419 -643 419 -1147 -1 -349
-79 -640 -239 -881 -63 -96 -218 -249 -322 -318 -220 -146 -504 -244 -854
-293 -107 -16 -250 -18 -1284 -21 -1032 -3 -1173 -2 -1248 12 -224 42 -373
184 -418 400 -19 93 -19 276 1 373 43 208 173 346 376 398 55 14 194 17 1108
25 607 5 1097 13 1169 19 306 27 461 135 461 320 0 149 -87 236 -290 290 -82
22 -105 23 -670 30 -609 8 -739 16 -970 65 -707 148 -1099 546 -1185 1202 -17
133 -20 430 -4 553 87 703 511 1116 1279 1246 80 13 192 28 250 33 58 4 604 9
1213 10 960 1 1118 -1 1185 -14z m14417 5 c368 -35 672 -186 958 -477 168
-170 314 -398 380 -593 59 -172 71 -265 71 -515 -1 -392 -61 -695 -193 -972
-118 -246 -247 -385 -436 -469 -71 -31 -205 -64 -262 -64 -26 0 -43 -5 -43
-12 0 -6 182 -195 405 -419 259 -261 419 -430 445 -470 58 -90 91 -201 97
-329 15 -289 -86 -501 -282 -594 -105 -50 -162 -61 -325 -61 -127 0 -154 3
-215 24 -144 49 -284 140 -396 257 -31 33 -281 338 -555 679 -451 562 -670
832 -792 978 -188 225 -263 442 -233 672 21 164 71 276 159 356 67 61 129 94
230 121 69 18 120 21 467 28 417 8 452 12 551 63 61 31 116 92 132 146 7 21
12 69 12 107 0 120 -52 198 -167 251 -112 52 -130 53 -950 53 l-763 0 -3
-1647 c-2 -1554 -4 -1651 -21 -1707 -59 -195 -174 -309 -366 -362 -93 -26
-367 -26 -460 0 -197 55 -317 177 -368 373 -16 63 -17 203 -17 2093 0 1912 1
2029 18 2090 65 237 210 363 462 399 88 13 2326 13 2460 1z m5600 -1895 c277
-58 426 -266 426 -595 0 -347 -152 -553 -447 -605 -131 -23 -1494 -22 -1614 1
-264 50 -405 224 -426 528 -7 100 7 241 33 321 59 186 193 307 389 349 102 22
1535 23 1639 1z m368 -3765 c109 -18 212 -80 262 -160 44 -70 59 -137 59 -260
0 -103 -3 -122 -28 -185 -37 -91 -72 -141 -171 -245 -44 -47 -276 -314 -515
-593 l-435 -508 -6 -652 c-6 -710 -5 -697 -65 -807 -57 -104 -159 -162 -318
-181 -208 -24 -367 37 -439 169 -61 112 -60 106 -65 819 l-3 651 -426 509
c-234 279 -458 542 -497 583 -167 173 -220 312 -195 512 29 242 200 364 484
345 143 -10 230 -47 314 -136 72 -76 263 -299 510 -596 129 -154 241 -288 251
-298 17 -18 25 -9 216 220 200 241 510 603 581 679 93 101 192 140 358 143 39
0 96 -3 128 -9z m-11013 -22 c78 -14 172 -62 210 -105 72 -82 107 -213 97
-367 -13 -198 -94 -318 -255 -380 -54 -20 -79 -21 -462 -26 l-405 -5 0 -1175
c0 -1264 2 -1204 -49 -1312 -90 -189 -406 -266 -639 -154 -62 30 -84 48 -125
105 -71 98 -66 15 -72 1341 l-5 1195 -415 5 -415 5 -65 31 c-83 39 -129 79
-163 142 -39 72 -57 154 -57 262 0 204 60 330 189 399 117 62 77 60 1386 55
749 -4 1210 -9 1245 -16z m1312 -8 c118 -38 190 -109 230 -228 l23 -67 2 -818
c2 -876 4 -931 55 -1096 49 -161 156 -310 273 -380 99 -60 199 -84 355 -84
111 -1 149 3 214 21 249 71 392 260 453 596 14 77 17 219 22 936 l6 845 24 58
c60 150 178 230 359 244 202 15 374 -63 446 -204 45 -88 46 -113 46 -976 0
-666 -3 -845 -15 -965 -89 -851 -486 -1314 -1219 -1423 -166 -24 -464 -29
-616 -10 -721 93 -1120 495 -1249 1261 -36 213 -43 407 -39 1220 l3 775 23 64
c51 142 150 223 303 250 77 14 227 4 301 -19z m-4767 -2 c112 -38 184 -108
226 -217 28 -71 38 -264 19 -349 -36 -161 -116 -245 -275 -287 -51 -13 -167
-15 -840 -15 -454 0 -805 -4 -839 -10 -98 -16 -162 -38 -207 -73 -58 -43 -80
-84 -81 -146 0 -96 61 -155 200 -193 70 -19 119 -21 527 -28 455 -8 523 -13
700 -54 547 -127 834 -498 835 -1080 0 -326 -98 -598 -282 -775 -170 -163
-342 -240 -677 -303 -112 -21 -143 -22 -967 -25 -748 -4 -859 -2 -919 12 -222
51 -319 215 -293 496 18 194 115 312 288 349 38 8 279 13 790 16 404 3 780 10
835 15 131 14 214 42 270 91 101 89 80 234 -44 301 -100 55 -139 59 -631 67
-447 8 -528 14 -685 50 -168 38 -344 114 -455 197 -221 164 -349 423 -368 746
-32 527 135 884 504 1072 163 83 374 139 599 158 22 2 418 3 880 3 768 -1 844
-3 890 -18z m9755 7 c290 -29 493 -82 702 -185 140 -69 240 -141 353 -255 245
-246 379 -559 431 -1013 21 -174 14 -592 -11 -752 -113 -726 -475 -1142 -1130
-1301 -243 -58 -286 -61 -1157 -66 -862 -5 -961 -1 -1054 41 -105 48 -177 142
-203 264 -16 76 -16 2900 0 2974 35 160 133 258 293 293 92 20 1574 20 1776 0z"/>
<path d="M15857 15706 c-235 -482 -427 -880 -427 -886 0 -7 273 -10 860 -10
681 0 860 3 860 13 0 18 -847 1751 -858 1755 -5 1 -201 -391 -435 -872z"/>
<path d="M22365 11979 c-3 -8 -4 -412 -3 -899 l3 -885 520 -3 c429 -2 537 0
619 13 393 61 609 293 657 708 15 127 7 355 -16 462 -69 329 -275 523 -626
591 -117 22 -1146 34 -1154 13z"/>
</g>
</svg>
