<?xml version="1.0" standalone="no"?>
<!DOCTYPE svg PUBLIC "-//W3C//DTD SVG 20010904//EN"
 "http://www.w3.org/TR/2001/REC-SVG-20010904/DTD/svg10.dtd">
<svg version="1.0" xmlns="http://www.w3.org/2000/svg"
 width="3264.000000pt" height="3264.000000pt" viewBox="0 0 3264.000000 3264.000000"
 preserveAspectRatio="xMidYMid meet">
<metadata>
Created by potrace 1.14, written by Peter Selinger 2001-2017
</metadata>
<g transform="translate(0.000000,3264.000000) scale(0.100000,-0.100000)"
fill="#000000" stroke="none">
<path d="M3955 32340 c-115 -10 -262 -29 -320 -40 -218 -42 -274 -55 -460
-105 -251 -69 -646 -237 -890 -380 -550 -322 -1003 -749 -1346 -1271 -396
-600 -615 -1266 -659 -2001 -7 -116 -10 -4123 -10 -12235 0 -12878 -2 -12261
45 -12578 76 -510 232 -971 476 -1403 259 -458 606 -863 1019 -1188 554 -436
1243 -731 1915 -819 44 -6 107 -16 140 -23 81 -16 24595 -23 24780 -7 203 18
402 47 525 76 293 70 407 104 616 186 1181 461 2074 1446 2417 2663 71 250
113 494 137 790 17 207 9 24608 -8 24750 -108 898 -467 1681 -1063 2321 -360
386 -834 725 -1289 924 -446 194 -846 297 -1325 340 -118 11 -24580 10 -24700
0z m13215 -2469 c107 -6 242 -15 300 -21 58 -6 179 -17 270 -25 91 -9 231 -24
313 -35 81 -11 216 -29 300 -40 83 -11 188 -27 232 -35 530 -96 531 -96 915
-186 243 -57 790 -209 970 -269 174 -59 438 -149 525 -180 108 -39 615 -240
688 -274 29 -13 115 -53 192 -89 77 -36 187 -87 245 -114 93 -43 524 -262 655
-333 47 -26 110 -62 310 -180 44 -25 125 -73 180 -105 103 -59 146 -87 495
-317 370 -244 955 -684 1214 -911 32 -29 82 -72 111 -97 283 -241 731 -672
958 -920 83 -91 177 -192 208 -225 79 -84 195 -218 264 -305 17 -20 75 -91
130 -156 96 -114 129 -156 345 -439 140 -183 133 -174 494 -705 29 -41 57 -86
64 -100 6 -14 37 -63 67 -110 30 -47 83 -131 118 -188 34 -56 76 -126 94 -155
17 -28 41 -70 53 -92 11 -22 33 -62 49 -90 56 -98 91 -161 115 -205 13 -25 37
-70 54 -100 113 -205 373 -751 453 -953 22 -55 48 -115 59 -135 88 -161 500
-1329 649 -1837 27 -93 61 -218 76 -277 14 -59 35 -133 45 -164 11 -32 20 -64
20 -73 0 -9 11 -56 24 -106 13 -49 29 -117 36 -150 6 -33 21 -100 32 -150 11
-49 24 -110 28 -135 5 -25 18 -88 30 -140 12 -52 26 -122 31 -155 13 -79 28
-167 39 -235 6 -30 15 -89 20 -130 6 -41 18 -118 27 -170 17 -101 17 -104 27
-220 4 -41 9 -86 11 -100 4 -24 9 -63 20 -190 3 -30 10 -89 15 -130 11 -94 18
-186 25 -320 3 -58 10 -175 15 -260 19 -299 17 -991 -5 -1385 -16 -273 -62
-751 -95 -965 -5 -36 -17 -119 -25 -185 -31 -235 -130 -760 -195 -1035 -92
-390 -100 -423 -186 -720 -144 -498 -440 -1315 -599 -1655 -21 -44 -76 -163
-122 -265 -79 -174 -358 -721 -421 -827 -16 -26 -55 -93 -87 -148 -250 -429
-448 -736 -732 -1135 -179 -252 -564 -746 -683 -876 -30 -33 -71 -78 -90 -100
-102 -115 -303 -335 -345 -379 -226 -236 -472 -478 -650 -639 -16 -15 -59 -55
-95 -90 -36 -34 -96 -89 -135 -121 -38 -33 -72 -62 -75 -65 -3 -3 -30 -25 -60
-50 -30 -25 -59 -50 -65 -56 -5 -6 -35 -30 -65 -55 -30 -24 -57 -46 -60 -50
-8 -9 -290 -231 -355 -280 -73 -54 -59 -43 -182 -139 -56 -43 -159 -118 -230
-166 -70 -48 -150 -103 -178 -123 -78 -55 -317 -213 -364 -241 -23 -14 -83
-52 -134 -85 -50 -33 -104 -66 -119 -75 -56 -32 -105 -62 -148 -90 -25 -16
-63 -39 -85 -50 -22 -11 -65 -34 -95 -51 -30 -18 -73 -41 -95 -52 -22 -11 -51
-27 -65 -37 -14 -9 -65 -39 -115 -65 -132 -70 -187 -97 -650 -321 -49 -23
-115 -53 -145 -64 -30 -12 -60 -26 -65 -30 -6 -5 -65 -31 -130 -58 -244 -101
-313 -130 -353 -151 -101 -51 -1507 -533 -1692 -580 -182 -45 -219 -55 -335
-87 -134 -36 -311 -80 -365 -89 -19 -4 -57 -13 -85 -20 -27 -7 -84 -20 -125
-29 -41 -8 -118 -25 -170 -36 -213 -46 -319 -66 -400 -75 -30 -4 -93 -13 -140
-22 -47 -8 -110 -18 -140 -23 -95 -16 -371 -49 -460 -55 -47 -4 -141 -13 -210
-20 -125 -14 -187 -19 -375 -30 -55 -3 -162 -10 -237 -15 -150 -11 -939 -15
-1108 -6 -58 3 -168 8 -245 11 -77 3 -158 8 -180 10 -51 6 -357 33 -450 41
-38 3 -133 14 -210 24 -77 11 -194 26 -260 35 -216 27 -616 94 -875 146 -104
21 -645 151 -725 174 -576 167 -1017 315 -1463 492 -317 126 -842 361 -1052
473 -63 33 -173 90 -244 126 -126 64 -307 165 -376 209 -19 12 -107 64 -195
115 -88 51 -251 151 -362 224 -112 72 -234 151 -273 176 -285 184 -1007 741
-1240 956 -25 23 -63 57 -86 76 -158 131 -645 597 -828 793 -303 325 -360 387
-385 419 -23 30 -97 119 -155 186 -117 137 -190 226 -282 346 -203 263 -299
389 -333 439 -19 28 -52 75 -73 105 -22 30 -68 98 -103 150 -36 52 -87 127
-114 165 -27 39 -66 97 -86 130 -20 33 -49 80 -65 105 -16 25 -40 62 -52 84
-13 21 -27 46 -33 55 -5 9 -21 34 -34 56 -26 44 -58 95 -95 153 -62 95 -357
646 -483 902 -143 290 -181 371 -259 563 -24 59 -49 118 -56 130 -85 158 -543
1446 -649 1827 -23 80 -52 180 -65 223 -13 43 -24 87 -24 97 0 11 -13 62 -30
113 -16 52 -30 100 -30 108 0 8 -13 64 -29 124 -16 61 -36 144 -45 185 -8 41
-25 118 -36 170 -60 281 -77 365 -105 550 -24 158 -32 208 -55 338 -19 104
-89 775 -95 902 -5 113 -10 187 -21 305 -2 22 -5 261 -8 530 -7 733 24 1241
119 1920 8 61 22 160 30 221 8 61 23 155 34 210 11 54 34 173 51 264 17 91 33
179 36 195 53 281 290 1159 387 1435 24 69 68 195 97 280 83 245 289 757 417
1038 251 552 610 1216 878 1627 54 83 132 202 173 265 370 564 987 1328 1482
1834 283 290 337 343 615 596 39 35 72 67 75 70 3 4 57 51 120 105 63 54 126
107 140 119 118 101 362 298 464 376 69 52 179 136 243 185 65 50 159 117 208
151 179 120 321 218 355 244 19 15 49 35 65 44 17 10 48 28 70 41 22 13 56 34
75 45 19 11 55 34 80 50 25 16 61 39 80 50 19 11 55 34 80 50 50 32 167 101
238 141 447 248 691 377 822 433 19 8 46 21 60 29 41 24 191 94 250 117 30 12
64 27 76 35 12 7 62 29 111 48 50 19 109 45 132 57 268 136 1727 639 2133 735
54 13 112 28 130 34 80 25 378 97 593 141 55 12 127 27 160 35 33 7 98 21 145
30 47 9 105 20 130 25 25 5 72 12 105 15 33 4 98 13 145 21 47 9 114 20 149
25 35 5 73 11 85 14 42 10 753 84 851 89 124 7 267 16 405 25 154 11 1074 5
1300 -8z"/>
<path d="M15916 29593 c-1 -1 -42 -3 -91 -4 -50 0 -139 -5 -200 -9 -98 -8
-356 -22 -395 -23 -14 0 -748 -84 -800 -91 -57 -9 -188 -29 -230 -36 -25 -4
-83 -13 -130 -19 -116 -16 -191 -29 -285 -51 -76 -17 -140 -31 -315 -67 -159
-32 -259 -56 -357 -84 -55 -16 -110 -29 -121 -29 -11 0 -64 -13 -118 -29 -55
-15 -126 -34 -159 -41 -33 -7 -123 -34 -200 -60 -77 -26 -192 -62 -255 -80
-151 -43 -368 -117 -538 -184 -75 -30 -202 -78 -282 -106 -80 -29 -171 -65
-202 -81 -31 -16 -87 -40 -124 -54 -36 -14 -87 -36 -113 -50 -25 -13 -81 -38
-125 -55 -43 -17 -95 -39 -115 -50 -20 -10 -117 -57 -216 -105 -99 -47 -191
-93 -205 -101 -14 -8 -34 -18 -45 -21 -31 -10 -249 -126 -325 -173 -8 -5 -55
-31 -103 -57 -48 -26 -109 -60 -135 -75 -26 -15 -65 -36 -87 -48 -22 -11 -60
-33 -85 -49 -25 -16 -79 -50 -120 -75 -41 -25 -82 -51 -90 -56 -14 -10 -66
-41 -215 -131 -67 -41 -185 -119 -195 -129 -5 -5 -66 -47 -240 -164 -141 -95
-143 -97 -285 -206 -68 -52 -133 -102 -145 -110 -13 -8 -32 -23 -44 -32 -11
-10 -80 -64 -152 -120 -110 -87 -229 -184 -304 -248 -10 -8 -55 -46 -101 -85
-131 -111 -179 -153 -259 -229 -42 -39 -125 -116 -185 -171 -124 -114 -217
-206 -460 -455 -194 -200 -210 -217 -400 -435 -77 -88 -148 -169 -159 -180
-108 -117 -573 -723 -779 -1015 -130 -185 -407 -616 -502 -780 -43 -74 -115
-198 -160 -275 -90 -153 -342 -642 -425 -825 -29 -63 -70 -153 -92 -200 -74
-156 -129 -284 -185 -425 -30 -77 -77 -196 -105 -265 -28 -69 -101 -272 -164
-452 -108 -311 -151 -445 -214 -673 -16 -55 -40 -140 -55 -190 -14 -49 -44
-166 -66 -260 -22 -93 -51 -217 -65 -275 -14 -58 -32 -132 -40 -165 -8 -33
-23 -109 -34 -170 -11 -60 -26 -144 -34 -185 -41 -211 -66 -361 -86 -510 -12
-91 -30 -223 -40 -295 -11 -71 -24 -197 -30 -280 -6 -82 -13 -168 -16 -190 -4
-40 -20 -228 -29 -340 -24 -328 -24 -1157 0 -1520 8 -110 16 -243 19 -295 5
-106 81 -797 96 -875 5 -27 14 -78 20 -112 5 -35 14 -90 20 -123 6 -33 14 -86
20 -117 5 -32 12 -80 15 -108 6 -56 39 -214 61 -291 8 -28 14 -61 14 -73 0
-12 6 -47 14 -79 8 -31 24 -102 36 -157 11 -55 30 -134 42 -175 12 -41 29
-111 39 -155 10 -44 27 -106 38 -138 11 -32 25 -85 31 -118 6 -33 36 -135 66
-227 30 -92 63 -201 74 -242 30 -118 124 -393 180 -530 28 -69 76 -195 107
-280 30 -85 68 -180 84 -210 15 -30 44 -98 64 -150 20 -51 40 -99 45 -105 5
-6 25 -52 44 -101 33 -86 91 -212 122 -264 8 -14 22 -40 30 -57 32 -73 44 -99
53 -113 6 -8 30 -60 56 -115 25 -55 53 -113 62 -130 9 -16 28 -50 41 -75 13
-25 37 -67 53 -95 16 -27 40 -72 55 -100 14 -27 41 -77 60 -110 19 -33 44 -78
55 -100 12 -22 33 -61 48 -86 14 -25 36 -64 48 -87 13 -22 27 -44 33 -47 6 -4
17 -21 25 -38 8 -18 28 -52 45 -77 16 -25 39 -61 50 -80 11 -19 26 -44 32 -55
7 -11 22 -36 34 -55 27 -45 81 -131 94 -150 6 -8 26 -37 46 -65 30 -45 146
-215 244 -359 40 -59 109 -153 128 -176 11 -12 63 -81 217 -285 51 -68 180
-232 190 -240 6 -5 28 -32 50 -60 21 -27 43 -54 49 -60 6 -5 31 -35 56 -65 25
-30 50 -59 55 -65 6 -5 29 -32 50 -60 21 -27 46 -57 54 -66 9 -9 54 -58 101
-110 47 -51 100 -108 119 -128 18 -20 77 -83 130 -140 199 -214 554 -556 805
-776 38 -33 75 -66 83 -74 8 -7 33 -29 56 -48 23 -19 62 -54 87 -77 62 -57
546 -443 651 -519 340 -245 480 -344 594 -417 72 -46 186 -120 255 -165 69
-45 175 -110 235 -145 61 -35 189 -109 285 -165 96 -56 227 -129 290 -162 335
-175 476 -247 580 -293 180 -81 198 -90 310 -142 174 -82 717 -295 1010 -395
358 -123 366 -126 495 -163 61 -17 121 -35 135 -40 103 -34 433 -124 560 -154
85 -20 220 -51 300 -70 80 -19 172 -39 205 -45 79 -14 319 -56 425 -76 180
-33 787 -112 990 -129 36 -3 144 -12 240 -20 96 -8 252 -18 345 -21 94 -4 208
-9 255 -11 198 -10 873 -3 1040 11 36 2 117 7 180 10 120 6 210 12 321 21 105
8 749 83 809 94 30 5 89 14 130 20 41 5 100 14 130 20 187 33 241 43 290 55
30 7 93 21 140 30 47 9 118 25 157 35 40 11 82 20 94 20 31 0 258 56 529 130
58 16 128 34 155 40 28 6 113 31 190 55 77 24 210 65 295 91 279 84 676 233
1085 407 305 129 345 146 381 165 22 11 104 52 184 90 228 110 489 241 555
278 33 19 74 41 92 49 17 8 47 25 66 38 19 13 68 40 108 61 41 20 94 50 119
66 25 16 74 46 110 66 36 21 76 45 90 54 33 23 166 108 210 135 131 81 321
206 338 222 7 7 17 13 21 13 4 0 16 8 27 18 16 14 136 98 218 152 12 8 36 24
54 35 17 12 83 61 147 110 101 78 272 209 343 263 12 9 28 22 35 27 6 6 39 33
73 60 33 28 127 106 209 175 81 69 166 140 188 158 22 18 77 67 122 110 45 42
129 120 186 172 109 100 354 343 574 571 135 139 179 187 280 303 33 38 71 81
84 95 12 14 51 57 85 95 33 38 66 74 71 80 6 6 45 54 85 106 98 125 102 130
121 149 8 9 26 32 39 51 14 19 33 44 43 55 38 40 94 115 318 427 161 224 471
687 543 811 10 17 55 95 100 172 187 319 237 406 298 525 36 69 101 195 146
280 44 85 112 227 152 314 40 88 92 203 117 255 67 142 302 733 362 911 29 85
56 164 61 175 33 73 146 433 207 660 3 11 23 77 43 146 21 69 45 159 54 200 8
41 40 178 70 304 30 127 60 257 65 290 6 33 27 143 46 245 61 316 77 419 125
790 11 85 22 161 25 170 2 8 9 78 15 155 6 77 13 169 15 205 3 36 10 108 15
160 22 230 33 579 32 1000 -1 336 -9 630 -17 680 -2 14 -7 75 -10 135 -14 270
-72 825 -106 1020 -6 33 -12 74 -14 90 -3 32 -19 136 -35 225 -14 81 -29 172
-39 238 -5 31 -13 75 -19 97 -6 22 -18 76 -27 120 -9 44 -25 118 -35 165 -10
47 -26 121 -35 165 -9 44 -25 114 -37 155 -11 41 -33 126 -49 189 -16 63 -35
135 -43 160 -8 25 -17 64 -21 86 -4 22 -37 135 -75 250 -37 116 -85 269 -106
340 -21 72 -67 204 -102 295 -36 91 -93 244 -128 340 -35 96 -77 202 -94 235
-16 33 -45 98 -64 145 -90 224 -123 299 -210 475 -169 344 -257 519 -292 580
-18 33 -45 83 -59 110 -15 28 -38 71 -53 97 -15 26 -53 93 -85 150 -80 142
-98 172 -108 178 -4 3 -12 17 -18 30 -6 14 -38 68 -71 120 -33 52 -63 102 -67
110 -4 8 -14 26 -23 40 -9 14 -28 43 -42 65 -26 42 -51 79 -204 307 -81 121
-111 164 -142 203 -4 6 -21 30 -37 55 -31 47 -74 104 -237 318 -54 70 -104
136 -112 147 -39 51 -140 181 -146 185 -3 3 -44 50 -89 105 -81 97 -166 196
-186 219 -6 6 -30 36 -55 66 -42 51 -126 143 -195 215 -16 17 -59 62 -94 100
-248 267 -620 629 -857 833 -21 19 -91 80 -154 136 -106 94 -226 193 -291 241
-15 11 -103 81 -196 156 -92 74 -193 153 -224 175 -31 21 -148 105 -260 186
-112 80 -280 195 -374 256 -93 60 -204 132 -245 159 -41 28 -196 121 -345 208
-148 86 -274 161 -280 165 -5 4 -147 78 -315 165 -397 204 -803 393 -1115 517
-137 54 -263 105 -280 112 -143 65 -956 329 -1160 378 -22 5 -60 16 -85 24
-91 32 -672 167 -900 210 -386 73 -506 93 -705 119 -104 14 -219 30 -255 35
-91 13 -234 29 -380 40 -69 6 -179 15 -245 20 -287 24 -551 34 -958 34 -208 1
-380 0 -381 -1z m-7346 -4888 c668 -45 1041 -112 1240 -222 224 -123 499 -344
813 -652 l117 -116 0 -2077 c0 -1186 -4 -2078 -9 -2078 -5 0 -14 7 -21 15 -22
26 -362 299 -500 401 -463 342 -651 421 -1194 499 -217 31 -541 65 -617 65
-31 0 -71 3 -88 6 l-31 7 0 2083 0 2084 38 0 c20 0 134 -7 252 -15z m5000
-2069 l0 -2085 -42 -5 c-24 -3 -86 -7 -138 -10 -350 -20 -860 -101 -1078 -172
-235 -76 -603 -318 -1042 -683 l-145 -121 -3 2080 -2 2080 73 73 c309 308 626
565 842 682 145 79 330 128 655 174 203 28 641 65 818 70 l62 1 0 -2084z
m-5498 1757 l48 -6 2 -2011 3 -2011 35 -2 c396 -28 820 -83 1056 -137 183 -42
326 -98 524 -204 260 -141 637 -378 683 -430 8 -9 31 -71 51 -137 21 -66 44
-137 52 -159 8 -21 13 -41 10 -43 -2 -3 -69 30 -148 73 -212 115 -764 392
-913 459 -71 32 -197 80 -280 107 -238 78 -768 208 -1295 319 -52 11 -105 24
-117 29 l-23 10 0 2081 0 2082 133 -7 c72 -4 153 -9 179 -13z m6018 -2067 c0
-1977 -1 -2085 -17 -2089 -10 -3 -63 -15 -118 -26 -730 -154 -1214 -279 -1453
-375 -185 -75 -586 -273 -1041 -514 -74 -40 -136 -70 -138 -68 -2 2 20 79 49
170 l53 167 109 76 c149 105 479 302 661 395 269 137 419 176 940 247 156 21
472 51 541 51 22 0 45 5 52 12 9 9 12 470 12 2014 l0 2002 63 6 c109 11 140
13 215 14 l72 2 0 -2084z m-6632 1728 l92 -7 0 -1986 c0 -1092 4 -1991 8
-1997 4 -6 58 -14 127 -17 114 -6 347 -30 590 -62 166 -22 405 -70 518 -105
128 -40 555 -209 763 -303 181 -82 388 -203 421 -247 6 -9 41 -53 77 -98 36
-45 62 -82 57 -82 -26 0 -990 339 -1291 455 -262 100 -329 121 -484 155 -217
48 -610 99 -968 126 l-78 6 0 2084 0 2084 38 0 c22 0 80 -3 130 -6z m7112
-2079 c0 -1147 -3 -2085 -7 -2085 -49 -1 -327 -25 -466 -40 -237 -27 -352 -44
-535 -81 -179 -35 -226 -50 -512 -159 -118 -45 -429 -158 -690 -250 -532 -187
-610 -214 -615 -208 -8 8 154 199 191 226 159 113 404 227 934 433 278 108
480 150 1050 215 74 8 189 18 255 22 l120 7 5 1995 5 1995 65 6 c36 3 95 6
133 7 l67 2 0 -2085z m-1136 -3795 c121 -51 198 -142 244 -291 15 -49 17 -198
20 -1694 1 -965 -1 -1685 -7 -1750 -15 -181 -61 -285 -165 -369 -74 -61 -168
-89 -319 -94 -146 -5 -222 6 -313 48 -109 49 -174 124 -217 253 -21 60 -22 85
-27 677 l-5 615 -480 5 c-462 5 -482 6 -546 27 -150 51 -247 158 -284 315 -17
74 -20 249 -4 334 24 131 117 255 227 304 106 48 144 51 618 59 247 4 456 11
462 15 9 5 12 146 12 574 1 618 4 669 56 777 47 100 139 176 257 214 55 18
199 27 305 19 68 -6 112 -16 166 -38z m-4237 14 c88 -30 144 -66 196 -123 82
-93 117 -203 117 -376 0 -188 -47 -326 -140 -407 -58 -52 -104 -75 -197 -99
-73 -18 -119 -19 -989 -19 -594 0 -939 -4 -989 -11 -162 -22 -271 -73 -322
-150 -24 -37 -28 -52 -28 -115 0 -64 3 -77 30 -116 22 -30 50 -53 95 -76 120
-60 153 -63 720 -72 283 -5 529 -11 545 -14 17 -3 68 -10 115 -16 381 -50 721
-219 903 -449 120 -152 188 -304 234 -518 24 -115 27 -149 27 -338 1 -181 -2
-226 -22 -323 -118 -583 -506 -885 -1252 -973 -90 -11 -327 -14 -1075 -14
l-960 0 -79 23 c-226 65 -326 215 -326 487 0 270 99 426 309 488 63 19 113 20
981 28 503 4 956 13 1005 18 108 13 221 48 269 85 149 113 135 302 -29 393
-114 62 -136 65 -710 73 -286 5 -531 11 -545 14 -14 3 -77 13 -140 21 -203 28
-417 94 -560 172 -207 114 -347 256 -444 450 -93 186 -126 333 -133 603 -10
356 46 600 187 818 208 322 611 517 1140 551 69 5 548 8 1065 7 931 -1 941 -1
1002 -22z m1537 -3 c173 -61 258 -167 292 -361 15 -86 16 -247 11 -1765 -6
-1825 -3 -1745 -63 -1856 -59 -108 -154 -176 -296 -214 -93 -25 -294 -17 -388
15 -161 55 -249 158 -285 335 -14 72 -15 251 -13 1785 3 1611 5 1708 22 1765
52 173 176 282 359 315 88 16 293 5 361 -19z m5756 -7 c115 -49 185 -106 246
-201 41 -63 1128 -2229 1316 -2623 259 -541 368 -803 368 -883 0 -61 -28 -164
-63 -231 -61 -115 -149 -188 -295 -245 l-67 -26 -1685 0 c-1612 0 -1687 1
-1740 18 -199 67 -318 191 -366 380 -25 94 -15 171 39 302 120 293 355 785
825 1730 651 1308 777 1556 822 1615 50 66 125 124 210 160 80 34 114 39 225
36 82 -3 112 -9 165 -32z m4890 27 c337 -21 608 -154 871 -428 207 -216 325
-459 360 -737 14 -119 6 -362 -17 -511 -87 -557 -311 -874 -659 -935 -113 -19
-117 -20 -113 -30 2 -4 158 -167 348 -360 190 -194 357 -370 372 -392 134
-197 108 -562 -51 -711 -94 -88 -208 -127 -377 -127 -155 0 -285 47 -423 155
-77 59 -116 102 -287 315 -81 102 -203 253 -269 335 -67 83 -235 292 -375 465
-139 173 -273 337 -297 364 -111 124 -196 294 -212 425 -12 94 3 223 36 312
51 141 190 244 353 264 30 3 199 10 375 15 240 6 332 12 366 23 136 45 189
113 189 245 0 159 -105 242 -330 263 -155 14 -1254 11 -1268 -3 -9 -9 -12
-332 -12 -1393 0 -1349 0 -1384 -20 -1460 -43 -168 -160 -276 -338 -314 -75
-16 -265 -14 -340 4 -175 41 -286 152 -327 327 -22 96 -22 3451 0 3547 49 206
194 322 425 341 131 10 1854 11 2020 1z m5127 -17 c215 -74 305 -219 305 -489
0 -272 -92 -424 -305 -503 l-72 -27 -1135 -5 -1135 -5 -3 -1067 -2 -1067 1122
-3 c1030 -4 1128 -5 1182 -21 190 -56 298 -175 332 -365 18 -101 17 -180 -1
-286 -19 -109 -58 -187 -122 -248 -54 -50 -86 -68 -172 -102 l-56 -21 -1465
-3 c-1031 -2 -1481 1 -1518 9 -127 26 -242 111 -296 218 -58 114 -56 26 -56
1876 0 1834 -2 1764 53 1885 38 86 96 144 190 190 48 24 107 44 142 49 33 5
710 8 1505 7 1444 -1 1445 -1 1507 -22z m-325 -1595 c228 -49 351 -208 365
-474 15 -297 -120 -492 -375 -541 -109 -21 -1267 -20 -1375 0 -203 39 -315
156 -354 368 -25 138 -5 310 49 425 48 102 159 187 284 217 77 19 1321 23
1406 5z m389 -3228 c138 -53 200 -156 200 -335 0 -64 -6 -98 -26 -153 -28 -74
-49 -103 -216 -290 -53 -60 -241 -277 -418 -483 l-321 -374 -1 -416 c0 -228
-4 -488 -8 -577 -8 -155 -10 -166 -40 -228 -56 -113 -144 -161 -312 -172 -183
-12 -291 43 -356 182 l-28 60 -5 577 c-5 569 -5 577 -26 600 -12 13 -173 205
-359 428 -186 223 -373 442 -416 488 -54 57 -90 106 -116 159 -38 76 -38 78
-38 197 0 135 13 179 75 250 99 112 341 141 508 60 59 -29 143 -121 525 -578
120 -144 221 -262 226 -264 4 -1 93 100 196 225 104 126 192 230 195 233 3 3
57 66 121 140 204 238 224 255 344 286 73 20 226 12 296 -15z m-9391 -14 c136
-45 200 -153 200 -342 0 -163 -50 -269 -156 -331 -73 -43 -167 -53 -496 -54
l-298 0 0 -977 c0 -1042 -1 -1057 -49 -1151 -27 -53 -92 -107 -160 -133 -45
-18 -79 -22 -166 -23 -150 -1 -210 17 -280 87 -97 98 -90 6 -93 1175 l-2 1022
-298 0 c-406 1 -465 10 -556 91 -107 93 -134 337 -55 497 45 93 113 138 249
166 14 2 491 2 1060 -1 1020 -5 1036 -5 1100 -26z m1076 2 c73 -27 135 -85
165 -152 l24 -52 6 -745 c4 -483 10 -762 17 -792 41 -175 88 -285 157 -365 89
-105 246 -166 420 -166 343 0 539 211 574 620 6 66 11 400 11 754 0 607 1 640
20 701 34 111 110 183 225 213 170 44 360 -10 435 -123 61 -92 60 -76 60 -869
0 -439 -4 -762 -11 -821 -52 -483 -226 -823 -519 -1017 -218 -143 -529 -215
-870 -202 -343 14 -574 84 -780 237 -201 150 -337 372 -415 678 -57 226 -58
245 -62 1057 -5 783 -3 827 38 907 59 116 185 172 361 163 54 -3 108 -13 144
-26z m-4089 7 c131 -35 203 -123 225 -276 14 -96 0 -228 -32 -289 -27 -55 -84
-109 -139 -135 -45 -21 -59 -21 -771 -27 -654 -5 -731 -7 -785 -23 -77 -23
-109 -40 -145 -78 -52 -54 -53 -148 -3 -200 74 -78 131 -88 598 -98 277 -6
416 -13 480 -24 266 -46 442 -131 582 -280 156 -165 223 -364 223 -656 0 -193
-31 -345 -98 -476 -120 -235 -384 -389 -756 -441 -104 -15 -219 -17 -811 -18
-752 0 -774 1 -860 56 -100 64 -139 160 -133 333 3 95 7 119 30 166 52 106
119 154 239 170 41 5 328 10 639 10 603 0 747 7 850 39 87 27 140 79 147 144
7 63 -2 91 -43 137 -27 30 -53 45 -103 61 -61 20 -96 23 -446 30 -412 8 -493
16 -660 59 -345 90 -540 275 -627 591 -21 76 -23 105 -22 304 0 211 1 224 28
310 30 99 96 231 148 296 138 173 406 290 738 322 19 2 355 4 745 5 578 1 720
-1 762 -12z m8358 -1 c251 -25 502 -105 669 -213 283 -183 447 -443 533 -847
26 -126 27 -140 28 -440 0 -303 -1 -313 -29 -450 -63 -307 -168 -524 -338
-695 -157 -159 -355 -263 -623 -329 -176 -43 -253 -46 -1035 -46 -862 0 -823
-4 -914 88 -34 35 -58 70 -71 107 -20 54 -20 80 -20 1320 0 1231 1 1266 20
1318 35 96 104 158 207 186 77 21 1369 22 1573 1z"/>
<path d="M16163 16283 c-69 -142 -154 -316 -188 -388 -35 -71 -142 -292 -239
-490 -97 -198 -176 -363 -176 -367 0 -5 333 -8 740 -8 407 0 740 2 740 4 0 4
-262 544 -490 1011 -72 149 -156 321 -187 383 -30 61 -59 112 -64 112 -6 0
-67 -116 -136 -257z"/>
<path d="M21470 11859 l0 -770 478 4 c536 4 561 7 708 76 120 57 209 145 268
264 56 114 77 211 83 387 8 222 -34 416 -117 534 -69 99 -187 187 -304 225
-136 45 -213 51 -677 51 l-439 0 0 -771z"/>
</g>
</svg>
