
<svg version="1.1" id="Layer_1" xmlns="http://www.w3.org/2000/svg" xmlns:xlink="http://www.w3.org/1999/xlink" x="0px" y="0px"
	 width="100%" viewBox="0 0 3264 3264" enable-background="new 0 0 3264 3264" xml:space="preserve">

<path fill="#FAFBFC" opacity="1.000000" stroke="none" 
	d="
M2514.508057,299.496307 
	C2548.824951,322.966064 2582.365967,346.257202 2613.964844,372.210449 
	C2634.371826,388.971191 2655.289307,405.145508 2675.133789,422.545532 
	C2696.990234,441.709503 2718.394775,461.455627 2739.056641,481.897858 
	C2763.277100,505.860992 2786.733398,530.614868 2810.024170,555.491272 
	C2821.187988,567.415222 2831.171143,580.441345 2841.758301,592.909546 
	C2847.483643,599.652588 2853.593994,606.081238 2859.103516,612.992493 
	C2867.275635,623.243408 2875.093018,633.778503 2883.017578,644.225830 
	C2893.051270,657.453857 2903.325195,670.512024 2912.982666,684.010315 
	C2926.838623,703.376404 2940.596191,722.833130 2953.705078,742.706848 
	C2964.101562,758.468018 2973.615234,774.822205 2983.227051,791.086426 
	C2989.876221,802.337036 2995.268311,814.400330 3002.613037,825.150085 
	C3009.857666,835.754211 3015.342285,847.133362 3021.110596,858.456360 
	C3023.323242,862.799500 3026.302979,866.758850 3028.429932,871.137512 
	C3036.442871,887.635742 3044.096436,904.309387 3052.199707,920.762146 
	C3055.909424,928.294189 3060.350830,935.465881 3064.461182,942.800415 
	C3064.947510,943.668579 3065.547607,944.490601 3065.911377,945.406982 
	C3070.897217,957.965515 3075.711670,970.594360 3080.875732,983.078552 
	C3083.126953,988.520874 3086.228516,993.605286 3088.666748,998.978088 
	C3090.714600,1003.490051 3092.383789,1008.175415 3094.179443,1012.800049 
	C3114.474609,1065.071411 3133.879883,1117.690430 3150.503906,1171.231079 
	C3156.458496,1190.408569 3164.187988,1209.277222 3167.797852,1228.900757 
	C3170.349121,1242.770264 3177.166748,1255.443359 3177.657227,1269.688599 
	C3177.733643,1271.900635 3179.226807,1274.035156 3179.874023,1276.260864 
	C3183.533447,1288.845093 3187.386719,1301.329224 3188.126953,1314.620972 
	C3188.487793,1321.095337 3190.607666,1327.495239 3192.159424,1333.873413 
	C3194.101074,1341.854004 3196.402832,1349.747681 3198.311768,1357.735474 
	C3199.761475,1363.803589 3201.014648,1369.931152 3202.048584,1376.083740 
	C3204.170410,1388.708984 3206.289062,1401.340698 3208.038086,1414.020996 
	C3210.405273,1431.183960 3212.508545,1448.384766 3214.570557,1465.588013 
	C3216.864502,1484.727295 3219.466064,1503.847778 3221.042480,1523.049683 
	C3222.558838,1541.516479 3222.934570,1560.076782 3223.814697,1578.595825 
	C3224.399658,1590.896362 3225.420898,1603.194214 3225.485840,1615.497437 
	C3225.604980,1638.077271 3225.448486,1660.667236 3224.876953,1683.239624 
	C3224.244873,1708.193970 3223.271240,1733.146606 3221.949219,1758.073608 
	C3221.234131,1771.552490 3219.512451,1784.979614 3218.188477,1798.424438 
	C3216.831299,1812.207397 3215.856934,1826.047729 3213.914795,1839.749512 
	C3209.845215,1868.456665 3205.614014,1897.151123 3200.750488,1925.731934 
	C3197.151367,1946.881348 3193.062012,1967.989136 3188.090820,1988.853149 
	C3180.980957,2018.690552 3172.832031,2048.279541 3165.190918,2077.991211 
	C3156.544189,2111.614014 3145.110107,2144.348877 3133.232422,2176.912109 
	C3124.270264,2201.481934 3114.963867,2225.958984 3104.794678,2250.048096 
	C3087.018066,2292.158936 3067.974854,2333.650146 3046.326172,2374.020508 
	C3031.468018,2401.727783 3015.751221,2428.899902 2999.886719,2455.986084 
	C2987.841064,2476.551758 2974.539062,2496.415527 2961.129639,2516.138672 
	C2948.804199,2534.266846 2935.088623,2551.454102 2922.870605,2569.650146 
	C2897.652588,2607.206787 2868.753418,2641.838867 2838.590820,2675.346191 
	C2811.969238,2704.919678 2784.067139,2733.365967 2756.143799,2761.732178 
	C2739.566650,2778.572266 2722.197754,2794.680664 2704.550537,2810.405762 
	C2688.461426,2824.741699 2671.799805,2838.476074 2654.882324,2851.832520 
	C2629.637695,2871.763428 2604.412109,2891.776367 2578.313721,2910.552734 
	C2552.406006,2929.190918 2526.463135,2947.858398 2498.751709,2963.905762 
	C2482.700928,2973.200195 2467.338623,2983.678711 2451.593994,2993.508545 
	C2446.875488,2996.454346 2441.969238,2999.114746 2437.052246,3001.724121 
	C2423.159912,3009.096924 2408.957520,3015.926758 2395.361572,3023.806641 
	C2379.113037,3033.224609 2361.660889,3040.071045 2345.104248,3048.660156 
	C2337.133545,3052.795166 2327.061279,3053.604980 2321.121338,3061.601074 
	C2320.792969,3062.043457 2319.900879,3062.052979 2319.285400,3062.299072 
	C2304.852783,3068.070068 2290.337402,3073.645508 2276.014648,3079.677734 
	C2261.792725,3085.667480 2247.841309,3092.299072 2233.624756,3098.302490 
	C2224.151367,3102.302979 2214.509766,3105.950684 2204.791260,3109.317627 
	C2163.684814,3123.557373 2122.533203,3137.667725 2081.372559,3151.750244 
	C2065.188477,3157.287109 2048.212158,3159.873291 2031.849121,3165.040283 
	C2023.535400,3167.665527 2014.830200,3170.029297 2006.259766,3172.350830 
	C1995.761963,3175.194824 1985.409058,3179.241455 1974.720337,3180.566895 
	C1955.599121,3182.938232 1937.426392,3189.040283 1918.698853,3192.813232 
	C1898.612915,3196.859863 1878.433472,3200.465088 1858.240356,3203.947021 
	C1846.034424,3206.051514 1833.758911,3207.853271 1821.453979,3209.259277 
	C1802.994873,3211.368652 1784.498901,3213.201904 1765.988403,3214.802490 
	C1745.029175,3216.614258 1724.038086,3218.061768 1703.058105,3219.628906 
	C1670.227783,3222.081787 1637.324219,3222.425293 1604.438721,3222.190186 
	C1579.197144,3222.009766 1553.915649,3221.315674 1528.739380,3219.581787 
	C1494.158325,3217.199951 1459.567017,3214.401855 1425.153564,3210.320801 
	C1394.166382,3206.645996 1363.341919,3201.411621 1332.578247,3196.098145 
	C1307.500366,3191.766846 1282.424683,3187.102539 1257.699707,3181.130615 
	C1228.548340,3174.089600 1199.604614,3166.048584 1170.887573,3157.390869 
	C1143.452026,3149.119141 1116.181030,3140.158936 1089.277832,3130.300781 
	C1057.016846,3118.479004 1024.884766,3106.171143 993.323669,3092.614258 
	C963.872498,3079.963623 934.942627,3065.992676 906.344238,3051.496582 
	C882.444092,3039.382080 859.116699,3026.075684 835.971008,3012.552002 
	C810.520203,2997.681396 785.288452,2982.393066 760.486877,2966.468262 
	C741.301941,2954.149902 722.573425,2941.045654 704.276733,2927.437012 
	C678.034058,2907.918457 652.049866,2888.019775 626.566833,2867.523193 
	C608.653809,2853.115479 591.382874,2837.848877 574.498291,2822.237793 
	C549.724487,2799.332031 524.858948,2776.451904 501.309387,2752.315186 
	C475.380920,2725.740723 450.002747,2698.557129 426.621765,2669.634766 
	C410.757416,2650.010498 394.648529,2630.564941 379.376892,2610.485840 
	C365.943909,2592.823730 353.529510,2574.387451 340.651154,2556.303223 
	C332.520844,2544.886475 323.933960,2533.766602 316.329468,2522.010742 
	C306.949127,2507.509277 298.465637,2492.430420 289.424805,2477.705322 
	C282.951538,2467.161865 275.861572,2456.985107 269.669312,2446.284424 
	C263.762360,2436.076660 258.782440,2425.336426 253.167709,2414.953369 
	C248.562454,2406.437256 243.490250,2398.173828 238.871216,2389.664551 
	C234.663864,2381.913330 230.642090,2374.052490 226.797089,2366.114746 
	C219.922409,2351.922607 213.133087,2337.686279 206.513031,2323.373779 
	C200.436768,2310.237061 194.411346,2297.067139 188.797836,2283.729248 
	C185.987839,2277.052490 184.163986,2270.176514 179.671402,2264.045898 
	C176.071976,2259.134277 174.766510,2252.512939 172.579346,2246.599854 
	C162.693619,2219.873779 152.585861,2193.226074 143.074326,2166.367188 
	C132.651352,2136.934814 121.876282,2107.572266 113.069305,2077.645264 
	C108.495758,2062.103516 101.745491,2046.944092 99.370651,2031.122559 
	C97.246040,2016.967896 89.924683,2004.293823 89.687912,1989.888550 
	C89.661919,1988.307373 88.602554,1986.766968 88.190491,1985.164551 
	C83.772934,1967.984619 78.005280,1951.002075 75.405762,1933.548584 
	C73.051422,1917.741699 67.965538,1902.632568 65.900887,1886.816528 
	C64.018661,1872.397949 59.798901,1858.209106 58.820244,1843.769287 
	C57.849766,1829.450073 53.954327,1815.642334 53.419338,1801.290894 
	C52.920727,1787.915161 51.171516,1774.579834 49.786171,1761.246094 
	C49.111797,1754.755371 47.652046,1748.335571 47.172054,1741.837402 
	C45.757114,1722.682495 44.008720,1703.519531 43.564339,1684.332520 
	C42.666023,1645.546021 41.634476,1606.724243 42.376289,1567.949829 
	C43.004723,1535.101807 45.237545,1502.224854 48.264374,1469.499756 
	C51.176350,1438.016479 55.616627,1406.653320 60.151905,1375.348511 
	C63.177101,1354.467041 68.188553,1333.870972 71.143158,1312.982056 
	C74.541237,1288.957520 81.079010,1265.701538 86.831146,1242.260620 
	C93.526398,1214.976196 100.731972,1187.801025 108.468689,1160.794067 
	C113.381844,1143.643433 119.471474,1126.817505 125.382195,1109.968262 
	C133.446381,1086.980225 141.285065,1063.887817 150.250000,1041.247803 
	C159.598633,1017.638977 169.988937,994.434204 180.266663,971.204407 
	C187.899277,953.953125 195.365051,936.566284 204.174988,919.911499 
	C219.186615,891.532776 232.516006,862.263367 249.859390,835.094299 
	C263.929291,813.053467 276.429901,790.009277 290.547913,768.001160 
	C303.572876,747.696838 317.758636,728.133484 331.561737,708.333435 
	C338.669159,698.138062 345.802460,687.942566 353.374146,678.093140 
	C366.306946,661.269653 379.200500,644.388611 392.828339,628.133545 
	C411.292786,606.109497 429.922394,584.180054 449.419830,563.077332 
	C471.813141,538.840332 494.988068,515.307556 518.296387,491.940613 
	C532.484070,477.717255 547.468567,464.279755 562.287292,450.699005 
	C569.034546,444.515442 576.237671,438.828369 583.250549,432.935822 
	C595.515869,422.629944 607.583313,412.074402 620.117920,402.106659 
	C637.374207,388.384247 654.820312,374.886108 672.508606,361.726624 
	C683.790039,353.333618 695.686523,345.770325 707.252930,337.756683 
	C720.031616,328.903198 732.442566,319.477905 745.560059,311.163818 
	C768.121155,296.864288 790.989685,283.037567 813.960022,269.401093 
	C826.049133,262.224274 839.202209,256.725952 850.824585,248.908234 
	C862.874146,240.803207 875.504700,234.323074 888.764099,228.624893 
	C896.550781,225.278580 903.639587,220.342819 911.204102,216.435226 
	C918.187988,212.827560 925.390808,209.644287 932.491394,206.261871 
	C937.521545,203.865677 942.315125,200.499695 947.612671,199.233490 
	C959.730713,196.337097 969.538391,188.684402 980.869141,184.310410 
	C1000.290344,176.813370 1020.078674,170.184128 1039.172852,161.939850 
	C1085.253540,142.043594 1133.527100,128.412064 1180.658203,111.534462 
	C1198.671509,105.083900 1217.196411,100.042160 1235.554810,94.582550 
	C1244.374878,91.959496 1253.294434,89.612610 1262.268311,87.579117 
	C1274.396606,84.830887 1286.631226,82.554810 1298.799438,79.978058 
	C1305.870117,78.480766 1312.930420,76.911766 1319.940796,75.157272 
	C1328.256348,73.076172 1336.435669,70.390083 1344.813965,68.634087 
	C1357.361938,66.004196 1370.009888,63.825401 1382.655640,61.694351 
	C1398.414062,59.038765 1414.164673,56.246677 1430.008545,54.213337 
	C1446.842407,52.052940 1463.791138,50.802834 1480.669678,48.969730 
	C1487.806274,48.194668 1494.864258,46.670414 1502.005371,45.969105 
	C1517.159668,44.480816 1532.334106,43.159531 1547.520630,42.049648 
	C1562.460571,40.957790 1577.417236,40.010002 1592.382324,39.369045 
	C1608.542725,38.676891 1624.719116,38.203403 1640.892944,38.029198 
	C1653.977173,37.888271 1667.076538,38.097103 1680.153442,38.576565 
	C1697.084229,39.197319 1714.020996,41.243950 1730.916260,40.878078 
	C1759.393555,40.261395 1787.382080,45.361538 1815.679443,46.635300 
	C1827.796631,47.180737 1839.847656,49.415722 1851.902466,51.074303 
	C1867.238159,53.184277 1882.592773,55.216446 1897.856934,57.773273 
	C1920.037231,61.488575 1942.261597,65.088707 1964.251221,69.754845 
	C1989.684570,75.151718 2014.978760,81.282700 2040.156860,87.779274 
	C2064.080811,93.952309 2087.936768,100.494087 2111.531982,107.810745 
	C2138.993896,116.326385 2166.281006,125.463394 2193.374023,135.090607 
	C2211.762451,141.624771 2229.851807,149.082733 2247.779541,156.812683 
	C2275.732178,168.865005 2303.534912,181.279922 2331.193848,193.991608 
	C2342.565186,199.217667 2353.377686,205.654327 2364.483398,211.465225 
	C2374.729736,216.826614 2385.169189,221.834854 2395.272949,227.449875 
	C2411.709473,236.584305 2428.069824,245.871841 2444.223389,255.495468 
	C2459.817627,264.785950 2475.128174,274.554901 2490.527832,284.170044 
	C2498.368652,289.065613 2506.132080,294.085022 2514.508057,299.496307 
M1023.569946,204.394928 
	C990.646484,219.706619 957.353455,234.278976 924.887634,250.506088 
	C878.078491,273.902313 833.117249,300.702026 789.222778,329.151581 
	C719.223145,374.520752 653.287537,425.260223 591.549438,481.412415 
	C536.241089,531.716675 484.742035,585.629333 437.173248,643.320007 
	C407.469696,679.343994 379.351868,716.580627 353.038513,755.105225 
	C319.944397,803.557312 288.770355,853.284241 262.422729,905.781616 
	C243.149384,944.183350 223.883484,982.681824 206.919327,1022.128479 
	C179.121979,1086.765503 156.063492,1153.206787 137.674866,1221.184692 
	C121.393005,1281.374268 108.293747,1342.224121 99.210327,1403.957031 
	C92.997566,1446.180298 88.331741,1488.558594 85.709816,1531.113281 
	C83.108536,1573.332886 81.300926,1615.632202 83.113640,1657.960815 
	C84.667015,1694.233887 85.284081,1730.603638 88.501236,1766.735962 
	C93.701729,1825.142822 101.348221,1883.333618 114.124496,1940.627686 
	C123.546333,1982.879150 133.218781,2025.165771 145.246140,2066.722900 
	C161.547821,2123.048828 180.541672,2178.605957 204.331757,2232.298340 
	C220.792603,2269.448975 237.495529,2306.559082 255.896027,2342.769531 
	C289.895172,2409.676270 329.189026,2473.515381 373.089417,2534.392334 
	C423.635468,2604.484619 479.184906,2670.361816 540.788147,2731.107910 
	C570.946594,2760.846680 602.019531,2789.584961 634.392273,2816.808594 
	C686.967773,2861.021484 742.143677,2901.796387 800.226807,2938.622314 
	C849.541382,2969.888672 900.273499,2998.628418 952.683533,3024.255615 
	C1005.692139,3050.176025 1060.151245,3072.793457 1115.856934,3092.417480 
	C1180.689087,3115.256348 1246.527954,3134.564697 1313.822021,3148.475830 
	C1369.624756,3160.011719 1425.971436,3168.425781 1482.719238,3174.050781 
	C1527.188110,3178.458740 1571.787964,3181.147949 1616.418213,3181.380371 
	C1670.035889,3181.659668 1723.674438,3180.273926 1777.086914,3174.593750 
	C1800.271240,3172.128418 1823.573730,3170.526855 1846.638184,3167.238770 
	C1884.875244,3161.788086 1923.072754,3155.772949 1960.574219,3146.334229 
	C2004.819336,3135.198486 2049.354248,3124.903076 2092.944824,3111.567139 
	C2134.627441,3098.814697 2175.718262,3083.784668 2216.249756,3067.691650 
	C2284.137695,3040.735840 2349.895996,3008.991211 2412.904785,2971.991699 
	C2462.881592,2942.644287 2511.277588,2910.741211 2557.765625,2876.033936 
	C2596.217529,2847.325928 2633.521484,2817.209473 2669.182373,2785.099609 
	C2727.712402,2732.397705 2782.147461,2675.749512 2832.440918,2615.118652 
	C2877.631836,2560.639404 2918.042725,2502.713135 2955.208008,2442.589600 
	C2985.877930,2392.973877 3013.632324,2341.696045 3038.231934,2288.712402 
	C3070.002441,2220.282959 3097.007812,2150.097900 3118.896240,2077.904053 
	C3132.539795,2032.903320 3144.196777,1987.383789 3153.209717,1941.273560 
	C3160.171387,1905.658447 3165.381836,1869.694702 3171.059082,1833.836670 
	C3178.573730,1786.374634 3181.885498,1738.503418 3183.666992,1690.544067 
	C3185.447998,1642.583740 3185.914551,1594.570923 3182.320312,1546.679077 
	C3179.255615,1505.843018 3175.923340,1464.983521 3170.987305,1424.343384 
	C3165.887939,1382.362183 3158.023926,1340.775391 3149.063721,1299.393188 
	C3136.210938,1240.033203 3119.810791,1181.679810 3100.021729,1124.322876 
	C3081.215088,1069.814697 3059.262451,1016.555054 3034.493652,964.418335 
	C3004.557861,901.404907 2970.530518,840.722961 2932.460449,782.342957 
	C2901.520020,734.896667 2868.054688,689.241028 2831.983398,645.504578 
	C2783.138184,586.278687 2730.436035,530.787537 2673.430664,479.350372 
	C2622.386719,433.292236 2568.576904,390.698273 2511.878174,351.907318 
	C2462.637939,318.219421 2411.637207,287.322357 2358.849854,259.345551 
	C2275.863037,215.363144 2189.701904,178.990433 2100.136963,150.944412 
	C2024.057129,127.121086 1946.591919,108.829704 1867.669800,96.976715 
	C1807.313232,87.912056 1746.666382,82.017426 1685.667603,80.089027 
	C1615.320679,77.865112 1545.111206,79.944817 1475.089233,87.513329 
	C1425.059937,92.920898 1375.255005,99.684067 1325.971069,110.022026 
	C1273.118408,121.108589 1220.648560,133.647690 1169.225342,150.288605 
	C1120.385864,166.093414 1071.840454,182.686676 1023.569946,204.394928 
z"/>
<path fill="#1783AC" opacity="1.000000" stroke="none" 
	d="
M1024.261230,204.075089 
	C1071.840454,182.686676 1120.385864,166.093414 1169.225342,150.288605 
	C1220.648560,133.647690 1273.118408,121.108589 1325.971069,110.022026 
	C1375.255005,99.684067 1425.059937,92.920898 1475.089233,87.513329 
	C1545.111206,79.944817 1615.320679,77.865112 1685.667603,80.089027 
	C1746.666382,82.017426 1807.313232,87.912056 1867.669800,96.976715 
	C1946.591919,108.829704 2024.057129,127.121086 2100.136963,150.944412 
	C2189.701904,178.990433 2275.863037,215.363144 2358.849854,259.345551 
	C2411.637207,287.322357 2462.637939,318.219421 2511.878174,351.907318 
	C2568.576904,390.698273 2622.386719,433.292236 2673.430664,479.350372 
	C2730.436035,530.787537 2783.138184,586.278687 2831.983398,645.504578 
	C2868.054688,689.241028 2901.520020,734.896667 2932.460449,782.342957 
	C2970.530518,840.722961 3004.557861,901.404907 3034.493652,964.418335 
	C3059.262451,1016.555054 3081.215088,1069.814697 3100.021729,1124.322876 
	C3119.810791,1181.679810 3136.210938,1240.033203 3149.063721,1299.393188 
	C3158.023926,1340.775391 3165.887939,1382.362183 3170.987305,1424.343384 
	C3175.923340,1464.983521 3179.255615,1505.843018 3182.320312,1546.679077 
	C3185.914551,1594.570923 3185.447998,1642.583740 3183.666992,1690.544067 
	C3181.885498,1738.503418 3178.573730,1786.374634 3171.059082,1833.836670 
	C3165.381836,1869.694702 3160.171387,1905.658447 3153.209717,1941.273560 
	C3144.196777,1987.383789 3132.539795,2032.903320 3118.896240,2077.904053 
	C3097.007812,2150.097900 3070.002441,2220.282959 3038.231934,2288.712402 
	C3013.632324,2341.696045 2985.877930,2392.973877 2955.208008,2442.589600 
	C2918.042725,2502.713135 2877.631836,2560.639404 2832.440918,2615.118652 
	C2782.147461,2675.749512 2727.712402,2732.397705 2669.182373,2785.099609 
	C2633.521484,2817.209473 2596.217529,2847.325928 2557.765625,2876.033936 
	C2511.277588,2910.741211 2462.881592,2942.644287 2412.904785,2971.991699 
	C2349.895996,3008.991211 2284.137695,3040.735840 2216.249756,3067.691650 
	C2175.718262,3083.784668 2134.627441,3098.814697 2092.944824,3111.567139 
	C2049.354248,3124.903076 2004.819336,3135.198486 1960.574219,3146.334229 
	C1923.072754,3155.772949 1884.875244,3161.788086 1846.638184,3167.238770 
	C1823.573730,3170.526855 1800.271240,3172.128418 1777.086914,3174.593750 
	C1723.674438,3180.273926 1670.035889,3181.659668 1616.418213,3181.380371 
	C1571.787964,3181.147949 1527.188110,3178.458740 1482.719238,3174.050781 
	C1425.971436,3168.425781 1369.624756,3160.011719 1313.822021,3148.475830 
	C1246.527954,3134.564697 1180.689087,3115.256348 1115.856934,3092.417480 
	C1060.151245,3072.793457 1005.692139,3050.176025 952.683533,3024.255615 
	C900.273499,2998.628418 849.541382,2969.888672 800.226807,2938.622314 
	C742.143677,2901.796387 686.967773,2861.021484 634.392273,2816.808594 
	C602.019531,2789.584961 570.946594,2760.846680 540.788147,2731.107910 
	C479.184906,2670.361816 423.635468,2604.484619 373.089417,2534.392334 
	C329.189026,2473.515381 289.895172,2409.676270 255.896027,2342.769531 
	C237.495529,2306.559082 220.792603,2269.448975 204.331757,2232.298340 
	C180.541672,2178.605957 161.547821,2123.048828 145.246140,2066.722900 
	C133.218781,2025.165771 123.546333,1982.879150 114.124496,1940.627686 
	C101.348221,1883.333618 93.701729,1825.142822 88.501236,1766.735962 
	C85.284081,1730.603638 84.667015,1694.233887 83.113640,1657.960815 
	C81.300926,1615.632202 83.108536,1573.332886 85.709816,1531.113281 
	C88.331741,1488.558594 92.997566,1446.180298 99.210327,1403.957031 
	C108.293747,1342.224121 121.393005,1281.374268 137.674866,1221.184692 
	C156.063492,1153.206787 179.121979,1086.765503 206.919327,1022.128479 
	C223.883484,982.681824 243.149384,944.183350 262.422729,905.781616 
	C288.770355,853.284241 319.944397,803.557312 353.038513,755.105225 
	C379.351868,716.580627 407.469696,679.343994 437.173248,643.320007 
	C484.742035,585.629333 536.241089,531.716675 591.549438,481.412415 
	C653.287537,425.260223 719.223145,374.520752 789.222778,329.151581 
	C833.117249,300.702026 878.078491,273.902313 924.887634,250.506088 
	C957.353455,234.278976 990.646484,219.706619 1024.261230,204.075089 
M2207.166748,1819.848511 
	C2222.025879,1838.263062 2236.406006,1857.091553 2251.863525,1874.989136 
	C2271.834961,1898.112793 2296.378174,1911.798340 2328.266846,1908.028931 
	C2347.134277,1905.798584 2363.083252,1898.839111 2372.131836,1880.950317 
	C2382.937500,1859.587158 2384.981689,1820.838379 2359.701172,1796.567505 
	C2337.832031,1775.571533 2316.972412,1753.523438 2295.691406,1731.915771 
	C2292.284668,1728.456665 2289.008545,1724.868896 2285.548828,1721.210205 
	C2286.884277,1720.348877 2287.123291,1720.091309 2287.405029,1720.030762 
	C2288.701416,1719.752319 2290.000244,1719.454102 2291.314453,1719.296143 
	C2320.148193,1715.830078 2340.636230,1700.213989 2353.971191,1675.103516 
	C2375.957275,1633.702759 2381.661133,1589.091431 2376.842285,1543.173706 
	C2373.299805,1509.416748 2356.511230,1481.614380 2333.089355,1457.571777 
	C2301.535400,1425.181885 2263.637939,1408.184937 2217.979248,1408.421631 
	C2147.654541,1408.786133 2077.326416,1408.472046 2006.999756,1408.588867 
	C2000.032471,1408.600464 1992.992310,1409.135254 1986.114136,1410.231812 
	C1963.027344,1413.911865 1948.139893,1427.599609 1943.331543,1450.544678 
	C1941.368896,1459.910400 1940.874512,1469.724976 1940.861938,1479.336792 
	C1940.704590,1598.991943 1940.738892,1718.647461 1940.807617,1838.302856 
	C1940.811890,1845.620605 1941.193481,1852.972168 1941.959229,1860.249146 
	C1944.606689,1885.404053 1958.587891,1901.025146 1983.270508,1906.511597 
	C1996.117432,1909.367188 2009.158325,1909.377686 2021.990112,1906.905762 
	C2048.602783,1901.779175 2063.144775,1885.451782 2065.788574,1858.408325 
	C2066.273438,1853.446655 2066.249023,1848.423096 2066.250244,1843.428101 
	C2066.274902,1744.437500 2066.269043,1645.446777 2066.269287,1546.456177 
	C2066.269287,1542.598022 2066.269287,1538.739868 2066.269287,1535.080811 
	C2068.663818,1534.594604 2069.619141,1534.231445 2070.574463,1534.231079 
	C2117.569336,1534.210815 2164.566406,1534.013916 2211.557617,1534.433838 
	C2219.383301,1534.503662 2227.483154,1536.411133 2234.930908,1538.987793 
	C2247.526855,1543.345825 2253.852783,1553.360840 2253.428467,1565.739380 
	C2252.983398,1578.726440 2246.537354,1587.281982 2233.582764,1591.464600 
	C2229.497070,1592.783936 2225.182373,1593.706909 2220.909668,1594.068726 
	C2212.287109,1594.799072 2203.625977,1595.216797 2194.972656,1595.408813 
	C2179.980957,1595.741577 2164.940430,1595.149414 2149.998779,1596.136230 
	C2128.292725,1597.569702 2110.739990,1606.252808 2102.081299,1627.815552 
	C2097.779053,1638.530029 2096.714111,1649.786255 2097.303711,1661.190674 
	C2098.372559,1681.861206 2108.579102,1698.498901 2121.153809,1713.998901 
	C2149.496826,1748.935303 2177.884033,1783.835815 2207.166748,1819.848511 
M620.999023,1784.015503 
	C583.344727,1784.196289 545.689331,1784.259888 508.036530,1784.604736 
	C487.388916,1784.793701 466.704010,1784.791504 446.111328,1786.080566 
	C422.251312,1787.574219 405.837067,1801.684326 400.378204,1824.050293 
	C397.021027,1837.805298 396.693085,1851.741333 399.688263,1865.656006 
	C404.553619,1888.259033 418.442108,1901.909180 441.238007,1905.924072 
	C448.085297,1907.129883 455.125977,1907.740845 462.080109,1907.757568 
	C520.733582,1907.898315 579.388062,1907.975708 638.040955,1907.748779 
	C654.345093,1907.685669 670.695068,1907.130127 686.934998,1905.751587 
	C709.911011,1903.801392 732.344482,1898.921265 753.756653,1890.041016 
	C793.897095,1873.393311 820.575867,1844.693848 831.495422,1802.269043 
	C838.311401,1775.787720 838.804443,1748.919922 834.938965,1721.919556 
	C831.880432,1700.556641 825.425903,1680.394287 813.606018,1662.180786 
	C794.698242,1633.045410 766.987122,1616.230225 734.554626,1606.223145 
	C706.277039,1597.497925 677.093994,1595.067871 647.714783,1594.621948 
	C626.391052,1594.298218 605.058411,1594.584106 583.729797,1594.547119 
	C570.375427,1594.523926 557.059998,1593.990479 544.216797,1589.786011 
	C530.094604,1585.162964 522.429810,1576.742798 522.140259,1565.745605 
	C521.833862,1554.105103 529.132202,1545.036621 543.243713,1539.722900 
	C554.926270,1535.323608 567.122742,1533.737061 579.517944,1533.722900 
	C624.171143,1533.672119 668.824463,1533.725586 713.477722,1533.740112 
	C735.471924,1533.747314 757.476196,1534.181274 779.457947,1533.662109 
	C811.949829,1532.894775 831.310547,1516.817505 835.179077,1486.336792 
	C836.662537,1474.648560 835.966675,1462.296997 833.978210,1450.637329 
	C830.153748,1428.211670 815.668335,1415.035278 793.630310,1410.328003 
	C787.480469,1409.014404 781.086609,1408.255371 774.803223,1408.245972 
	C707.819092,1408.146118 640.831421,1407.870239 573.851990,1408.466553 
	C543.771057,1408.734375 514.088318,1413.083862 485.730286,1423.937622 
	C439.817596,1441.510254 411.281708,1473.935913 401.645782,1522.512573 
	C396.798462,1546.948730 396.525055,1571.489746 399.908447,1596.079590 
	C406.887054,1646.798096 433.295319,1682.839478 480.996979,1702.600586 
	C510.366089,1714.767212 541.268555,1719.201294 572.742920,1719.881958 
	C599.391663,1720.458130 626.062378,1719.933960 652.719727,1720.228882 
	C667.755676,1720.395142 682.750671,1721.629639 696.480896,1728.631104 
	C705.811829,1733.389282 711.267822,1741.098022 711.299194,1751.771851 
	C711.330505,1762.432495 706.168884,1770.613281 696.581116,1774.839966 
	C689.068665,1778.151611 680.932373,1781.094604 672.852722,1781.853638 
	C656.313293,1783.407471 639.625610,1783.382935 620.999023,1784.015503 
M1313.756836,989.000000 
	C1313.646118,875.372681 1313.535767,761.745300 1313.401367,648.117981 
	C1313.401123,647.850037 1313.060303,647.573792 1312.858398,647.317200 
	C1312.654297,647.057739 1312.425293,646.817993 1311.482178,645.743591 
	C1304.880615,646.346497 1297.647583,647.300354 1290.386719,647.620239 
	C1255.782593,649.144714 1221.344482,652.153137 1187.166870,657.974304 
	C1162.325928,662.205200 1138.621338,669.060486 1117.366577,683.392334 
	C1084.028320,705.871887 1054.835205,733.079834 1026.353271,761.191833 
	C1022.800354,764.698547 1022.652344,768.694702 1022.653015,773.084045 
	C1022.678040,931.706604 1022.671814,1090.329102 1022.708862,1248.951660 
	C1022.709351,1251.067505 1023.208862,1253.183472 1023.592773,1256.230469 
	C1026.298706,1254.107422 1028.098511,1252.693604 1029.899902,1251.281982 
	C1053.490723,1232.795410 1076.800415,1213.934814 1100.745850,1195.919556 
	C1129.271484,1174.458374 1160.405029,1158.503296 1196.147095,1152.361816 
	C1231.611694,1146.268311 1267.231812,1141.851440 1303.130005,1139.532837 
	C1306.592651,1139.309326 1310.018921,1138.522949 1313.756836,1137.952881 
	C1313.756836,1088.263428 1313.756836,1039.631714 1313.756836,989.000000 
M1444.207153,1709.267822 
	C1433.171387,1732.408447 1421.865479,1755.425415 1411.185547,1778.729126 
	C1402.727905,1797.183960 1394.749512,1815.874634 1387.190796,1834.714355 
	C1385.036621,1840.083618 1383.765625,1846.480835 1384.369751,1852.164185 
	C1386.740723,1874.468506 1397.443970,1891.632568 1417.844971,1902.125732 
	C1429.158691,1907.944946 1441.304810,1909.142944 1453.740479,1909.139282 
	C1528.699951,1909.117798 1603.659424,1909.129395 1678.618896,1909.129150 
	C1724.260864,1909.129028 1769.903076,1909.085815 1815.544922,1909.152832 
	C1829.812988,1909.173706 1843.294922,1906.611816 1855.578979,1898.864746 
	C1879.438110,1883.818237 1889.325806,1855.494507 1878.661133,1829.536011 
	C1869.935547,1808.297607 1860.805054,1787.168579 1850.656250,1766.581421 
	C1804.867798,1673.696777 1758.673950,1581.011841 1712.570923,1488.282349 
	C1705.010620,1473.075806 1697.330811,1457.924194 1689.428101,1442.893433 
	C1677.734985,1420.652588 1659.193481,1408.348022 1634.053467,1408.174072 
	C1608.591797,1407.997925 1589.539062,1419.916870 1577.381592,1442.470947 
	C1575.801758,1445.401978 1574.248657,1448.349243 1572.763184,1451.328735 
	C1530.120605,1536.856689 1487.488281,1622.389893 1444.207153,1709.267822 
M925.703003,713.287109 
	C914.641663,704.732361 903.756409,695.937012 892.476929,687.680237 
	C876.196106,675.762512 858.454346,666.405396 838.537048,662.586853 
	C816.671448,658.394714 794.653015,654.729919 772.549438,652.121765 
	C749.115906,649.356750 725.507202,648.062317 701.966675,646.232239 
	C698.142944,645.934998 694.276245,646.190491 690.396118,646.190491 
	C690.396118,810.972290 690.396118,974.420959 690.396118,1138.270996 
	C693.487488,1138.747437 696.075134,1139.245483 698.685913,1139.533569 
	C730.743042,1143.072144 762.871948,1146.055664 794.844910,1150.234375 
	C831.103333,1154.973267 864.600891,1167.550781 893.996704,1189.669556 
	C920.065735,1209.284912 945.721436,1229.449951 971.543457,1249.393311 
	C974.062378,1251.338745 976.467651,1253.431519 980.424438,1256.690186 
	C980.424438,1251.130981 980.424438,1247.578491 980.424438,1244.025879 
	C980.424438,1114.085327 980.424438,984.144714 980.424438,854.204102 
	C980.424438,827.216431 980.240540,800.226624 980.562561,773.242798 
	C980.636597,767.037537 978.906677,762.585571 974.336182,758.421387 
	C958.338318,743.845520 942.621948,728.960632 925.703003,713.287109 
M2861.427246,1429.797729 
	C2853.019775,1417.836548 2841.054688,1411.629517 2826.956299,1410.044922 
	C2815.408936,1408.746948 2803.707764,1408.389771 2792.072998,1408.362549 
	C2694.441895,1408.134644 2596.810303,1408.076416 2499.178955,1407.982300 
	C2495.515381,1407.979004 2491.836670,1407.950195 2488.190430,1408.244873 
	C2455.529541,1410.885620 2436.474121,1430.098389 2434.169678,1462.755371 
	C2433.818359,1467.734131 2433.842041,1472.745605 2433.841309,1477.741943 
	C2433.824463,1599.033813 2433.825195,1720.325684 2433.839111,1841.617554 
	C2433.839600,1846.280762 2433.815674,1850.956299 2434.120850,1855.605225 
	C2436.212402,1887.469971 2455.260010,1906.334961 2487.153809,1908.130249 
	C2492.804688,1908.448364 2498.475098,1908.534302 2504.136475,1908.535645 
	C2603.102539,1908.559326 2702.068848,1908.564331 2801.034912,1908.527222 
	C2807.360596,1908.524902 2813.713379,1908.451294 2820.007324,1907.891479 
	C2846.746094,1905.513184 2863.736816,1891.075562 2869.019775,1865.750977 
	C2871.763428,1852.597412 2871.640869,1839.212769 2868.836914,1826.037964 
	C2864.134521,1803.942871 2850.775146,1790.021973 2828.471436,1785.629517 
	C2820.700928,1784.099121 2812.623047,1783.559814 2804.683838,1783.544678 
	C2727.043945,1783.396606 2649.403809,1783.455200 2571.763672,1783.455078 
	C2567.909912,1783.455078 2564.056396,1783.455078 2560.398926,1783.455078 
	C2558.240234,1764.612183 2559.122559,1541.637085 2561.384033,1534.155640 
	C2564.821533,1534.155640 2568.450928,1534.155640 2572.080566,1534.155640 
	C2648.054688,1534.155640 2724.028809,1534.231079 2800.002441,1534.057861 
	C2809.278320,1534.036743 2818.700439,1533.477173 2827.793213,1531.772095 
	C2845.174561,1528.512939 2859.031738,1519.317017 2865.542969,1502.423462 
	C2874.805908,1478.390381 2874.864258,1454.299683 2861.427246,1429.797729 
M2285.000000,1977.401245 
	C2258.008301,1977.401489 2231.016357,1977.377197 2204.024658,1977.425171 
	C2199.364746,1977.433472 2194.677490,1977.481567 2190.050781,1977.968018 
	C2170.890625,1979.982178 2158.960205,1990.942261 2155.783691,2009.974731 
	C2154.639648,2016.827026 2154.380615,2023.891113 2154.373047,2030.859253 
	C2154.282227,2115.166504 2154.311035,2199.473877 2154.323975,2283.781250 
	C2154.324463,2287.778564 2154.339600,2291.782715 2154.561279,2295.771729 
	C2156.092529,2323.301025 2170.195068,2336.880127 2197.827148,2337.504883 
	C2198.826416,2337.527588 2199.826416,2337.510742 2200.826172,2337.510742 
	C2248.145020,2337.510742 2295.464600,2337.689941 2342.781982,2337.426514 
	C2363.142822,2337.313232 2383.333252,2335.007080 2403.100342,2329.773438 
	C2454.568115,2316.147217 2488.719238,2284.391357 2504.487549,2233.230469 
	C2511.318359,2211.067139 2514.097412,2188.348877 2514.557373,2165.262207 
	C2515.131348,2136.458008 2512.930908,2108.004639 2504.026855,2080.374512 
	C2489.934814,2036.644897 2461.683838,2006.335938 2418.453857,1990.371948 
	C2397.989014,1982.814575 2376.723145,1978.703125 2354.963867,1978.045166 
	C2332.323486,1977.360474 2309.655762,1977.577881 2285.000000,1977.401245 
M1393.760132,2159.338867 
	C1385.372314,2146.506592 1374.147827,2136.830811 1360.792358,2129.450928 
	C1346.011719,2121.283936 1330.123413,2116.235107 1313.493896,2114.347900 
	C1297.312622,2112.511963 1280.980469,2111.803955 1264.692383,2111.168701 
	C1247.726318,2110.506592 1230.703979,2111.020020 1213.767700,2109.999512 
	C1207.003418,2109.591797 1199.832764,2107.525635 1193.848999,2104.335449 
	C1181.871948,2097.949707 1181.399536,2083.511963 1192.457764,2075.661133 
	C1195.906982,2073.212158 1200.048950,2071.133545 1204.154541,2070.343018 
	C1212.286621,2068.777588 1220.609009,2067.447021 1228.861938,2067.392090 
	C1264.841309,2067.151367 1300.824097,2067.512207 1336.805176,2067.421875 
	C1350.443726,2067.387451 1364.175415,2067.598145 1377.694702,2066.131592 
	C1395.130737,2064.240234 1405.925781,2054.358398 1408.762207,2037.133667 
	C1410.402222,2027.174438 1410.143921,2016.482666 1408.484985,2006.495239 
	C1405.784546,1990.238647 1394.590820,1981.240967 1378.683960,1978.256104 
	C1373.480347,1977.279663 1368.094604,1976.903076 1362.790649,1976.890381 
	C1319.144409,1976.785767 1275.496704,1976.640015 1231.851929,1976.908203 
	C1208.151611,1977.053711 1184.604614,1978.965210 1161.976562,1986.961304 
	C1131.114258,1997.867188 1109.222778,2017.792603 1100.287109,2049.906982 
	C1093.092529,2075.764648 1093.108154,2101.995605 1100.019531,2127.928223 
	C1106.601562,2152.625977 1121.382568,2171.265137 1143.900513,2183.598145 
	C1157.486938,2191.039307 1172.025024,2195.991943 1187.308472,2197.892578 
	C1202.803223,2199.819336 1218.437866,2200.946777 1234.045044,2201.555908 
	C1250.680298,2202.205811 1267.358398,2201.671143 1284.011597,2201.980957 
	C1293.390991,2202.155518 1302.717041,2203.498779 1310.916504,2208.475342 
	C1323.823975,2216.309326 1323.949097,2232.780518 1310.830811,2240.224854 
	C1305.486694,2243.257568 1299.090942,2245.014404 1292.960083,2245.944092 
	C1284.437256,2247.236084 1275.716675,2247.605957 1267.075439,2247.672363 
	C1224.765869,2247.997559 1182.454346,2248.045410 1140.144287,2248.326660 
	C1135.181030,2248.359619 1130.153564,2248.857422 1125.275757,2249.775635 
	C1109.940308,2252.662842 1099.714355,2261.880127 1097.120605,2277.122803 
	C1095.422852,2287.099121 1095.490479,2297.784424 1097.031738,2307.803955 
	C1099.120117,2321.380859 1108.029907,2330.700684 1121.480347,2333.997314 
	C1129.779541,2336.031738 1138.574829,2336.694336 1147.160522,2336.789307 
	C1176.476685,2337.113525 1205.799072,2336.999268 1235.118286,2336.883057 
	C1253.770020,2336.809082 1272.426147,2336.639648 1291.070190,2336.138184 
	C1309.490845,2335.643066 1327.495483,2332.410889 1344.893311,2326.244873 
	C1380.178467,2313.739258 1402.080811,2289.531982 1408.723511,2252.334473 
	C1410.006714,2245.148193 1410.841553,2237.795898 1410.968628,2230.504395 
	C1411.398193,2205.850830 1408.129517,2181.969482 1393.760132,2159.338867 
M1204.247437,1454.076904 
	C1203.912842,1461.062134 1203.307861,1468.046631 1203.289062,1475.032715 
	C1203.191772,1511.363525 1203.256958,1547.694580 1203.222656,1584.025635 
	C1203.219360,1587.570435 1202.923706,1591.114868 1202.752197,1594.912842 
	C1199.467407,1595.139771 1197.188721,1595.414551 1194.907715,1595.437012 
	C1167.914062,1595.702026 1140.918213,1595.808105 1113.927490,1596.243042 
	C1106.295410,1596.366089 1098.575439,1596.836426 1091.073730,1598.158081 
	C1068.986694,1602.049561 1054.300415,1614.567871 1048.752197,1636.692871 
	C1045.121704,1651.170166 1045.224609,1665.772583 1048.898193,1680.245850 
	C1054.041748,1700.511353 1066.774048,1713.598999 1087.230591,1717.994873 
	C1096.912354,1720.075439 1107.019897,1720.887451 1116.946411,1720.978516 
	C1142.933594,1721.216553 1168.927246,1720.722046 1194.918579,1720.581787 
	C1197.431641,1720.568237 1199.947021,1720.989502 1203.243652,1721.277344 
	C1203.243652,1725.558105 1203.243652,1729.170410 1203.243652,1732.782837 
	C1203.243774,1770.447021 1203.212524,1808.111328 1203.279297,1845.775391 
	C1203.288696,1851.097900 1203.465332,1856.456543 1204.094971,1861.735229 
	C1206.977173,1885.896362 1220.649170,1901.817505 1244.679932,1906.116333 
	C1256.938110,1908.309082 1270.029785,1908.729492 1282.354492,1907.063477 
	C1307.879639,1903.613159 1321.874023,1889.029907 1326.434082,1863.625854 
	C1327.660889,1856.791382 1327.996582,1849.721313 1328.015137,1842.757568 
	C1328.188721,1777.429932 1328.195557,1712.101929 1328.268433,1646.774048 
	C1328.325806,1595.445435 1328.441650,1544.116699 1328.452637,1492.788086 
	C1328.454956,1481.793823 1328.702759,1470.752563 1327.825439,1459.814209 
	C1325.276733,1428.036865 1305.792358,1409.443726 1274.005981,1407.883301 
	C1269.019775,1407.638428 1264.002441,1407.603516 1259.017090,1407.840454 
	C1224.216309,1409.493530 1208.920898,1428.098877 1204.247437,1454.076904 
M2107.411865,2224.199707 
	C2112.406982,2201.306641 2114.279053,2178.134766 2114.181152,2154.720703 
	C2114.003174,2112.066162 2114.140381,2069.410645 2114.114014,2026.755371 
	C2114.111328,2022.426514 2114.177002,2018.067871 2113.724609,2013.774292 
	C2111.547607,1993.103149 2100.514404,1980.834106 2079.875977,1977.721313 
	C2071.826660,1976.507324 2063.232666,1976.831787 2055.176025,1978.181885 
	C2039.546265,1980.801270 2029.526367,1990.519165 2026.079102,2006.049805 
	C2024.579712,2012.804565 2024.073242,2019.898071 2024.045532,2026.841553 
	C2023.869873,2070.829102 2024.005737,2114.817627 2023.928833,2158.805664 
	C2023.897217,2176.907471 2021.968384,2194.733154 2014.745117,2211.597656 
	C2009.470825,2223.911377 2001.426147,2233.785400 1989.447754,2240.226074 
	C1951.127686,2260.830811 1906.196533,2242.274902 1894.042480,2200.755127 
	C1889.507812,2185.263916 1888.259766,2169.352051 1888.278687,2153.303711 
	C1888.329468,2110.316650 1888.431641,2067.329346 1888.458496,2024.342285 
	C1888.461426,2019.683960 1888.510864,2014.966553 1887.842529,2010.377808 
	C1885.588989,1994.904541 1877.776489,1983.752686 1862.198853,1979.191895 
	C1850.072388,1975.641479 1837.871216,1975.634155 1825.735474,1979.162109 
	C1811.607056,1983.269409 1803.046753,1992.776001 1800.151123,2007.042480 
	C1798.901978,2013.197144 1798.362549,2019.594238 1798.341064,2025.884033 
	C1798.191406,2069.538574 1798.126709,2113.194092 1798.311279,2156.848389 
	C1798.432983,2185.602051 1801.103149,2214.070557 1810.031250,2241.629150 
	C1825.796509,2290.292480 1857.759033,2321.497070 1908.328003,2332.497559 
	C1941.750366,2339.768555 1975.190308,2339.422119 2008.388550,2331.423828 
	C2035.317261,2324.936279 2058.514893,2311.802979 2076.463135,2290.249756 
	C2092.165283,2271.393066 2101.314941,2249.424072 2107.411865,2224.199707 
M1016.047302,1511.000000 
	C1016.047302,1499.670288 1016.286987,1488.333862 1015.969482,1477.013062 
	C1015.727478,1468.386841 1015.531555,1459.643677 1013.998108,1451.191528 
	C1009.945251,1428.852783 996.226868,1415.251709 974.217041,1410.167725 
	C961.075623,1407.132202 947.830383,1407.054810 934.564636,1409.812012 
	C910.118469,1414.892822 895.420532,1430.279663 891.942383,1455.105103 
	C890.975342,1462.007324 890.419495,1469.028076 890.414429,1475.994995 
	C890.325500,1597.955566 890.318665,1719.916016 890.431641,1841.876465 
	C890.438721,1849.502686 890.941650,1857.244751 892.312500,1864.731567 
	C896.372437,1886.904419 909.183716,1901.780396 931.623779,1905.914917 
	C943.235657,1908.054321 955.614136,1908.714355 967.296997,1907.252197 
	C995.221313,1903.757446 1010.444885,1887.755005 1014.507751,1859.792114 
	C1015.508545,1852.903931 1015.824219,1845.863159 1015.832703,1838.891724 
	C1015.964600,1730.261230 1015.994141,1621.630615 1016.047302,1511.000000 
M2753.104736,2030.092773 
	C2739.093018,2046.865723 2725.081543,2063.638672 2710.407227,2081.205078 
	C2705.600586,2075.429932 2701.624268,2070.580811 2697.572021,2065.796631 
	C2676.895020,2041.385742 2656.225098,2016.968750 2635.488770,1992.608643 
	C2630.691406,1986.972900 2625.215820,1982.170166 2617.972168,1979.774902 
	C2604.251709,1975.237793 2590.480225,1974.910522 2576.755127,1979.489014 
	C2564.061035,1983.723267 2555.963623,1992.403442 2553.106934,2005.579590 
	C2548.781250,2025.533691 2553.117188,2043.252930 2567.213135,2058.305420 
	C2571.082764,2062.437256 2575.290283,2066.276611 2578.924561,2070.601807 
	C2605.507568,2102.239990 2631.906006,2134.033691 2658.580078,2165.594971 
	C2662.487793,2170.218750 2664.184082,2174.809570 2664.160156,2180.896240 
	C2664.024170,2215.554688 2664.194336,2250.215088 2664.488525,2284.873047 
	C2664.550293,2292.174316 2664.958252,2299.578125 2666.265625,2306.741211 
	C2668.938477,2321.384033 2677.243408,2331.618652 2692.009033,2335.557373 
	C2703.524658,2338.628906 2715.133545,2338.225098 2726.565918,2334.896729 
	C2739.787109,2331.047607 2748.641602,2322.497803 2751.843994,2309.082275 
	C2753.448730,2302.360596 2754.066406,2295.267578 2754.121582,2288.334473 
	C2754.406006,2252.676025 2754.456299,2217.014648 2754.338135,2181.354980 
	C2754.319336,2175.673096 2755.850342,2171.281494 2759.612305,2166.948975 
	C2779.058105,2144.553955 2798.138916,2121.842041 2817.524902,2099.394531 
	C2829.716309,2085.277588 2842.086670,2071.309814 2854.618164,2057.493896 
	C2869.255127,2041.356445 2873.779297,2022.861084 2868.228027,2001.910889 
	C2865.809814,1992.784302 2860.263672,1985.909302 2852.007080,1981.265869 
	C2831.760010,1969.879639 2801.537598,1974.592896 2786.025391,1991.917480 
	C2775.134521,2004.080078 2764.675781,2016.629517 2753.104736,2030.092773 
M1558.033569,2125.000000 
	C1557.979614,2179.647949 1557.914551,2234.295654 1557.891235,2288.943604 
	C1557.889282,2293.603760 1557.825073,2298.304688 1558.373535,2302.916992 
	C1560.388062,2319.855713 1569.738159,2331.099609 1585.302979,2335.270508 
	C1596.795166,2338.349854 1608.396484,2338.380127 1619.864746,2335.103516 
	C1633.869751,2331.102295 1643.027222,2322.054199 1646.018311,2307.721436 
	C1647.433228,2300.942383 1647.957886,2293.865479 1647.966431,2286.922363 
	C1648.051514,2217.945801 1647.943726,2148.969482 1647.891357,2079.992920 
	C1647.888428,2076.130859 1647.890991,2072.268799 1647.890991,2067.737061 
	C1652.264038,2067.737061 1655.215454,2067.737305 1658.166748,2067.737305 
	C1675.494263,2067.736816 1692.823975,2067.887939 1710.148315,2067.656006 
	C1716.444336,2067.571777 1722.840576,2067.127197 1728.995361,2065.880859 
	C1744.406372,2062.760254 1754.670410,2053.645264 1758.353516,2038.087646 
	C1759.569702,2032.949951 1760.258179,2027.573120 1760.321899,2022.295288 
	C1760.686157,1992.101074 1747.032837,1978.033691 1716.978516,1977.428833 
	C1701.993286,1977.127197 1687.004395,1976.892090 1672.016602,1976.854248 
	C1612.705200,1976.704712 1553.393677,1976.594360 1494.082153,1976.630493 
	C1488.127686,1976.634155 1482.043213,1977.142944 1476.245483,1978.434448 
	C1461.330811,1981.756714 1451.391357,1990.686890 1447.695068,2005.870361 
	C1444.967773,2017.073486 1444.885620,2028.307129 1447.778198,2039.480713 
	C1451.580566,2054.168945 1461.169189,2063.006104 1475.902100,2065.952637 
	C1481.738159,2067.119629 1487.792114,2067.588623 1493.755005,2067.657959 
	C1512.079834,2067.870850 1530.408813,2067.708008 1548.735840,2067.766357 
	C1551.603516,2067.775391 1554.469727,2068.177490 1558.033569,2068.451172 
	C1558.033569,2087.123291 1558.033569,2105.061523 1558.033569,2125.000000 
M1056.950928,1256.185303 
	C1053.296021,1267.817627 1049.641113,1279.450073 1045.440552,1292.819092 
	C1049.759155,1290.765259 1052.384766,1289.618286 1054.918823,1288.295776 
	C1076.768799,1276.893433 1098.479492,1265.216797 1120.469360,1254.091553 
	C1153.751709,1237.253052 1186.863647,1219.770752 1223.297485,1210.534424 
	C1262.651245,1200.557861 1302.218750,1191.420776 1341.718628,1182.025757 
	C1352.619141,1179.432983 1363.611572,1177.225464 1374.560059,1174.841553 
	C1374.560059,1010.365601 1374.560059,846.898499 1374.560059,682.811218 
	C1359.483643,683.059998 1345.069214,683.357361 1330.083984,685.369934 
	C1330.083984,843.318481 1330.083984,1000.168945 1330.083984,1157.598877 
	C1327.151245,1157.938721 1324.906494,1158.226562 1322.655762,1158.455200 
	C1297.510498,1161.010254 1272.312500,1163.135986 1247.233276,1166.226318 
	C1223.442627,1169.157959 1199.572510,1172.673340 1177.149536,1181.509033 
	C1135.981079,1197.731079 1098.928345,1221.416138 1062.970947,1246.851929 
	C1060.520996,1248.584839 1059.325928,1252.091553 1056.950928,1256.185303 
M628.666016,1169.769165 
	C628.166992,1175.604248 632.530457,1175.698120 636.469788,1176.570435 
	C668.631165,1183.693115 700.801636,1190.777954 732.920776,1198.087769 
	C778.182739,1208.388916 822.226379,1222.115479 863.435120,1244.058228 
	C892.233398,1259.392700 921.330017,1274.167114 950.318359,1289.143433 
	C952.411682,1290.224976 954.708557,1290.912476 958.120850,1292.261597 
	C954.415344,1280.513550 950.750122,1270.516357 948.186462,1260.244263 
	C946.189331,1252.241699 941.730042,1246.942261 935.096802,1242.403198 
	C907.847229,1223.756592 879.551941,1206.919434 850.251709,1191.709595 
	C835.072876,1183.830078 819.172852,1178.076416 802.536804,1174.349121 
	C768.705200,1166.768677 734.340576,1162.898560 699.857727,1159.906616 
	C691.335571,1159.167236 682.812744,1158.435059 673.309204,1157.614990 
	C673.309204,999.743896 673.309204,842.697388 673.309204,684.772095 
	C658.144958,683.997253 644.013916,683.275208 628.656006,682.490479 
	C628.656006,845.034119 628.656006,1006.512268 628.666016,1169.769165 
M2835.517090,1688.115967 
	C2840.242920,1675.355347 2841.043213,1662.133301 2839.820312,1648.753296 
	C2837.289795,1621.066772 2821.479248,1603.081299 2795.307373,1598.421509 
	C2788.464355,1597.203003 2781.416748,1596.661743 2774.459717,1596.633179 
	C2734.518799,1596.468872 2694.576660,1596.477661 2654.635742,1596.626099 
	C2648.009277,1596.650635 2641.314453,1597.210327 2634.775146,1598.281372 
	C2611.523682,1602.090210 2596.178711,1616.253540 2591.958984,1639.635498 
	C2589.919678,1650.934570 2589.352295,1662.912598 2590.605957,1674.309814 
	C2593.547852,1701.053833 2608.816650,1716.135620 2635.273926,1720.378174 
	C2641.154297,1721.321167 2647.175293,1721.758057 2653.134033,1721.779175 
	C2688.748047,1721.905640 2724.362549,1721.851196 2759.977051,1721.835327 
	C2767.964355,1721.831665 2775.984863,1722.187012 2783.932861,1721.603027 
	C2806.497803,1719.945190 2825.456787,1712.222412 2835.517090,1688.115967 
M1135.191406,1264.245972 
	C1117.442871,1272.616333 1105.685913,1287.021973 1094.437988,1304.314087 
	C1098.464966,1303.235840 1101.018066,1302.732300 1103.446411,1301.875244 
	C1147.707275,1286.255493 1191.948730,1270.580200 1236.204224,1254.945312 
	C1256.273926,1247.855103 1276.037720,1239.624756 1296.520142,1234.036743 
	C1331.938599,1224.374268 1368.509521,1221.182129 1404.991577,1217.999023 
	C1413.166382,1217.285767 1421.348877,1216.659546 1429.531250,1215.992920 
	C1429.531250,1051.541504 1429.531250,888.121521 1429.531250,723.769592 
	C1418.364868,724.303650 1407.921387,724.803162 1396.824219,725.333923 
	C1396.824219,757.875671 1396.824341,789.158081 1396.824341,820.440430 
	C1396.824341,851.430054 1396.824341,882.419678 1396.824341,913.409302 
	C1396.824341,944.732117 1396.824341,976.054993 1396.824341,1007.377808 
	C1396.824341,1038.367432 1396.895874,1069.357300 1396.804199,1100.346680 
	C1396.711914,1131.518066 1397.212646,1162.701660 1396.490234,1194.046021 
	C1350.546021,1197.846436 1305.442871,1200.252808 1262.048218,1212.377808 
	C1218.379028,1224.579468 1176.832275,1242.796143 1135.191406,1264.245972 
M863.369690,1261.533447 
	C823.301392,1241.760864 782.504272,1223.517700 739.316956,1211.851440 
	C696.181274,1200.199341 651.479919,1197.988403 606.117676,1193.884277 
	C606.117676,1037.497314 606.117676,881.707275 606.117676,725.381653 
	C594.838135,724.853333 584.652954,724.376282 573.956360,723.875244 
	C573.956360,888.479980 573.956360,1051.922607 573.956360,1215.648682 
	C577.787476,1216.192017 581.034973,1216.769775 584.307434,1217.098145 
	C607.806946,1219.454956 631.356079,1221.386597 654.803528,1224.176025 
	C685.971191,1227.883911 716.171204,1235.238525 745.727905,1246.361206 
	C797.444824,1265.822998 849.749390,1283.723999 901.827576,1302.223145 
	C903.676880,1302.880005 905.737610,1302.941406 908.530640,1303.423950 
	C897.138855,1284.951050 883.480713,1270.816528 863.369690,1261.533447 
z"/>
<path fill="#FDFEFE" opacity="1.000000" stroke="none" 
	d="
M2206.709961,1819.299683 
	C2177.884033,1783.835815 2149.496826,1748.935303 2121.153809,1713.998901 
	C2108.579102,1698.498901 2098.372559,1681.861206 2097.303711,1661.190674 
	C2096.714111,1649.786255 2097.779053,1638.530029 2102.081299,1627.815552 
	C2110.739990,1606.252808 2128.292725,1597.569702 2149.998779,1596.136230 
	C2164.940430,1595.149414 2179.980957,1595.741577 2194.972656,1595.408813 
	C2203.625977,1595.216797 2212.287109,1594.799072 2220.909668,1594.068726 
	C2225.182373,1593.706909 2229.497070,1592.783936 2233.582764,1591.464600 
	C2246.537354,1587.281982 2252.983398,1578.726440 2253.428467,1565.739380 
	C2253.852783,1553.360840 2247.526855,1543.345825 2234.930908,1538.987793 
	C2227.483154,1536.411133 2219.383301,1534.503662 2211.557617,1534.433838 
	C2164.566406,1534.013916 2117.569336,1534.210815 2070.574463,1534.231079 
	C2069.619141,1534.231445 2068.663818,1534.594604 2066.269287,1535.080811 
	C2066.269287,1538.739868 2066.269287,1542.598022 2066.269287,1546.456177 
	C2066.269043,1645.446777 2066.274902,1744.437500 2066.250244,1843.428101 
	C2066.249023,1848.423096 2066.273438,1853.446655 2065.788574,1858.408325 
	C2063.144775,1885.451782 2048.602783,1901.779175 2021.990112,1906.905762 
	C2009.158325,1909.377686 1996.117432,1909.367188 1983.270508,1906.511597 
	C1958.587891,1901.025146 1944.606689,1885.404053 1941.959229,1860.249146 
	C1941.193481,1852.972168 1940.811890,1845.620605 1940.807617,1838.302856 
	C1940.738892,1718.647461 1940.704590,1598.991943 1940.861938,1479.336792 
	C1940.874512,1469.724976 1941.368896,1459.910400 1943.331543,1450.544678 
	C1948.139893,1427.599609 1963.027344,1413.911865 1986.114136,1410.231812 
	C1992.992310,1409.135254 2000.032471,1408.600464 2006.999756,1408.588867 
	C2077.326416,1408.472046 2147.654541,1408.786133 2217.979248,1408.421631 
	C2263.637939,1408.184937 2301.535400,1425.181885 2333.089355,1457.571777 
	C2356.511230,1481.614380 2373.299805,1509.416748 2376.842285,1543.173706 
	C2381.661133,1589.091431 2375.957275,1633.702759 2353.971191,1675.103516 
	C2340.636230,1700.213989 2320.148193,1715.830078 2291.314453,1719.296143 
	C2290.000244,1719.454102 2288.701416,1719.752319 2287.405029,1720.030762 
	C2287.123291,1720.091309 2286.884277,1720.348877 2285.548828,1721.210205 
	C2289.008545,1724.868896 2292.284668,1728.456665 2295.691406,1731.915771 
	C2316.972412,1753.523438 2337.832031,1775.571533 2359.701172,1796.567505 
	C2384.981689,1820.838379 2382.937500,1859.587158 2372.131836,1880.950317 
	C2363.083252,1898.839111 2347.134277,1905.798584 2328.266846,1908.028931 
	C2296.378174,1911.798340 2271.834961,1898.112793 2251.863525,1874.989136 
	C2236.406006,1857.091553 2222.025879,1838.263062 2206.709961,1819.299683 
z"/>
<path fill="#FEFEFE" opacity="1.000000" stroke="none" 
	d="
M621.999023,1784.011963 
	C639.625610,1783.382935 656.313293,1783.407471 672.852722,1781.853638 
	C680.932373,1781.094604 689.068665,1778.151611 696.581116,1774.839966 
	C706.168884,1770.613281 711.330505,1762.432495 711.299194,1751.771851 
	C711.267822,1741.098022 705.811829,1733.389282 696.480896,1728.631104 
	C682.750671,1721.629639 667.755676,1720.395142 652.719727,1720.228882 
	C626.062378,1719.933960 599.391663,1720.458130 572.742920,1719.881958 
	C541.268555,1719.201294 510.366089,1714.767212 480.996979,1702.600586 
	C433.295319,1682.839478 406.887054,1646.798096 399.908447,1596.079590 
	C396.525055,1571.489746 396.798462,1546.948730 401.645782,1522.512573 
	C411.281708,1473.935913 439.817596,1441.510254 485.730286,1423.937622 
	C514.088318,1413.083862 543.771057,1408.734375 573.851990,1408.466553 
	C640.831421,1407.870239 707.819092,1408.146118 774.803223,1408.245972 
	C781.086609,1408.255371 787.480469,1409.014404 793.630310,1410.328003 
	C815.668335,1415.035278 830.153748,1428.211670 833.978210,1450.637329 
	C835.966675,1462.296997 836.662537,1474.648560 835.179077,1486.336792 
	C831.310547,1516.817505 811.949829,1532.894775 779.457947,1533.662109 
	C757.476196,1534.181274 735.471924,1533.747314 713.477722,1533.740112 
	C668.824463,1533.725586 624.171143,1533.672119 579.517944,1533.722900 
	C567.122742,1533.737061 554.926270,1535.323608 543.243713,1539.722900 
	C529.132202,1545.036621 521.833862,1554.105103 522.140259,1565.745605 
	C522.429810,1576.742798 530.094604,1585.162964 544.216797,1589.786011 
	C557.059998,1593.990479 570.375427,1594.523926 583.729797,1594.547119 
	C605.058411,1594.584106 626.391052,1594.298218 647.714783,1594.621948 
	C677.093994,1595.067871 706.277039,1597.497925 734.554626,1606.223145 
	C766.987122,1616.230225 794.698242,1633.045410 813.606018,1662.180786 
	C825.425903,1680.394287 831.880432,1700.556641 834.938965,1721.919556 
	C838.804443,1748.919922 838.311401,1775.787720 831.495422,1802.269043 
	C820.575867,1844.693848 793.897095,1873.393311 753.756653,1890.041016 
	C732.344482,1898.921265 709.911011,1903.801392 686.934998,1905.751587 
	C670.695068,1907.130127 654.345093,1907.685669 638.040955,1907.748779 
	C579.388062,1907.975708 520.733582,1907.898315 462.080109,1907.757568 
	C455.125977,1907.740845 448.085297,1907.129883 441.238007,1905.924072 
	C418.442108,1901.909180 404.553619,1888.259033 399.688263,1865.656006 
	C396.693085,1851.741333 397.021027,1837.805298 400.378204,1824.050293 
	C405.837067,1801.684326 422.251312,1787.574219 446.111328,1786.080566 
	C466.704010,1784.791504 487.388916,1784.793701 508.036530,1784.604736 
	C545.689331,1784.259888 583.344727,1784.196289 621.999023,1784.011963 
z"/>
<path fill="#FEFEFF" opacity="1.000000" stroke="none" 
	d="
M1313.756836,990.000000 
	C1313.756836,1039.631714 1313.756836,1088.263428 1313.756836,1137.952881 
	C1310.018921,1138.522949 1306.592651,1139.309326 1303.130005,1139.532837 
	C1267.231812,1141.851440 1231.611694,1146.268311 1196.147095,1152.361816 
	C1160.405029,1158.503296 1129.271484,1174.458374 1100.745850,1195.919556 
	C1076.800415,1213.934814 1053.490723,1232.795410 1029.899902,1251.281982 
	C1028.098511,1252.693604 1026.298706,1254.107422 1023.592773,1256.230469 
	C1023.208862,1253.183472 1022.709351,1251.067505 1022.708862,1248.951660 
	C1022.671814,1090.329102 1022.678040,931.706604 1022.653015,773.084045 
	C1022.652344,768.694702 1022.800354,764.698547 1026.353271,761.191833 
	C1054.835205,733.079834 1084.028320,705.871887 1117.366577,683.392334 
	C1138.621338,669.060486 1162.325928,662.205200 1187.166870,657.974304 
	C1221.344482,652.153137 1255.782593,649.144714 1290.386719,647.620239 
	C1297.647583,647.300354 1304.880615,646.346497 1311.482178,645.743591 
	C1312.425293,646.817993 1312.654297,647.057739 1312.858398,647.317200 
	C1313.060303,647.573792 1313.401123,647.850037 1313.401367,648.117981 
	C1313.535767,761.745300 1313.646118,875.372681 1313.756836,990.000000 
z"/>
<path fill="#FDFEFE" opacity="1.000000" stroke="none" 
	d="
M1444.530762,1708.594971 
	C1487.488281,1622.389893 1530.120605,1536.856689 1572.763184,1451.328735 
	C1574.248657,1448.349243 1575.801758,1445.401978 1577.381592,1442.470947 
	C1589.539062,1419.916870 1608.591797,1407.997925 1634.053467,1408.174072 
	C1659.193481,1408.348022 1677.734985,1420.652588 1689.428101,1442.893433 
	C1697.330811,1457.924194 1705.010620,1473.075806 1712.570923,1488.282349 
	C1758.673950,1581.011841 1804.867798,1673.696777 1850.656250,1766.581421 
	C1860.805054,1787.168579 1869.935547,1808.297607 1878.661133,1829.536011 
	C1889.325806,1855.494507 1879.438110,1883.818237 1855.578979,1898.864746 
	C1843.294922,1906.611816 1829.812988,1909.173706 1815.544922,1909.152832 
	C1769.903076,1909.085815 1724.260864,1909.129028 1678.618896,1909.129150 
	C1603.659424,1909.129395 1528.699951,1909.117798 1453.740479,1909.139282 
	C1441.304810,1909.142944 1429.158691,1907.944946 1417.844971,1902.125732 
	C1397.443970,1891.632568 1386.740723,1874.468506 1384.369751,1852.164185 
	C1383.765625,1846.480835 1385.036621,1840.083618 1387.190796,1834.714355 
	C1394.749512,1815.874634 1402.727905,1797.183960 1411.185547,1778.729126 
	C1421.865479,1755.425415 1433.171387,1732.408447 1444.530762,1708.594971 
M1564.622803,1747.483276 
	C1559.014771,1759.016846 1553.406616,1770.550537 1547.402710,1782.898193 
	C1605.219604,1782.898193 1661.317627,1782.898193 1719.184570,1782.898193 
	C1690.438721,1723.964600 1662.260986,1666.195801 1633.297607,1606.816406 
	C1609.997681,1654.585815 1587.662720,1700.377075 1564.622803,1747.483276 
z"/>
<path fill="#FFFFFF" opacity="1.000000" stroke="none" 
	d="
M926.250854,713.740112 
	C942.621948,728.960632 958.338318,743.845520 974.336182,758.421387 
	C978.906677,762.585571 980.636597,767.037537 980.562561,773.242798 
	C980.240540,800.226624 980.424438,827.216431 980.424438,854.204102 
	C980.424438,984.144714 980.424438,1114.085327 980.424438,1244.025879 
	C980.424438,1247.578491 980.424438,1251.130981 980.424438,1256.690186 
	C976.467651,1253.431519 974.062378,1251.338745 971.543457,1249.393311 
	C945.721436,1229.449951 920.065735,1209.284912 893.996704,1189.669556 
	C864.600891,1167.550781 831.103333,1154.973267 794.844910,1150.234375 
	C762.871948,1146.055664 730.743042,1143.072144 698.685913,1139.533569 
	C696.075134,1139.245483 693.487488,1138.747437 690.396118,1138.270996 
	C690.396118,974.420959 690.396118,810.972290 690.396118,646.190491 
	C694.276245,646.190491 698.142944,645.934998 701.966675,646.232239 
	C725.507202,648.062317 749.115906,649.356750 772.549438,652.121765 
	C794.653015,654.729919 816.671448,658.394714 838.537048,662.586853 
	C858.454346,666.405396 876.196106,675.762512 892.476929,687.680237 
	C903.756409,695.937012 914.641663,704.732361 926.250854,713.740112 
z"/>
<path fill="#FEFEFF" opacity="1.000000" stroke="none" 
	d="
M2861.820312,1430.423340 
	C2874.864258,1454.299683 2874.805908,1478.390381 2865.542969,1502.423462 
	C2859.031738,1519.317017 2845.174561,1528.512939 2827.793213,1531.772095 
	C2818.700439,1533.477173 2809.278320,1534.036743 2800.002441,1534.057861 
	C2724.028809,1534.231079 2648.054688,1534.155640 2572.080566,1534.155640 
	C2568.450928,1534.155640 2564.821533,1534.155640 2561.384033,1534.155640 
	C2559.122559,1541.637085 2558.240234,1764.612183 2560.398926,1783.455078 
	C2564.056396,1783.455078 2567.909912,1783.455078 2571.763672,1783.455078 
	C2649.403809,1783.455200 2727.043945,1783.396606 2804.683838,1783.544678 
	C2812.623047,1783.559814 2820.700928,1784.099121 2828.471436,1785.629517 
	C2850.775146,1790.021973 2864.134521,1803.942871 2868.836914,1826.037964 
	C2871.640869,1839.212769 2871.763428,1852.597412 2869.019775,1865.750977 
	C2863.736816,1891.075562 2846.746094,1905.513184 2820.007324,1907.891479 
	C2813.713379,1908.451294 2807.360596,1908.524902 2801.034912,1908.527222 
	C2702.068848,1908.564331 2603.102539,1908.559326 2504.136475,1908.535645 
	C2498.475098,1908.534302 2492.804688,1908.448364 2487.153809,1908.130249 
	C2455.260010,1906.334961 2436.212402,1887.469971 2434.120850,1855.605225 
	C2433.815674,1850.956299 2433.839600,1846.280762 2433.839111,1841.617554 
	C2433.825195,1720.325684 2433.824463,1599.033813 2433.841309,1477.741943 
	C2433.842041,1472.745605 2433.818359,1467.734131 2434.169678,1462.755371 
	C2436.474121,1430.098389 2455.529541,1410.885620 2488.190430,1408.244873 
	C2491.836670,1407.950195 2495.515381,1407.979004 2499.178955,1407.982300 
	C2596.810303,1408.076416 2694.441895,1408.134644 2792.072998,1408.362549 
	C2803.707764,1408.389771 2815.408936,1408.746948 2826.956299,1410.044922 
	C2841.054688,1411.629517 2853.019775,1417.836548 2861.820312,1430.423340 
z"/>
<path fill="#FDFEFE" opacity="1.000000" stroke="none" 
	d="
M2286.000000,1977.401001 
	C2309.655762,1977.577881 2332.323486,1977.360474 2354.963867,1978.045166 
	C2376.723145,1978.703125 2397.989014,1982.814575 2418.453857,1990.371948 
	C2461.683838,2006.335938 2489.934814,2036.644897 2504.026855,2080.374512 
	C2512.930908,2108.004639 2515.131348,2136.458008 2514.557373,2165.262207 
	C2514.097412,2188.348877 2511.318359,2211.067139 2504.487549,2233.230469 
	C2488.719238,2284.391357 2454.568115,2316.147217 2403.100342,2329.773438 
	C2383.333252,2335.007080 2363.142822,2337.313232 2342.781982,2337.426514 
	C2295.464600,2337.689941 2248.145020,2337.510742 2200.826172,2337.510742 
	C2199.826416,2337.510742 2198.826416,2337.527588 2197.827148,2337.504883 
	C2170.195068,2336.880127 2156.092529,2323.301025 2154.561279,2295.771729 
	C2154.339600,2291.782715 2154.324463,2287.778564 2154.323975,2283.781250 
	C2154.311035,2199.473877 2154.282227,2115.166504 2154.373047,2030.859253 
	C2154.380615,2023.891113 2154.639648,2016.827026 2155.783691,2009.974731 
	C2158.960205,1990.942261 2170.890625,1979.982178 2190.050781,1977.968018 
	C2194.677490,1977.481567 2199.364746,1977.433472 2204.024658,1977.425171 
	C2231.016357,1977.377197 2258.008301,1977.401489 2286.000000,1977.401001 
M2244.537598,2236.649414 
	C2244.728760,2239.802490 2244.919922,2242.955566 2245.151123,2246.767822 
	C2249.242920,2246.767822 2252.198486,2246.767822 2255.153809,2246.767822 
	C2282.117188,2246.767822 2309.080811,2246.816650 2336.043701,2246.729492 
	C2342.027344,2246.710205 2348.054199,2246.579834 2353.984619,2245.866699 
	C2383.545654,2242.313721 2406.918213,2229.505127 2417.164307,2199.927002 
	C2426.932617,2171.729004 2426.981934,2142.963135 2417.299316,2114.654541 
	C2410.809326,2095.681641 2397.512207,2082.632812 2378.864258,2075.135010 
	C2365.381836,2069.714111 2351.282959,2067.762939 2336.854736,2067.749756 
	C2308.559814,2067.723877 2280.265137,2067.716309 2251.970215,2067.759766 
	C2249.765137,2067.763184 2247.560547,2068.225098 2244.537598,2068.566406 
	C2244.537598,2124.331055 2244.537598,2179.522461 2244.537598,2236.649414 
z"/>
<path fill="#FDFEFE" opacity="1.000000" stroke="none" 
	d="
M1394.123535,2159.963379 
	C1408.129517,2181.969482 1411.398193,2205.850830 1410.968628,2230.504395 
	C1410.841553,2237.795898 1410.006714,2245.148193 1408.723511,2252.334473 
	C1402.080811,2289.531982 1380.178467,2313.739258 1344.893311,2326.244873 
	C1327.495483,2332.410889 1309.490845,2335.643066 1291.070190,2336.138184 
	C1272.426147,2336.639648 1253.770020,2336.809082 1235.118286,2336.883057 
	C1205.799072,2336.999268 1176.476685,2337.113525 1147.160522,2336.789307 
	C1138.574829,2336.694336 1129.779541,2336.031738 1121.480347,2333.997314 
	C1108.029907,2330.700684 1099.120117,2321.380859 1097.031738,2307.803955 
	C1095.490479,2297.784424 1095.422852,2287.099121 1097.120605,2277.122803 
	C1099.714355,2261.880127 1109.940308,2252.662842 1125.275757,2249.775635 
	C1130.153564,2248.857422 1135.181030,2248.359619 1140.144287,2248.326660 
	C1182.454346,2248.045410 1224.765869,2247.997559 1267.075439,2247.672363 
	C1275.716675,2247.605957 1284.437256,2247.236084 1292.960083,2245.944092 
	C1299.090942,2245.014404 1305.486694,2243.257568 1310.830811,2240.224854 
	C1323.949097,2232.780518 1323.823975,2216.309326 1310.916504,2208.475342 
	C1302.717041,2203.498779 1293.390991,2202.155518 1284.011597,2201.980957 
	C1267.358398,2201.671143 1250.680298,2202.205811 1234.045044,2201.555908 
	C1218.437866,2200.946777 1202.803223,2199.819336 1187.308472,2197.892578 
	C1172.025024,2195.991943 1157.486938,2191.039307 1143.900513,2183.598145 
	C1121.382568,2171.265137 1106.601562,2152.625977 1100.019531,2127.928223 
	C1093.108154,2101.995605 1093.092529,2075.764648 1100.287109,2049.906982 
	C1109.222778,2017.792603 1131.114258,1997.867188 1161.976562,1986.961304 
	C1184.604614,1978.965210 1208.151611,1977.053711 1231.851929,1976.908203 
	C1275.496704,1976.640015 1319.144409,1976.785767 1362.790649,1976.890381 
	C1368.094604,1976.903076 1373.480347,1977.279663 1378.683960,1978.256104 
	C1394.590820,1981.240967 1405.784546,1990.238647 1408.484985,2006.495239 
	C1410.143921,2016.482666 1410.402222,2027.174438 1408.762207,2037.133667 
	C1405.925781,2054.358398 1395.130737,2064.240234 1377.694702,2066.131592 
	C1364.175415,2067.598145 1350.443726,2067.387451 1336.805176,2067.421875 
	C1300.824097,2067.512207 1264.841309,2067.151367 1228.861938,2067.392090 
	C1220.609009,2067.447021 1212.286621,2068.777588 1204.154541,2070.343018 
	C1200.048950,2071.133545 1195.906982,2073.212158 1192.457764,2075.661133 
	C1181.399536,2083.511963 1181.871948,2097.949707 1193.848999,2104.335449 
	C1199.832764,2107.525635 1207.003418,2109.591797 1213.767700,2109.999512 
	C1230.703979,2111.020020 1247.726318,2110.506592 1264.692383,2111.168701 
	C1280.980469,2111.803955 1297.312622,2112.511963 1313.493896,2114.347900 
	C1330.123413,2116.235107 1346.011719,2121.283936 1360.792358,2129.450928 
	C1374.147827,2136.830811 1385.372314,2146.506592 1394.123535,2159.963379 
z"/>
<path fill="#FEFEFF" opacity="1.000000" stroke="none" 
	d="
M1204.388672,1453.205322 
	C1208.920898,1428.098877 1224.216309,1409.493530 1259.017090,1407.840454 
	C1264.002441,1407.603516 1269.019775,1407.638428 1274.005981,1407.883301 
	C1305.792358,1409.443726 1325.276733,1428.036865 1327.825439,1459.814209 
	C1328.702759,1470.752563 1328.454956,1481.793823 1328.452637,1492.788086 
	C1328.441650,1544.116699 1328.325806,1595.445435 1328.268433,1646.774048 
	C1328.195557,1712.101929 1328.188721,1777.429932 1328.015137,1842.757568 
	C1327.996582,1849.721313 1327.660889,1856.791382 1326.434082,1863.625854 
	C1321.874023,1889.029907 1307.879639,1903.613159 1282.354492,1907.063477 
	C1270.029785,1908.729492 1256.938110,1908.309082 1244.679932,1906.116333 
	C1220.649170,1901.817505 1206.977173,1885.896362 1204.094971,1861.735229 
	C1203.465332,1856.456543 1203.288696,1851.097900 1203.279297,1845.775391 
	C1203.212524,1808.111328 1203.243774,1770.447021 1203.243652,1732.782837 
	C1203.243652,1729.170410 1203.243652,1725.558105 1203.243652,1721.277344 
	C1199.947021,1720.989502 1197.431641,1720.568237 1194.918579,1720.581787 
	C1168.927246,1720.722046 1142.933594,1721.216553 1116.946411,1720.978516 
	C1107.019897,1720.887451 1096.912354,1720.075439 1087.230591,1717.994873 
	C1066.774048,1713.598999 1054.041748,1700.511353 1048.898193,1680.245850 
	C1045.224609,1665.772583 1045.121704,1651.170166 1048.752197,1636.692871 
	C1054.300415,1614.567871 1068.986694,1602.049561 1091.073730,1598.158081 
	C1098.575439,1596.836426 1106.295410,1596.366089 1113.927490,1596.243042 
	C1140.918213,1595.808105 1167.914062,1595.702026 1194.907715,1595.437012 
	C1197.188721,1595.414551 1199.467407,1595.139771 1202.752197,1594.912842 
	C1202.923706,1591.114868 1203.219360,1587.570435 1203.222656,1584.025635 
	C1203.256958,1547.694580 1203.191772,1511.363525 1203.289062,1475.032715 
	C1203.307861,1468.046631 1203.912842,1461.062134 1204.388672,1453.205322 
z"/>
<path fill="#FDFEFE" opacity="1.000000" stroke="none" 
	d="
M2107.186523,2225.001221 
	C2101.314941,2249.424072 2092.165283,2271.393066 2076.463135,2290.249756 
	C2058.514893,2311.802979 2035.317261,2324.936279 2008.388550,2331.423828 
	C1975.190308,2339.422119 1941.750366,2339.768555 1908.328003,2332.497559 
	C1857.759033,2321.497070 1825.796509,2290.292480 1810.031250,2241.629150 
	C1801.103149,2214.070557 1798.432983,2185.602051 1798.311279,2156.848389 
	C1798.126709,2113.194092 1798.191406,2069.538574 1798.341064,2025.884033 
	C1798.362549,2019.594238 1798.901978,2013.197144 1800.151123,2007.042480 
	C1803.046753,1992.776001 1811.607056,1983.269409 1825.735474,1979.162109 
	C1837.871216,1975.634155 1850.072388,1975.641479 1862.198853,1979.191895 
	C1877.776489,1983.752686 1885.588989,1994.904541 1887.842529,2010.377808 
	C1888.510864,2014.966553 1888.461426,2019.683960 1888.458496,2024.342285 
	C1888.431641,2067.329346 1888.329468,2110.316650 1888.278687,2153.303711 
	C1888.259766,2169.352051 1889.507812,2185.263916 1894.042480,2200.755127 
	C1906.196533,2242.274902 1951.127686,2260.830811 1989.447754,2240.226074 
	C2001.426147,2233.785400 2009.470825,2223.911377 2014.745117,2211.597656 
	C2021.968384,2194.733154 2023.897217,2176.907471 2023.928833,2158.805664 
	C2024.005737,2114.817627 2023.869873,2070.829102 2024.045532,2026.841553 
	C2024.073242,2019.898071 2024.579712,2012.804565 2026.079102,2006.049805 
	C2029.526367,1990.519165 2039.546265,1980.801270 2055.176025,1978.181885 
	C2063.232666,1976.831787 2071.826660,1976.507324 2079.875977,1977.721313 
	C2100.514404,1980.834106 2111.547607,1993.103149 2113.724609,2013.774292 
	C2114.177002,2018.067871 2114.111328,2022.426514 2114.114014,2026.755371 
	C2114.140381,2069.410645 2114.003174,2112.066162 2114.181152,2154.720703 
	C2114.279053,2178.134766 2112.406982,2201.306641 2107.186523,2225.001221 
z"/>
<path fill="#FDFEFE" opacity="1.000000" stroke="none" 
	d="
M1016.047302,1512.000000 
	C1015.994141,1621.630615 1015.964600,1730.261230 1015.832703,1838.891724 
	C1015.824219,1845.863159 1015.508545,1852.903931 1014.507751,1859.792114 
	C1010.444885,1887.755005 995.221313,1903.757446 967.296997,1907.252197 
	C955.614136,1908.714355 943.235657,1908.054321 931.623779,1905.914917 
	C909.183716,1901.780396 896.372437,1886.904419 892.312500,1864.731567 
	C890.941650,1857.244751 890.438721,1849.502686 890.431641,1841.876465 
	C890.318665,1719.916016 890.325500,1597.955566 890.414429,1475.994995 
	C890.419495,1469.028076 890.975342,1462.007324 891.942383,1455.105103 
	C895.420532,1430.279663 910.118469,1414.892822 934.564636,1409.812012 
	C947.830383,1407.054810 961.075623,1407.132202 974.217041,1410.167725 
	C996.226868,1415.251709 1009.945251,1428.852783 1013.998108,1451.191528 
	C1015.531555,1459.643677 1015.727478,1468.386841 1015.969482,1477.013062 
	C1016.286987,1488.333862 1016.047302,1499.670288 1016.047302,1512.000000 
z"/>
<path fill="#FDFEFE" opacity="1.000000" stroke="none" 
	d="
M2753.564453,2029.549561 
	C2764.675781,2016.629517 2775.134521,2004.080078 2786.025391,1991.917480 
	C2801.537598,1974.592896 2831.760010,1969.879639 2852.007080,1981.265869 
	C2860.263672,1985.909302 2865.809814,1992.784302 2868.228027,2001.910889 
	C2873.779297,2022.861084 2869.255127,2041.356445 2854.618164,2057.493896 
	C2842.086670,2071.309814 2829.716309,2085.277588 2817.524902,2099.394531 
	C2798.138916,2121.842041 2779.058105,2144.553955 2759.612305,2166.948975 
	C2755.850342,2171.281494 2754.319336,2175.673096 2754.338135,2181.354980 
	C2754.456299,2217.014648 2754.406006,2252.676025 2754.121582,2288.334473 
	C2754.066406,2295.267578 2753.448730,2302.360596 2751.843994,2309.082275 
	C2748.641602,2322.497803 2739.787109,2331.047607 2726.565918,2334.896729 
	C2715.133545,2338.225098 2703.524658,2338.628906 2692.009033,2335.557373 
	C2677.243408,2331.618652 2668.938477,2321.384033 2666.265625,2306.741211 
	C2664.958252,2299.578125 2664.550293,2292.174316 2664.488525,2284.873047 
	C2664.194336,2250.215088 2664.024170,2215.554688 2664.160156,2180.896240 
	C2664.184082,2174.809570 2662.487793,2170.218750 2658.580078,2165.594971 
	C2631.906006,2134.033691 2605.507568,2102.239990 2578.924561,2070.601807 
	C2575.290283,2066.276611 2571.082764,2062.437256 2567.213135,2058.305420 
	C2553.117188,2043.252930 2548.781250,2025.533691 2553.106934,2005.579590 
	C2555.963623,1992.403442 2564.061035,1983.723267 2576.755127,1979.489014 
	C2590.480225,1974.910522 2604.251709,1975.237793 2617.972168,1979.774902 
	C2625.215820,1982.170166 2630.691406,1986.972900 2635.488770,1992.608643 
	C2656.225098,2016.968750 2676.895020,2041.385742 2697.572021,2065.796631 
	C2701.624268,2070.580811 2705.600586,2075.429932 2710.407227,2081.205078 
	C2725.081543,2063.638672 2739.093018,2046.865723 2753.564453,2029.549561 
z"/>
<path fill="#FDFEFE" opacity="1.000000" stroke="none" 
	d="
M1558.033569,2124.000000 
	C1558.033569,2105.061523 1558.033569,2087.123291 1558.033569,2068.451172 
	C1554.469727,2068.177490 1551.603516,2067.775391 1548.735840,2067.766357 
	C1530.408813,2067.708008 1512.079834,2067.870850 1493.755005,2067.657959 
	C1487.792114,2067.588623 1481.738159,2067.119629 1475.902100,2065.952637 
	C1461.169189,2063.006104 1451.580566,2054.168945 1447.778198,2039.480713 
	C1444.885620,2028.307129 1444.967773,2017.073486 1447.695068,2005.870361 
	C1451.391357,1990.686890 1461.330811,1981.756714 1476.245483,1978.434448 
	C1482.043213,1977.142944 1488.127686,1976.634155 1494.082153,1976.630493 
	C1553.393677,1976.594360 1612.705200,1976.704712 1672.016602,1976.854248 
	C1687.004395,1976.892090 1701.993286,1977.127197 1716.978516,1977.428833 
	C1747.032837,1978.033691 1760.686157,1992.101074 1760.321899,2022.295288 
	C1760.258179,2027.573120 1759.569702,2032.949951 1758.353516,2038.087646 
	C1754.670410,2053.645264 1744.406372,2062.760254 1728.995361,2065.880859 
	C1722.840576,2067.127197 1716.444336,2067.571777 1710.148315,2067.656006 
	C1692.823975,2067.887939 1675.494263,2067.736816 1658.166748,2067.737305 
	C1655.215454,2067.737305 1652.264038,2067.737061 1647.890991,2067.737061 
	C1647.890991,2072.268799 1647.888428,2076.130859 1647.891357,2079.992920 
	C1647.943726,2148.969482 1648.051514,2217.945801 1647.966431,2286.922363 
	C1647.957886,2293.865479 1647.433228,2300.942383 1646.018311,2307.721436 
	C1643.027222,2322.054199 1633.869751,2331.102295 1619.864746,2335.103516 
	C1608.396484,2338.380127 1596.795166,2338.349854 1585.302979,2335.270508 
	C1569.738159,2331.099609 1560.388062,2319.855713 1558.373535,2302.916992 
	C1557.825073,2298.304688 1557.889282,2293.603760 1557.891235,2288.943604 
	C1557.914551,2234.295654 1557.979614,2179.647949 1558.033569,2124.000000 
z"/>
<path fill="#F8FBFD" opacity="1.000000" stroke="none" 
	d="
M1057.249146,1255.479248 
	C1059.325928,1252.091553 1060.520996,1248.584839 1062.970947,1246.851929 
	C1098.928345,1221.416138 1135.981079,1197.731079 1177.149536,1181.509033 
	C1199.572510,1172.673340 1223.442627,1169.157959 1247.233276,1166.226318 
	C1272.312500,1163.135986 1297.510498,1161.010254 1322.655762,1158.455200 
	C1324.906494,1158.226562 1327.151245,1157.938721 1330.083984,1157.598877 
	C1330.083984,1000.168945 1330.083984,843.318481 1330.083984,685.369934 
	C1345.069214,683.357361 1359.483643,683.059998 1374.560059,682.811218 
	C1374.560059,846.898499 1374.560059,1010.365601 1374.560059,1174.841553 
	C1363.611572,1177.225464 1352.619141,1179.432983 1341.718628,1182.025757 
	C1302.218750,1191.420776 1262.651245,1200.557861 1223.297485,1210.534424 
	C1186.863647,1219.770752 1153.751709,1237.253052 1120.469360,1254.091553 
	C1098.479492,1265.216797 1076.768799,1276.893433 1054.918823,1288.295776 
	C1052.384766,1289.618286 1049.759155,1290.765259 1045.440552,1292.819092 
	C1049.641113,1279.450073 1053.296021,1267.817627 1057.249146,1255.479248 
z"/>
<path fill="#F8FBFD" opacity="1.000000" stroke="none" 
	d="
M628.661011,1168.879883 
	C628.656006,1006.512268 628.656006,845.034119 628.656006,682.490479 
	C644.013916,683.275208 658.144958,683.997253 673.309204,684.772095 
	C673.309204,842.697388 673.309204,999.743896 673.309204,1157.614990 
	C682.812744,1158.435059 691.335571,1159.167236 699.857727,1159.906616 
	C734.340576,1162.898560 768.705200,1166.768677 802.536804,1174.349121 
	C819.172852,1178.076416 835.072876,1183.830078 850.251709,1191.709595 
	C879.551941,1206.919434 907.847229,1223.756592 935.096802,1242.403198 
	C941.730042,1246.942261 946.189331,1252.241699 948.186462,1260.244263 
	C950.750122,1270.516357 954.415344,1280.513550 958.120850,1292.261597 
	C954.708557,1290.912476 952.411682,1290.224976 950.318359,1289.143433 
	C921.330017,1274.167114 892.233398,1259.392700 863.435120,1244.058228 
	C822.226379,1222.115479 778.182739,1208.388916 732.920776,1198.087769 
	C700.801636,1190.777954 668.631165,1183.693115 636.469788,1176.570435 
	C632.530457,1175.698120 628.166992,1175.604248 628.661011,1168.879883 
z"/>
<path fill="#FDFEFE" opacity="1.000000" stroke="none" 
	d="
M2835.194580,1688.821045 
	C2825.456787,1712.222412 2806.497803,1719.945190 2783.932861,1721.603027 
	C2775.984863,1722.187012 2767.964355,1721.831665 2759.977051,1721.835327 
	C2724.362549,1721.851196 2688.748047,1721.905640 2653.134033,1721.779175 
	C2647.175293,1721.758057 2641.154297,1721.321167 2635.273926,1720.378174 
	C2608.816650,1716.135620 2593.547852,1701.053833 2590.605957,1674.309814 
	C2589.352295,1662.912598 2589.919678,1650.934570 2591.958984,1639.635498 
	C2596.178711,1616.253540 2611.523682,1602.090210 2634.775146,1598.281372 
	C2641.314453,1597.210327 2648.009277,1596.650635 2654.635742,1596.626099 
	C2694.576660,1596.477661 2734.518799,1596.468872 2774.459717,1596.633179 
	C2781.416748,1596.661743 2788.464355,1597.203003 2795.307373,1598.421509 
	C2821.479248,1603.081299 2837.289795,1621.066772 2839.820312,1648.753296 
	C2841.043213,1662.133301 2840.242920,1675.355347 2835.194580,1688.821045 
z"/>
<path fill="#F8FBFC" opacity="1.000000" stroke="none" 
	d="
M1135.841553,1263.912109 
	C1176.832275,1242.796143 1218.379028,1224.579468 1262.048218,1212.377808 
	C1305.442871,1200.252808 1350.546021,1197.846436 1396.490234,1194.046021 
	C1397.212646,1162.701660 1396.711914,1131.518066 1396.804199,1100.346680 
	C1396.895874,1069.357300 1396.824341,1038.367432 1396.824341,1007.377808 
	C1396.824341,976.054993 1396.824341,944.732117 1396.824341,913.409302 
	C1396.824341,882.419678 1396.824341,851.430054 1396.824341,820.440430 
	C1396.824341,789.158081 1396.824219,757.875671 1396.824219,725.333923 
	C1407.921387,724.803162 1418.364868,724.303650 1429.531250,723.769592 
	C1429.531250,888.121521 1429.531250,1051.541504 1429.531250,1215.992920 
	C1421.348877,1216.659546 1413.166382,1217.285767 1404.991577,1217.999023 
	C1368.509521,1221.182129 1331.938599,1224.374268 1296.520142,1234.036743 
	C1276.037720,1239.624756 1256.273926,1247.855103 1236.204224,1254.945312 
	C1191.948730,1270.580200 1147.707275,1286.255493 1103.446411,1301.875244 
	C1101.018066,1302.732300 1098.464966,1303.235840 1094.437988,1304.314087 
	C1105.685913,1287.021973 1117.442871,1272.616333 1135.841553,1263.912109 
z"/>
<path fill="#FDFEFE" opacity="1.000000" stroke="none" 
	d="
M864.038208,1261.851318 
	C883.480713,1270.816528 897.138855,1284.951050 908.530640,1303.423950 
	C905.737610,1302.941406 903.676880,1302.880005 901.827576,1302.223145 
	C849.749390,1283.723999 797.444824,1265.822998 745.727905,1246.361206 
	C716.171204,1235.238525 685.971191,1227.883911 654.803528,1224.176025 
	C631.356079,1221.386597 607.806946,1219.454956 584.307434,1217.098145 
	C581.034973,1216.769775 577.787476,1216.192017 573.956360,1215.648682 
	C573.956360,1051.922607 573.956360,888.479980 573.956360,723.875244 
	C584.652954,724.376282 594.838135,724.853333 606.117676,725.381653 
	C606.117676,881.707275 606.117676,1037.497314 606.117676,1193.884277 
	C651.479919,1197.988403 696.181274,1200.199341 739.316956,1211.851440 
	C782.504272,1223.517700 823.301392,1241.760864 864.038208,1261.851318 
z"/>
<path fill="#1A85AD" opacity="1.000000" stroke="none" 
	d="
M1564.975220,1746.825806 
	C1587.662720,1700.377075 1609.997681,1654.585815 1633.297607,1606.816406 
	C1662.260986,1666.195801 1690.438721,1723.964600 1719.184570,1782.898193 
	C1661.317627,1782.898193 1605.219604,1782.898193 1547.402710,1782.898193 
	C1553.406616,1770.550537 1559.014771,1759.016846 1564.975220,1746.825806 
z"/>
<path fill="#1884AD" opacity="1.000000" stroke="none" 
	d="
M2244.537598,2235.681641 
	C2244.537598,2179.522461 2244.537598,2124.331055 2244.537598,2068.566406 
	C2247.560547,2068.225098 2249.765137,2067.763184 2251.970215,2067.759766 
	C2280.265137,2067.716309 2308.559814,2067.723877 2336.854736,2067.749756 
	C2351.282959,2067.762939 2365.381836,2069.714111 2378.864258,2075.135010 
	C2397.512207,2082.632812 2410.809326,2095.681641 2417.299316,2114.654541 
	C2426.981934,2142.963135 2426.932617,2171.729004 2417.164307,2199.927002 
	C2406.918213,2229.505127 2383.545654,2242.313721 2353.984619,2245.866699 
	C2348.054199,2246.579834 2342.027344,2246.710205 2336.043701,2246.729492 
	C2309.080811,2246.816650 2282.117188,2246.767822 2255.153809,2246.767822 
	C2252.198486,2246.767822 2249.242920,2246.767822 2245.151123,2246.767822 
	C2244.919922,2242.955566 2244.728760,2239.802490 2244.537598,2235.681641 
z"/>
</svg>
