<svg width="100%" viewBox="0 0 3264 3264" height="150" xmlns:v="https://vecta.io/nano"><path fill="#fafbfc" d="M2514.51 299.5c34.32 23.47 67.86 46.76 99.46 72.71 20.41 16.76 41.32 32.94 61.17 50.34a1450 1450 0 0 1 63.92 59.35c24.22 23.96 47.68 48.72 70.97 73.59 11.16 11.92 21.15 24.95 31.73 37.42 5.73 6.74 11.84 13.17 17.35 20.08 8.17 10.25 15.99 20.79 23.91 31.23 10.03 13.23 20.31 26.29 29.97 39.78l40.72 58.7c10.4 15.76 19.91 32.12 29.52 48.38 6.65 11.25 12.04 23.31 19.39 34.06 7.24 10.6 12.73 21.98 18.5 33.31 2.21 4.34 5.19 8.3 7.32 12.68l23.77 49.62c3.71 7.53 8.15 14.7 12.26 22.04.49.87 1.09 1.69 1.45 2.61l14.96 37.67c2.25 5.44 5.35 10.53 7.79 15.9 2.05 4.51 3.72 9.2 5.51 13.82 20.3 52.27 39.7 104.89 56.32 158.43 5.95 19.18 13.68 38.05 17.29 57.67 2.55 13.87 9.37 26.54 9.86 40.79.08 2.21 1.57 4.35 2.22 6.57 3.66 12.58 7.51 25.07 8.25 38.36.36 6.47 2.48 12.87 4.03 19.25l6.15 23.86c1.45 6.07 2.7 12.2 3.74 18.35l5.99 37.94 6.53 51.57c2.29 19.14 4.9 38.26 6.47 57.46 1.52 18.47 1.89 37.03 2.77 55.55.58 12.3 1.61 24.6 1.67 36.9l-.61 67.74-2.93 74.83c-.72 13.48-2.44 26.91-3.76 40.35l-4.27 41.33-13.16 85.98c-3.6 21.15-7.69 42.26-12.66 63.12-7.11 29.84-15.26 59.43-22.9 89.14-8.65 33.62-20.08 66.36-31.96 98.92-8.96 24.57-18.27 49.05-28.44 73.14-17.78 42.11-36.82 83.6-58.47 123.97-14.86 27.71-30.57 54.88-46.44 81.97-12.05 20.57-25.35 40.43-38.76 60.15-12.33 18.13-26.04 35.32-38.26 53.51-25.22 37.56-54.12 72.19-84.28 105.7-26.62 29.57-54.52 58.02-82.45 86.39-16.58 16.84-33.95 32.95-51.59 48.67-16.09 14.34-32.75 28.07-49.67 41.43-25.24 19.93-50.47 39.94-76.57 58.72-25.91 18.64-51.85 37.31-79.56 53.35-16.05 9.29-31.41 19.77-47.16 29.6-4.72 2.95-9.62 5.61-14.54 8.22-13.89 7.37-28.09 14.2-41.69 22.08-16.25 9.42-33.7 16.26-50.26 24.85-7.97 4.14-18.04 4.94-23.98 12.94-.33.44-1.22.45-1.84.7l-43.27 17.38-42.39 18.62a467.6 467.6 0 0 1-28.83 11.02l-123.42 42.43c-16.18 5.54-33.16 8.12-49.52 13.29-8.31 2.63-17.02 4.99-25.59 7.31-10.5 2.84-20.85 6.89-31.54 8.22-19.12 2.37-37.29 8.47-56.02 12.25-20.09 4.05-40.27 7.65-60.46 11.13-12.21 2.1-24.48 3.91-36.79 5.31l-55.47 5.54-62.93 4.83c-32.83 2.45-65.73 2.8-98.62 2.56-25.24-.18-50.52-.87-75.7-2.61-34.58-2.38-69.17-5.18-103.59-9.26-30.99-3.67-61.81-8.91-92.58-14.22-25.08-4.33-50.15-9-74.88-14.97a1613.2 1613.2 0 0 1-86.81-23.74 1473.2 1473.2 0 0 1-81.61-27.09c-32.26-11.82-64.39-24.13-95.95-37.69-29.45-12.65-58.38-26.62-86.98-41.12-23.9-12.11-47.23-25.42-70.37-38.94-25.45-14.87-50.68-30.16-75.48-46.08-19.18-12.32-37.91-25.42-56.21-39.03-26.24-19.52-52.23-39.42-77.71-59.91-17.91-14.41-35.18-29.67-52.07-45.29-24.77-22.91-49.64-45.79-73.19-69.92-25.93-26.57-51.31-53.76-74.69-82.68-15.86-19.62-31.97-39.07-47.24-59.15-13.43-17.66-25.85-36.1-38.73-54.18-8.13-11.42-16.72-22.54-24.32-34.29-9.38-14.5-17.86-29.58-26.9-44.31-6.47-10.54-13.56-20.72-19.76-31.42-5.91-10.21-10.89-20.95-16.5-31.33-4.61-8.52-9.68-16.78-14.3-25.29-4.21-7.75-8.23-15.61-12.07-23.55l-20.28-42.74-17.72-39.64c-2.81-6.68-4.63-13.55-9.13-19.68-3.6-4.91-4.9-11.53-7.09-17.45l-29.51-80.23c-10.42-29.43-21.2-58.79-30.01-88.72-4.57-15.54-11.32-30.7-13.7-46.52-2.12-14.15-9.45-26.83-9.68-41.23-.03-1.58-1.09-3.12-1.5-4.72-4.42-17.18-10.19-34.16-12.78-51.62-2.35-15.81-7.44-30.92-9.5-46.73-1.88-14.42-6.1-28.61-7.08-43.05-.97-14.32-4.87-28.13-5.4-42.48-.5-13.38-2.25-26.71-3.63-40.04-.67-6.49-2.13-12.91-2.61-19.41-1.41-19.15-3.16-38.32-3.61-57.5-.9-38.79-1.93-77.61-1.19-116.38.63-32.85 2.86-65.72 5.89-98.45 2.91-31.48 7.35-62.85 11.89-94.15 3.03-20.88 8.04-41.48 10.99-62.37 3.4-24.02 9.94-47.28 15.69-70.72a2197.6 2197.6 0 0 1 21.64-81.47c4.91-17.15 11-33.98 16.91-50.83 8.06-22.99 15.9-46.08 24.87-68.72 9.35-23.61 19.74-46.81 30.02-70.04 7.63-17.25 15.1-34.64 23.91-51.29 15.01-28.38 28.34-57.65 45.68-84.82 14.07-22.04 26.57-45.09 40.69-67.09 13.02-20.3 27.21-39.87 41.01-59.67l21.81-30.24c12.93-16.82 25.83-33.7 39.45-49.96 18.46-22.02 37.09-43.95 56.59-65.06 22.39-24.24 45.57-47.77 68.88-71.14 14.19-14.22 29.17-27.66 43.99-41.24 6.75-6.18 13.95-11.87 20.96-17.76l36.87-30.83 52.39-40.38c11.28-8.39 23.18-15.96 34.74-23.97 12.78-8.85 25.19-18.28 38.31-26.59l68.4-41.76c12.09-7.18 25.24-12.68 36.86-20.49 12.05-8.11 24.68-14.59 37.94-20.28 7.79-3.35 14.88-8.28 22.44-12.19 6.98-3.61 14.19-6.79 21.29-10.17 5.03-2.4 9.82-5.76 15.12-7.03 12.12-2.9 21.93-10.55 33.26-14.92 19.42-7.5 39.21-14.13 58.3-22.37 46.08-19.9 94.35-33.53 141.49-50.41 18.01-6.45 36.54-11.49 54.9-16.95 8.82-2.62 17.74-4.97 26.71-7l36.53-7.6 21.14-4.82c8.32-2.08 16.49-4.77 24.87-6.52 12.55-2.63 25.2-4.81 37.84-6.94l47.35-7.48c16.83-2.16 33.78-3.41 50.66-5.24 7.14-.78 14.19-2.3 21.34-3l45.52-3.92 44.86-2.68 48.51-1.34a828.4 828.4 0 0 1 39.26.55c16.93.62 33.87 2.67 50.76 2.3 28.48-.62 56.47 4.48 84.76 5.76 12.12.55 24.17 2.78 36.22 4.44l45.95 6.7c22.18 3.72 44.4 7.32 66.39 11.98 25.43 5.4 50.73 11.53 75.91 18.02 23.92 6.17 47.78 12.71 71.38 20.03a2118.4 2118.4 0 0 1 81.84 27.28c18.39 6.53 36.48 13.99 54.41 21.72l83.41 37.18c11.37 5.23 22.18 11.66 33.29 17.47 10.25 5.36 20.69 10.37 30.79 15.98l48.95 28.05 46.3 28.67 23.98 15.33m-1490.94-95.1c-32.92 15.31-66.22 29.88-98.68 46.11-46.81 23.4-91.77 50.2-135.66 78.65-70 45.37-135.94 96.11-197.67 152.26-55.31 50.3-106.81 104.22-154.38 161.91-29.7 36.02-57.82 73.26-84.13 111.79-33.09 48.45-64.27 98.18-90.62 150.68-19.27 38.4-38.54 76.9-55.5 116.35-27.8 64.64-50.86 131.08-69.24 199.06-16.28 60.19-29.38 121.04-38.46 182.77-6.21 42.22-10.88 84.6-13.5 127.16-2.6 42.22-4.41 84.52-2.6 126.85 1.55 36.27 2.17 72.64 5.39 108.78 5.2 58.41 12.85 116.6 25.62 173.89 9.42 42.25 19.09 84.54 31.12 126.1 16.3 56.33 35.3 111.88 59.09 165.58 16.46 37.15 33.16 74.26 51.56 110.47 34 66.91 73.29 130.75 117.19 191.62 50.55 70.09 106.1 135.97 167.7 196.72 30.16 29.74 61.23 58.48 93.6 85.7 52.58 44.21 107.75 84.99 165.83 121.81 49.31 31.27 100.05 60.01 152.46 85.63 53.01 25.92 107.47 48.54 163.17 68.16 64.83 22.84 130.67 42.15 197.97 56.06 55.8 11.54 112.15 19.95 168.9 25.57 44.47 4.41 89.07 7.1 133.7 7.33 53.62.28 107.26-1.11 160.67-6.79 23.18-2.47 46.49-4.07 69.55-7.35 38.24-5.45 76.43-11.47 113.94-20.9 44.25-11.14 88.78-21.43 132.37-34.77 41.68-12.75 82.77-27.78 123.3-43.88 67.89-26.96 133.65-58.7 196.66-95.7 49.98-29.35 98.37-61.25 144.86-95.96 38.45-28.71 75.76-58.82 111.42-90.93 58.53-52.7 112.97-109.35 163.26-169.98 45.19-54.48 85.6-112.41 122.77-172.53 30.67-49.62 58.42-100.89 83.02-153.88 31.77-68.43 58.78-138.61 80.66-210.81 13.64-45 25.3-90.52 34.31-136.63 6.96-35.62 12.17-71.58 17.85-107.44 7.51-47.46 10.83-95.33 12.61-143.29s2.25-95.97-1.35-143.86l-11.33-122.34c-5.1-41.98-12.96-83.57-21.92-124.95-12.85-59.36-29.25-117.71-49.04-175.07-18.81-54.51-40.76-107.77-65.53-159.9-29.94-63.01-63.96-123.7-102.03-182.08a1518.5 1518.5 0 0 0-100.48-136.84c-48.85-59.23-101.55-114.72-158.55-166.15a1534.5 1534.5 0 0 0-161.55-127.44c-49.24-33.69-100.24-64.58-153.03-92.56-82.99-43.98-169.15-80.36-258.71-108.4-76.08-23.82-153.55-42.11-232.47-53.97-60.36-9.06-121-14.96-182-16.89-70.35-2.22-140.56-.14-210.58 7.42-50.03 5.41-99.83 12.17-149.12 22.51-52.85 11.09-105.32 23.63-156.75 40.27-48.84 15.8-97.38 32.4-145.66 54.11z"/><path fill="#1783ac" d="M1024.26 204.08c47.58-21.39 96.12-37.98 144.96-53.79 51.42-16.64 103.89-29.18 156.75-40.27 49.28-10.34 99.09-17.1 149.12-22.51 70.02-7.57 140.23-9.65 210.58-7.42 61 1.93 121.65 7.82 182 16.89 78.92 11.85 156.39 30.14 232.47 53.97 89.56 28.05 175.73 64.42 258.71 108.4 52.79 27.98 103.79 58.87 153.03 92.56a1534.5 1534.5 0 0 1 161.55 127.44c57.01 51.44 109.71 106.93 158.55 166.15a1518.5 1518.5 0 0 1 100.48 136.84c38.07 58.38 72.1 119.06 102.03 182.08 24.77 52.14 46.72 105.4 65.53 159.9 19.79 57.36 36.19 115.71 49.04 175.07 8.96 41.38 16.82 82.97 21.92 124.95 4.94 40.64 8.27 81.5 11.33 122.34 3.59 47.89 3.13 95.9 1.35 143.86s-5.09 95.83-12.61 143.29c-5.68 35.86-10.89 71.82-17.85 107.44-9.01 46.11-20.67 91.63-34.31 136.63-21.89 72.19-48.89 142.38-80.66 210.81-24.6 52.98-52.35 104.26-83.02 153.88-37.17 60.12-77.58 118.05-122.77 172.53-50.29 60.63-104.73 117.28-163.26 169.98-35.66 32.11-72.96 62.23-111.42 90.93-46.49 34.71-94.88 66.61-144.86 95.96-63.01 37-128.77 68.74-196.66 95.7-40.53 16.09-81.62 31.12-123.3 43.88-43.59 13.34-88.13 23.63-132.37 34.77-37.5 9.44-75.7 15.45-113.94 20.9-23.06 3.29-46.37 4.89-69.55 7.35-53.41 5.68-107.05 7.07-160.67 6.79-44.63-.23-89.23-2.92-133.7-7.33-56.75-5.62-113.09-14.04-168.9-25.57-67.29-13.91-133.13-33.22-197.97-56.06-55.71-19.62-110.16-42.24-163.17-68.16-52.41-25.63-103.14-54.37-152.46-85.63-58.08-36.83-113.26-77.6-165.83-121.81-32.37-27.22-63.45-55.96-93.6-85.7-61.6-60.75-117.15-126.62-167.7-196.72-43.9-60.88-83.19-124.72-117.19-191.62-18.4-36.21-35.1-73.32-51.56-110.47-23.79-53.69-42.78-109.25-59.09-165.58-12.03-41.56-21.7-83.84-31.12-126.1-12.78-57.29-20.42-115.48-25.62-173.89-3.22-36.13-3.83-72.5-5.39-108.78-1.81-42.33-.01-84.63 2.6-126.85 2.62-42.55 7.29-84.93 13.5-127.16 9.08-61.73 22.18-122.58 38.46-182.77 18.39-67.98 41.45-134.42 69.24-199.06 16.96-39.45 36.23-77.95 55.5-116.35 26.35-52.5 57.52-102.22 90.62-150.68 26.31-38.52 54.43-75.76 84.13-111.79 47.57-57.69 99.07-111.6 154.38-161.91 61.74-56.15 127.67-106.89 197.67-152.26 43.89-28.45 88.86-55.25 135.66-78.65 32.47-16.23 65.76-30.8 99.37-46.43m1182.91 1615.77c14.86 18.41 29.24 37.24 44.7 55.14 19.97 23.12 44.51 36.81 76.4 33.04 18.87-2.23 34.82-9.19 43.86-27.08 10.81-21.36 12.85-60.11-12.43-84.38-21.87-21-42.73-43.04-64.01-64.65-3.41-3.46-6.68-7.05-10.14-10.71 1.34-.86 1.57-1.12 1.86-1.18 1.3-.28 2.6-.58 3.91-.73 28.83-3.47 49.32-19.08 62.66-44.19 21.99-41.4 27.69-86.01 22.87-131.93-3.54-33.76-20.33-61.56-43.75-85.6-31.55-32.39-69.45-49.39-115.11-49.15l-210.98.17a134.6 134.6 0 0 0-20.89 1.64c-23.09 3.68-37.97 17.37-42.78 40.31-1.96 9.37-2.46 19.18-2.47 28.79l-.05 358.97c0 7.32.39 14.67 1.15 21.95 2.65 25.15 16.63 40.78 41.31 46.26 12.85 2.86 25.89 2.87 38.72.39 26.61-5.13 41.15-21.45 43.8-48.5.48-4.96.46-9.99.46-14.98l.02-296.97v-11.38c2.39-.49 3.35-.85 4.31-.85l140.98.2c7.83.07 15.93 1.98 23.37 4.55 12.6 4.36 18.92 14.37 18.5 26.75-.45 12.99-6.89 21.54-19.85 25.73-4.09 1.32-8.4 2.24-12.67 2.6a417.1 417.1 0 0 1-25.94 1.34c-14.99.33-30.03-.26-44.97.73-21.71 1.43-39.26 10.12-47.92 31.68-4.3 10.71-5.37 21.97-4.78 33.38 1.07 20.67 11.28 37.31 23.85 52.81l86.01 105.85M621 1784.02l-112.96.59c-20.65.19-41.33.19-61.93 1.48-23.86 1.49-40.27 15.6-45.73 37.97-3.36 13.76-3.69 27.69-.69 41.61 4.87 22.6 18.75 36.25 41.55 40.27 6.85 1.21 13.89 1.82 20.84 1.83l175.96-.01c16.3-.06 32.65-.62 48.89-2 22.98-1.95 45.41-6.83 66.82-15.71 40.14-16.65 66.82-45.35 77.74-87.77 6.82-26.48 7.31-53.35 3.44-80.35-3.06-21.36-9.51-41.53-21.33-59.74-18.91-29.14-46.62-45.95-79.05-55.96-28.28-8.73-57.46-11.16-86.84-11.6l-63.98-.07c-13.35-.02-26.67-.56-39.51-4.76-14.12-4.62-21.79-13.04-22.08-24.04-.31-11.64 6.99-20.71 21.1-26.02 11.68-4.4 23.88-5.99 36.27-6l133.96.02 65.98-.08c32.49-.77 51.85-16.84 55.72-47.33 1.48-11.69.79-24.04-1.2-35.7-3.82-22.43-18.31-35.6-40.35-40.31-6.15-1.31-12.54-2.07-18.83-2.08-66.98-.1-133.97-.38-200.95.22-30.08.27-59.76 4.62-88.12 15.47-45.91 17.57-74.45 50-84.08 98.57-4.85 24.44-5.12 48.98-1.74 73.57 6.98 50.72 33.39 86.76 81.09 106.52 29.37 12.17 60.27 16.6 91.75 17.28 26.65.58 53.32.05 79.98.35 15.04.17 30.03 1.4 43.76 8.4 9.33 4.76 14.79 12.47 14.82 23.14.03 10.66-5.13 18.84-14.72 23.07-7.51 3.31-15.65 6.25-23.73 7.01-16.54 1.55-33.23 1.53-51.85 2.16M1313.76 989l-.36-340.88c0-.27-.34-.54-.54-.8s-.43-.5-1.38-1.57c-6.6.6-13.83 1.56-21.1 1.88-34.6 1.52-69.04 4.53-103.22 10.35-24.84 4.23-48.55 11.09-69.8 25.42-33.34 22.48-62.53 49.69-91.01 77.8-3.55 3.51-3.7 7.5-3.7 11.89l.06 475.87c0 2.12.5 4.23.88 7.28l6.31-4.95 70.85-55.36c28.53-21.46 59.66-37.42 95.4-43.56 35.46-6.09 71.08-10.51 106.98-12.83 3.46-.22 6.89-1.01 10.63-1.58V989m130.45 720.27l-33.02 69.46a1264.9 1264.9 0 0 0-23.99 55.99c-2.15 5.37-3.43 11.77-2.82 17.45 2.37 22.3 13.07 39.47 33.48 49.96 11.31 5.82 23.46 7.02 35.9 7.01l224.88-.01 136.93.02c14.27.02 27.75-2.54 40.03-10.29 23.86-15.05 33.75-43.37 23.08-69.33-8.73-21.24-17.86-42.37-28-62.95l-138.09-278.3-23.14-45.39c-11.69-22.24-30.23-34.55-55.37-34.72-25.46-.18-44.51 11.74-56.67 34.3a313.6 313.6 0 0 0-4.62 8.86l-128.56 257.94M925.7 713.29l-33.23-25.61c-16.28-11.92-34.02-21.27-53.94-25.09-21.87-4.19-43.88-7.86-65.99-10.47-23.43-2.77-47.04-4.06-70.58-5.89-3.82-.3-7.69-.04-11.57-.04v492.08c3.09.48 5.68.97 8.29 1.26l96.16 10.7c36.26 4.74 69.76 17.32 99.15 39.44l77.55 59.72c2.52 1.95 4.92 4.04 8.88 7.3v-12.66V854.2l.14-80.96c.07-6.21-1.66-10.66-6.23-14.82l-48.63-45.13m1935.72 716.51c-8.41-11.96-20.37-18.17-34.47-19.75-11.55-1.3-23.25-1.66-34.88-1.68l-292.89-.38c-3.66 0-7.34-.03-10.99.26-32.66 2.64-51.72 21.85-54.02 54.51-.35 4.98-.33 9.99-.33 14.99v363.88c0 4.66-.02 9.34.28 13.99 2.09 31.86 21.14 50.73 53.03 52.53 5.65.32 11.32.4 16.98.41l296.9-.01c6.33 0 12.68-.08 18.97-.64 26.74-2.38 43.73-16.82 49.01-42.14a95.8 95.8 0 0 0-.18-39.71c-4.7-22.1-18.06-36.02-40.37-40.41-7.77-1.53-15.85-2.07-23.79-2.08l-232.92-.09h-11.36c-2.16-18.84-1.28-241.82.99-249.3h10.7l227.92-.1c9.28-.02 18.7-.58 27.79-2.29 17.38-3.26 31.24-12.46 37.75-29.35 9.26-24.03 9.32-48.12-4.12-72.63M2285 1977.4c-26.99 0-53.98-.02-80.98.02-4.66.01-9.35.06-13.97.54-19.16 2.01-31.09 12.97-34.27 32.01-1.14 6.85-1.4 13.92-1.41 20.88l-.05 252.92c0 4 .02 8 .24 11.99 1.53 27.53 15.63 41.11 43.27 41.73 1 .02 2 .01 3 .01l141.96-.08c20.36-.11 40.55-2.42 60.32-7.65 51.47-13.63 85.62-45.38 101.39-96.54 6.83-22.16 9.61-44.88 10.07-67.97.57-28.8-1.63-57.26-10.53-84.89-14.09-43.73-42.34-74.04-85.57-90-20.46-7.56-41.73-11.67-63.49-12.33-22.64-.68-45.31-.47-69.96-.64m-891.24 181.94c-8.39-12.83-19.61-22.51-32.97-29.89a126.8 126.8 0 0 0-47.3-15.1c-16.18-1.84-32.51-2.54-48.8-3.18-16.97-.66-33.99-.15-50.92-1.17a50 50 0 0 1-19.92-5.66c-11.98-6.39-12.45-20.82-1.39-28.67 3.45-2.45 7.59-4.53 11.7-5.32 8.13-1.57 16.45-2.9 24.71-2.95l107.94.03c13.64-.03 27.37.18 40.89-1.29 17.44-1.89 28.23-11.77 31.07-29 1.64-9.96 1.38-20.65-.28-30.64-2.7-16.26-13.89-25.25-29.8-28.24-5.2-.98-10.59-1.35-15.89-1.37-43.65-.1-87.29-.25-130.94.02-23.7.15-47.25 2.06-69.88 10.05-30.86 10.91-52.75 30.83-61.69 62.95-7.19 25.86-7.18 52.09-.27 78.02 6.58 24.7 21.36 43.34 43.88 55.67 13.59 7.44 28.12 12.39 43.41 14.29 15.49 1.93 31.13 3.05 46.74 3.66 16.64.65 33.31.12 49.97.43 9.38.17 18.71 1.52 26.9 6.49 12.91 7.83 13.03 24.31-.09 31.75-5.34 3.03-11.74 4.79-17.87 5.72-8.52 1.29-17.24 1.66-25.88 1.73l-126.93.65a83.8 83.8 0 0 0-14.87 1.45c-15.34 2.89-25.56 12.1-28.16 27.35-1.7 9.98-1.63 20.66-.09 30.68 2.09 13.58 11 22.9 24.45 26.19 8.3 2.03 17.09 2.7 25.68 2.79l87.96.09 55.95-.74c18.42-.5 36.43-3.73 53.82-9.89 35.29-12.51 57.19-36.71 63.83-73.91a138.5 138.5 0 0 0 2.25-21.83c.43-24.65-2.84-48.53-17.21-71.17m-189.51-705.26c-.33 6.99-.94 13.97-.96 20.96l-.07 108.99c0 3.54-.3 7.09-.47 10.89-3.28.23-5.56.5-7.84.52l-80.98.81c-7.63.12-15.35.59-22.85 1.92-22.09 3.89-36.77 16.41-42.32 38.53-3.63 14.48-3.53 29.08.15 43.55 5.14 20.27 17.88 33.35 38.33 37.75 9.68 2.08 19.79 2.89 29.72 2.98 25.99.24 51.98-.26 77.97-.4 2.51-.01 5.03.41 8.33.7v11.51l.04 112.99c.01 5.32.19 10.68.82 15.96 2.88 24.16 16.55 40.08 40.58 44.38a123.4 123.4 0 0 0 37.67.95c25.53-3.45 39.52-18.03 44.08-43.44 1.23-6.83 1.56-13.9 1.58-20.87l.25-195.98.18-153.99c0-10.99.25-22.04-.63-32.97-2.55-31.78-22.03-50.37-53.82-51.93-4.99-.24-10-.28-14.99-.04-34.8 1.65-50.1 20.26-54.77 46.24m903.16 770.12c5-22.89 6.87-46.06 6.77-69.48l-.07-127.97c0-4.33.06-8.69-.39-12.98-2.18-20.67-13.21-32.94-33.85-36.05-8.05-1.21-16.64-.89-24.7.46-15.63 2.62-25.65 12.34-29.1 27.87-1.5 6.75-2.01 13.85-2.03 20.79l-.12 131.96c-.03 18.1-1.96 35.93-9.18 52.79-5.27 12.31-13.32 22.19-25.3 28.63-38.32 20.6-83.25 2.05-95.41-39.47-4.53-15.49-5.78-31.4-5.76-47.45l.18-128.96c0-4.66.05-9.38-.62-13.96-2.25-15.47-10.07-26.63-25.64-31.19-12.13-3.55-24.33-3.56-36.46-.03-14.13 4.11-22.69 13.61-25.58 27.88-1.25 6.15-1.79 12.55-1.81 18.84l-.03 130.96c.12 28.75 2.79 57.22 11.72 84.78 15.77 48.66 47.73 79.87 98.3 90.87 33.42 7.27 66.86 6.92 100.06-1.07 26.93-6.49 50.13-19.62 68.07-41.17 15.7-18.86 24.85-40.83 30.95-66.05M1016.05 1511l-.08-33.99c-.24-8.63-.44-17.37-1.97-25.82-4.05-22.34-17.77-35.94-39.78-41.02-13.14-3.04-26.39-3.11-39.65-.36-24.45 5.08-39.14 20.47-42.62 45.29-.97 6.9-1.52 13.92-1.53 20.89l.02 365.88c.01 7.63.51 15.37 1.88 22.86 4.06 22.17 16.87 37.05 39.31 41.18 11.61 2.14 23.99 2.8 35.67 1.34 27.92-3.49 43.15-19.5 47.21-47.46 1-6.89 1.32-13.93 1.32-20.9l.21-327.89m1737.06 519.09l-42.7 51.11-12.84-15.41-62.08-73.19c-4.8-5.64-10.27-10.44-17.52-12.83-13.72-4.54-27.49-4.86-41.22-.29-12.69 4.23-20.79 12.91-23.65 26.09-4.33 19.95.01 37.67 14.11 52.73 3.87 4.13 8.08 7.97 11.71 12.3l79.66 94.99c3.91 4.62 5.6 9.21 5.58 15.3l.33 103.98c.06 7.3.47 14.71 1.78 21.87 2.67 14.64 10.98 24.88 25.74 28.82 11.52 3.07 23.12 2.67 34.56-.66 13.22-3.85 22.08-12.4 25.28-25.81 1.6-6.72 2.22-13.81 2.28-20.75l.22-106.98c-.02-5.68 1.51-10.07 5.27-14.41l57.91-67.55 37.09-41.9c14.64-16.14 19.16-34.63 13.61-55.58-2.42-9.13-7.96-16-16.22-20.65-20.25-11.39-50.47-6.67-65.98 10.65-10.89 12.16-21.35 24.71-32.92 38.18M1558.03 2125l-.14 163.94c0 4.66-.07 9.36.48 13.97 2.01 16.94 11.36 28.18 26.93 32.35 11.49 3.08 23.09 3.11 34.56-.17 14.01-4 23.16-13.05 26.15-27.38 1.41-6.78 1.94-13.86 1.95-20.8l-.08-206.93v-12.26h10.28l51.98-.08c6.3-.08 12.69-.53 18.85-1.78 15.41-3.12 25.68-12.24 29.36-27.79 1.22-5.14 1.9-10.51 1.97-15.79.36-30.19-13.29-44.26-43.34-44.87l-44.96-.57-177.93-.22c-5.95 0-12.04.51-17.84 1.8-14.91 3.32-24.85 12.25-28.55 27.44-2.73 11.2-2.81 22.44.08 33.61 3.8 14.69 13.39 23.53 28.12 26.47 5.84 1.17 11.89 1.64 17.85 1.71l54.98.11c2.87.01 5.73.41 9.3.68V2125m-501.08-868.81l-11.51 36.63c4.32-2.05 6.94-3.2 9.48-4.52l65.55-34.2c33.28-16.84 66.39-34.32 102.83-43.56l118.42-28.51 32.84-7.18V682.81c-15.08.25-29.49.55-44.48 2.56v472.23l-7.43.86-75.42 7.77c-23.79 2.93-47.66 6.45-70.08 15.28-41.17 16.22-78.22 39.91-114.18 65.34-2.45 1.73-3.65 5.24-6.02 9.33m-428.28-86.42c-.5 5.84 3.86 5.93 7.8 6.8l96.45 21.52c45.26 10.3 89.31 24.03 130.51 45.97l86.88 45.09c2.09 1.08 4.39 1.77 7.8 3.12-3.71-11.75-7.37-21.75-9.93-32.02-2-8-6.46-13.3-13.09-17.84-27.25-18.65-55.54-35.48-84.85-50.69-15.18-7.88-31.08-13.63-47.71-17.36-33.83-7.58-68.2-11.45-102.68-14.44l-26.55-2.29V684.77l-44.65-2.28.01 487.28m2206.85 518.35c4.73-12.76 5.53-25.98 4.3-39.36-2.53-27.69-18.34-45.67-44.51-50.33-6.84-1.22-13.89-1.76-20.85-1.79h-119.82c-6.63.02-13.32.58-19.86 1.66-23.25 3.81-38.6 17.97-42.82 41.35-2.04 11.3-2.61 23.28-1.35 34.67 2.94 26.74 18.21 41.83 44.67 46.07a115.8 115.8 0 0 0 17.86 1.4l106.84.06c7.99 0 16.01.35 23.96-.23 22.56-1.66 41.52-9.38 51.58-33.49m-1700.33-423.87c-17.75 8.37-29.51 22.78-40.75 40.07 4.03-1.08 6.58-1.58 9.01-2.44l132.76-46.93c20.07-7.09 39.83-15.32 60.32-20.91 35.42-9.66 71.99-12.85 108.47-16.04l24.54-2.01V723.77l-32.71 1.56v95.11 92.97 93.97l-.02 92.97-.31 93.7c-45.94 3.8-91.05 6.21-134.44 18.33-43.67 12.2-85.22 30.42-126.86 51.87m-271.82-2.71c-40.07-19.77-80.87-38.02-124.05-49.68-43.14-11.65-87.84-13.86-133.2-17.97v-468.5l-32.16-1.51v491.77c3.83.54 7.08 1.12 10.35 1.45l70.5 7.08c31.17 3.71 61.37 11.06 90.92 22.19 51.72 19.46 104.02 37.36 156.1 55.86 1.85.66 3.91.72 6.7 1.2-11.39-18.47-25.05-32.61-45.16-41.89z"/><path fill="#fdfefe" d="M2206.71 1819.3l-85.56-105.3c-12.57-15.5-22.78-32.14-23.85-52.81-.59-11.4.48-22.66 4.78-33.38 8.66-21.56 26.21-30.25 47.92-31.68 14.94-.99 29.98-.39 44.97-.73a417.1 417.1 0 0 0 25.94-1.34c4.27-.36 8.59-1.28 12.67-2.6 12.95-4.18 19.4-12.74 19.85-25.73.42-12.38-5.9-22.39-18.5-26.75-7.45-2.58-15.55-4.48-23.37-4.55l-140.98-.2c-.96 0-1.91.36-4.31.85v11.38l-.02 296.97c0 4.99.02 10.02-.46 14.98-2.64 27.04-17.19 43.37-43.8 48.5-12.83 2.47-25.87 2.46-38.72-.39-24.68-5.49-38.66-21.11-41.31-46.26-.77-7.28-1.15-14.63-1.15-21.95l.05-358.97c.01-9.61.51-19.43 2.47-28.79 4.81-22.95 19.7-36.63 42.78-40.31a134.6 134.6 0 0 1 20.89-1.64l210.98-.17c45.66-.24 83.56 16.76 115.11 49.15 23.42 24.04 40.21 51.84 43.75 85.6 4.82 45.92-.89 90.53-22.87 131.93-13.33 25.11-33.82 40.73-62.66 44.19-1.31.16-2.61.46-3.91.73-.28.06-.52.32-1.86 1.18l10.14 10.71 64.01 64.65c25.28 24.27 23.24 63.02 12.43 84.38-9.05 17.89-25 24.85-43.86 27.08-31.89 3.77-56.43-9.92-76.4-33.04-15.46-17.9-29.84-36.73-45.15-55.69z"/><path fill="#fefefe" d="M622 1784.01c17.63-.63 34.31-.6 50.85-2.16 8.08-.76 16.22-3.7 23.73-7.01 9.59-4.23 14.75-12.41 14.72-23.07-.03-10.67-5.49-18.38-14.82-23.14-13.73-7-28.73-8.24-43.76-8.4-26.66-.29-53.33.23-79.98-.35-31.47-.68-62.38-5.11-91.75-17.28-47.7-19.76-74.11-55.8-81.09-106.52-3.38-24.59-3.11-49.13 1.74-73.57 9.64-48.58 38.17-81 84.08-98.57 28.36-10.85 58.04-15.2 88.12-15.47l200.95-.22c6.28.01 12.68.77 18.83 2.08 22.04 4.71 36.52 17.88 40.35 40.31 1.99 11.66 2.68 24.01 1.2 35.7-3.87 30.48-23.23 46.56-55.72 47.33-21.98.52-43.99.09-65.98.08l-133.96-.02c-12.4.01-24.59 1.6-36.27 6-14.11 5.31-21.41 14.38-21.1 26.02.29 11 7.95 19.42 22.08 24.04 12.84 4.2 26.16 4.74 39.51 4.76l63.98.07c29.38.45 58.56 2.88 86.84 11.6 32.43 10.01 60.14 26.82 79.05 55.96 11.82 18.21 18.27 38.38 21.33 59.74 3.87 27 3.37 53.87-3.44 80.35-10.92 42.42-37.6 71.12-77.74 87.77-21.41 8.88-43.85 13.76-66.82 15.71-16.24 1.38-32.59 1.93-48.89 2l-175.96.01c-6.95-.02-13.99-.63-20.84-1.83-22.8-4.01-36.68-17.67-41.55-40.27-3-13.91-2.67-27.85.69-41.61 5.46-22.37 21.87-36.48 45.73-37.97 20.59-1.29 41.28-1.29 61.93-1.48l113.96-.59z"/><path fill="#fefeff" d="M1313.76 990v147.95c-3.74.57-7.16 1.36-10.63 1.58-35.9 2.32-71.52 6.74-106.98 12.83-35.74 6.14-66.88 22.1-95.4 43.56-23.95 18.02-47.26 36.88-70.85 55.36l-6.31 4.95c-.38-3.05-.88-5.16-.88-7.28l-.06-475.87c0-4.39.15-8.39 3.7-11.89 28.48-28.11 57.68-55.32 91.01-77.8 21.25-14.33 44.96-21.19 69.8-25.42 34.18-5.82 68.62-8.83 103.22-10.35 7.26-.32 14.49-1.27 21.1-1.88l1.38 1.57c.2.26.54.53.54.8l.36 341.88z"/><path fill="#fdfefe" d="M1444.53 1708.59l128.23-257.27a313.6 313.6 0 0 1 4.62-8.86c12.16-22.55 31.21-34.47 56.67-34.3 25.14.17 43.68 12.48 55.37 34.72l23.14 45.39 138.09 278.3c10.15 20.59 19.28 41.72 28 62.95 10.66 25.96.78 54.28-23.08 69.33-12.28 7.75-25.77 10.31-40.03 10.29l-136.93-.02c-74.96 0-149.92-.01-224.88.01-12.44 0-24.58-1.19-35.9-7.01-20.4-10.49-31.1-27.66-33.48-49.96-.6-5.68.67-12.08 2.82-17.45a1264.9 1264.9 0 0 1 23.99-55.99l33.35-70.13m120.09 38.89l-17.22 35.41h171.78l-85.89-176.08-68.67 140.67z"/><path fill="#fff" d="M926.25 713.74l48.09 44.68c4.57 4.16 6.3 8.62 6.23 14.82l-.14 80.96v389.82 12.66l-8.88-7.3-77.55-59.72c-29.4-22.12-62.89-34.7-99.15-39.44-31.97-4.18-64.1-7.16-96.16-10.7-2.61-.29-5.2-.79-8.29-1.26V646.19c3.88 0 7.75-.26 11.57.04l70.58 5.89c22.1 2.61 44.12 6.27 65.99 10.47 19.92 3.82 37.66 13.18 53.94 25.09 11.28 8.26 22.16 17.05 33.77 26.06z"/><path fill="#fefeff" d="M2861.82 1430.42c13.04 23.88 12.99 47.97 3.72 72-6.51 16.89-20.37 26.09-37.75 29.35-9.09 1.71-18.51 2.26-27.79 2.29l-227.92.1h-10.7c-2.26 7.48-3.14 230.46-.99 249.3h11.36l232.92.09c7.94.02 16.02.55 23.79 2.08 22.3 4.39 35.66 18.31 40.37 40.41a95.8 95.8 0 0 1 .18 39.71c-5.28 25.32-22.27 39.76-49.01 42.14-6.29.56-12.65.63-18.97.64l-296.9.01c-5.66 0-11.33-.09-16.98-.41-31.89-1.8-50.94-20.66-53.03-52.53-.31-4.65-.28-9.32-.28-13.99v-363.88c0-5-.02-10.01.33-14.99 2.3-32.66 21.36-51.87 54.02-54.51 3.65-.29 7.32-.27 10.99-.26l292.89.38c11.63.03 23.34.38 34.88 1.68 14.1 1.58 26.06 7.79 34.86 20.38z"/><path d="M2286 1977.4l68.96.64a199.9 199.9 0 0 1 63.49 12.33c43.23 15.96 71.48 46.27 85.57 90 8.9 27.63 11.1 56.08 10.53 84.89-.46 23.09-3.24 45.8-10.07 67.97-15.77 51.16-49.92 82.92-101.39 96.54-19.77 5.23-39.96 7.54-60.32 7.65l-141.96.08c-1 0-2 .02-3-.01-27.63-.62-41.73-14.2-43.27-41.73a217.8 217.8 0 0 1-.24-11.99l.05-252.92c.01-6.97.27-14.03 1.41-20.88 3.18-19.03 15.11-29.99 34.27-32.01a135.6 135.6 0 0 1 13.97-.54l81.98-.02m-41.46 259.25l.61 10.12h10l80.89-.04c5.98-.02 12.01-.15 17.94-.86 29.56-3.55 52.93-16.36 63.18-45.94 9.77-28.2 9.82-56.96.14-85.27-6.49-18.97-19.79-32.02-38.44-39.52-13.48-5.42-27.58-7.37-42.01-7.39-28.29-.03-56.59-.03-84.88.01-2.21 0-4.41.47-7.43.81v168.08zm-850.4-76.69c14.01 22.01 17.27 45.89 16.85 70.54a138.5 138.5 0 0 1-2.25 21.83c-6.64 37.2-28.55 61.4-63.83 73.91-17.4 6.17-35.4 9.4-53.82 9.89-18.64.5-37.3.67-55.95.74-29.32.12-58.64.23-87.96-.09-8.59-.09-17.38-.76-25.68-2.79-13.45-3.3-22.36-12.62-24.45-26.19-1.54-10.02-1.61-20.7.09-30.68 2.59-15.24 12.82-24.46 28.16-27.35a83.8 83.8 0 0 1 14.87-1.45l126.93-.65c8.64-.07 17.36-.44 25.88-1.73 6.13-.93 12.53-2.69 17.87-5.72 13.12-7.44 12.99-23.92.09-31.75-8.2-4.98-17.53-6.32-26.9-6.49-16.65-.31-33.33.22-49.97-.43-15.61-.61-31.24-1.74-46.74-3.66-15.28-1.9-29.82-6.85-43.41-14.29-22.52-12.33-37.3-30.97-43.88-55.67-6.91-25.93-6.93-52.16.27-78.02 8.94-32.11 30.83-52.04 61.69-62.95 22.63-8 46.18-9.91 69.88-10.05l130.94-.02c5.3.01 10.69.39 15.89 1.37 15.91 2.98 27.1 11.98 29.8 28.24 1.66 9.99 1.92 20.68.28 30.64-2.84 17.22-13.63 27.11-31.07 29-13.52 1.47-27.25 1.26-40.89 1.29-35.98.09-71.96-.27-107.94-.03-8.25.05-16.58 1.39-24.71 2.95-4.11.79-8.25 2.87-11.7 5.32-11.06 7.85-10.59 22.29 1.39 28.67a50 50 0 0 0 19.92 5.66c16.94 1.02 33.96.51 50.92 1.17 16.29.64 32.62 1.34 48.8 3.18a126.8 126.8 0 0 1 47.3 15.1c13.36 7.38 24.58 17.06 33.33 30.51z" fill="#fdfefe"/><path fill="#fefeff" d="M1204.39 1453.21c4.53-25.11 19.83-43.71 54.63-45.36 4.99-.24 10-.2 14.99.04 31.79 1.56 51.27 20.15 53.82 51.93.88 10.94.63 21.98.63 32.97l-.18 153.99-.25 195.98c-.02 6.96-.35 14.03-1.58 20.87-4.56 25.4-18.55 39.99-44.08 43.44a123.4 123.4 0 0 1-37.67-.95c-24.03-4.3-37.7-20.22-40.58-44.38-.63-5.28-.81-10.64-.82-15.96l-.04-112.99v-11.51c-3.3-.29-5.81-.71-8.33-.7l-77.97.4c-9.93-.09-20.03-.9-29.72-2.98-20.46-4.4-33.19-17.48-38.33-37.75-3.67-14.47-3.78-29.08-.15-43.55 5.55-22.12 20.23-34.64 42.32-38.53 7.5-1.32 15.22-1.79 22.85-1.92l80.98-.81c2.28-.02 4.56-.3 7.84-.52.17-3.8.47-7.34.47-10.89l.07-108.99c.02-6.99.62-13.97 1.1-21.83z"/><path d="M2107.19 2225c-5.87 24.42-15.02 46.39-30.72 65.25-17.95 21.55-41.15 34.69-68.07 41.17a221.4 221.4 0 0 1-100.06 1.07c-50.57-11-82.53-42.21-98.3-90.87-8.93-27.56-11.6-56.03-11.72-84.78l.03-130.96a96.7 96.7 0 0 1 1.81-18.84c2.9-14.27 11.46-23.77 25.58-27.88a63.9 63.9 0 0 1 36.46.03c15.58 4.56 23.39 15.71 25.64 31.19.67 4.59.62 9.31.62 13.96l-.18 128.96c-.02 16.05 1.23 31.96 5.76 47.45 12.15 41.52 57.09 60.08 95.41 39.47 11.98-6.44 20.02-16.31 25.3-28.63 7.22-16.86 9.15-34.69 9.18-52.79l.12-131.96c.03-6.94.53-14.04 2.03-20.79 3.45-15.53 13.47-25.25 29.1-27.87 8.06-1.35 16.65-1.67 24.7-.46 20.64 3.11 31.67 15.38 33.85 36.05.45 4.29.39 8.65.39 12.98l.07 127.97c.1 23.41-1.77 46.59-6.99 70.28zm-1091.14-713l-.21 326.89c-.01 6.97-.32 14.01-1.32 20.9-4.06 27.96-19.29 43.97-47.21 47.46-11.68 1.46-24.06.8-35.67-1.34-22.44-4.13-35.25-19.01-39.31-41.18-1.37-7.49-1.87-15.23-1.88-22.86l-.02-365.88a152.1 152.1 0 0 1 1.53-20.89c3.48-24.83 18.18-40.21 42.62-45.29 13.27-2.76 26.51-2.68 39.65.36 22.01 5.08 35.73 18.69 39.78 41.02 1.53 8.45 1.73 17.2 1.97 25.82.32 11.32.08 22.66.08 34.99zm1737.51 517.55l32.46-37.63c15.51-17.32 45.73-22.04 65.98-10.65 8.26 4.64 13.8 11.52 16.22 20.65 5.55 20.95 1.03 39.45-13.61 55.58l-37.09 41.9-57.91 67.55c-3.76 4.33-5.29 8.72-5.27 14.41l-.22 106.98c-.06 6.93-.67 14.03-2.28 20.75-3.2 13.42-12.06 21.97-25.28 25.81-11.43 3.33-23.04 3.73-34.56.66-14.77-3.94-23.07-14.17-25.74-28.82-1.31-7.16-1.72-14.57-1.78-21.87l-.33-103.98c.02-6.09-1.67-10.68-5.58-15.3l-79.66-94.99c-3.63-4.33-7.84-8.16-11.71-12.3-14.1-15.05-18.43-32.77-14.11-52.73 2.86-13.18 10.95-21.86 23.65-26.09 13.73-4.58 27.5-4.25 41.22.29 7.24 2.4 12.72 7.2 17.52 12.83l62.08 73.19 12.84 15.41 43.16-51.66zM1558.03 2124v-55.55l-9.3-.68c-18.33-.06-36.66.1-54.98-.11a97 97 0 0 1-17.85-1.71c-14.73-2.95-24.32-11.78-28.12-26.47-2.89-11.17-2.81-22.41-.08-33.61 3.7-15.18 13.64-24.11 28.55-27.44 5.8-1.29 11.88-1.8 17.84-1.8l177.93.22 44.96.57c30.05.6 43.71 14.67 43.34 44.87-.06 5.28-.75 10.65-1.97 15.79-3.68 15.56-13.95 24.67-29.36 27.79-6.15 1.25-12.55 1.69-18.85 1.78l-51.98.08h-10.28v12.26l.08 206.93c-.01 6.94-.53 14.02-1.95 20.8-2.99 14.33-12.15 23.38-26.15 27.38-11.47 3.28-23.07 3.25-34.56.17-15.56-4.17-24.91-15.41-26.93-32.35-.55-4.61-.48-9.31-.48-13.97l.14-164.94z" fill="#fdfefe"/><path d="M1057.25 1255.48c2.08-3.39 3.27-6.89 5.72-8.63 35.96-25.44 73.01-49.12 114.18-65.34 22.42-8.84 46.29-12.35 70.08-15.28 25.08-3.09 50.28-5.22 75.42-7.77l7.43-.86V685.37c14.99-2.01 29.4-2.31 44.48-2.56v492.03l-32.84 7.18-118.42 28.51c-36.43 9.24-69.55 26.72-102.83 43.56l-65.55 34.2c-2.53 1.32-5.16 2.47-9.48 4.52l11.81-37.34zm-428.59-86.6V682.49l44.65 2.28v472.84l26.55 2.29c34.48 2.99 68.85 6.86 102.68 14.44a196 196 0 0 1 47.71 17.36c29.3 15.21 57.6 32.05 84.85 50.69 6.63 4.54 11.09 9.84 13.09 17.84 2.56 10.27 6.23 20.27 9.93 32.02-3.41-1.35-5.71-2.04-7.8-3.12l-86.88-45.09c-41.21-21.94-85.25-35.67-130.51-45.97l-96.45-21.52c-3.94-.87-8.3-.97-7.81-7.69z" fill="#f8fbfd"/><path fill="#fdfefe" d="M2835.19 1688.82c-9.74 23.4-28.7 31.12-51.26 32.78-7.95.58-15.97.23-23.96.23-35.61.02-71.23.07-106.84-.06a115.8 115.8 0 0 1-17.86-1.4c-26.46-4.24-41.73-19.32-44.67-46.07-1.25-11.4-.69-23.38 1.35-34.67 4.22-23.38 19.56-37.55 42.82-41.35 6.54-1.07 13.23-1.63 19.86-1.66h119.82c6.96.03 14 .57 20.85 1.79 26.17 4.66 41.98 22.65 44.51 50.33 1.22 13.38.42 26.6-4.63 40.07z"/><path fill="#f8fbfc" d="M1135.84 1263.91c40.99-21.12 82.54-39.33 126.21-51.53 43.39-12.12 88.5-14.53 134.44-18.33.72-31.34.22-62.53.31-93.7l.02-92.97v-93.97-92.97-95.11l32.71-1.56v492.22l-24.54 2.01c-36.48 3.18-73.05 6.38-108.47 16.04-20.48 5.59-40.25 13.82-60.32 20.91l-132.76 46.93c-2.43.86-4.98 1.36-9.01 2.44 11.25-17.29 23-31.7 41.4-40.4z"/><path fill="#fdfefe" d="M864.04 1261.85c19.44 8.97 33.1 23.1 44.49 41.57-2.79-.48-4.85-.54-6.7-1.2l-156.1-55.86c-29.56-11.12-59.76-18.48-90.92-22.19-23.45-2.79-47-4.72-70.5-7.08-3.27-.33-6.52-.91-10.35-1.45V723.88l32.16 1.51v468.5c45.36 4.1 90.06 6.32 133.2 17.97 43.19 11.67 83.98 29.91 124.72 50z"/><path fill="#1a85ad" d="M1564.98 1746.83l68.32-140.01 85.89 176.08H1547.4l17.57-36.07z"/><path fill="#1884ad" d="M2244.54 2235.68v-167.12l7.43-.81 84.88-.01c14.43.01 28.53 1.96 42.01 7.39 18.65 7.5 31.95 20.55 38.44 39.52 9.68 28.31 9.63 57.07-.14 85.27-10.25 29.58-33.62 42.39-63.18 45.94-5.93.71-11.96.84-17.94.86l-80.89.04h-10l-.61-11.09z"/></svg>
